<?xml version="1.0" encoding="UTF-8" standalone="no"?>
<!-- Created with Inkscape (http://www.inkscape.org/) -->

<svg
   xmlns:dc="http://purl.org/dc/elements/1.1/"
   xmlns:cc="http://creativecommons.org/ns#"
   xmlns:rdf="http://www.w3.org/1999/02/22-rdf-syntax-ns#"
   xmlns:svg="http://www.w3.org/2000/svg"
   xmlns="http://www.w3.org/2000/svg"
   xmlns:sodipodi="http://sodipodi.sourceforge.net/DTD/sodipodi-0.dtd"
   xmlns:inkscape="http://www.inkscape.org/namespaces/inkscape"
   width="720"
   height="720"
   viewBox="0 0 190.5 190.50001"
   version="1.1"
   id="svg13305"
   inkscape:version="0.92.5 (2060ec1f9f, 2020-04-08)"
   sodipodi:docname="draft_square_circle.svg"
   inkscape:export-filename="/home/davide/Documents/BASICS/BASICS/logo/draft_square_circle.png"
   inkscape:export-xdpi="96"
   inkscape:export-ydpi="96">
  <defs
     id="defs13299" />
  <sodipodi:namedview
     id="base"
     pagecolor="#ffffff"
     bordercolor="#666666"
     borderopacity="1.0"
     inkscape:pageopacity="0.0"
     inkscape:pageshadow="2"
     inkscape:zoom="0.7"
     inkscape:cx="123.01603"
     inkscape:cy="308.41929"
     inkscape:document-units="mm"
     inkscape:current-layer="layer1"
     showgrid="false"
     inkscape:window-width="1848"
     inkscape:window-height="1016"
     inkscape:window-x="72"
     inkscape:window-y="27"
     inkscape:window-maximized="1"
     units="px"
     inkscape:snap-global="false" />
  <metadata
     id="metadata13302">
    <rdf:RDF>
      <cc:Work
         rdf:about="">
        <dc:format>image/svg+xml</dc:format>
        <dc:type
           rdf:resource="http://purl.org/dc/dcmitype/StillImage" />
        <dc:title></dc:title>
      </cc:Work>
    </rdf:RDF>
  </metadata>
  <g
     inkscape:label="Layer 1"
     inkscape:groupmode="layer"
     id="layer1"
     transform="translate(0,-106.49998)">
    <rect
       style="opacity:1;fill:#00aad4;fill-opacity:0.98823529;stroke:#00aad4;stroke-width:0.68544;stroke-linecap:round;stroke-miterlimit:4;stroke-dasharray:none;stroke-dashoffset:0"
       id="rect829-2-2-2"
       width="189.91022"
       height="110.39372"
       x="0.39337081"
       y="108.00493" />
    <rect
       style="opacity:1;fill:#0088aa;fill-opacity:0.98823529;stroke:#0088aa;stroke-width:0.57448143;stroke-linecap:round;stroke-miterlimit:4;stroke-dasharray:none;stroke-dashoffset:0"
       id="rect829-2-2-9-8-9"
       width="190.23618"
       height="77.412781"
       x="0.28382227"
       y="218.46964" />
    <g
       id="g11914-0-8"
       transform="matrix(4.898925,0,0,4.898925,-499.71277,-161.10383)"
       style="fill:#ffb380;stroke:#ffb380;stroke-width:0;stroke-miterlimit:4;stroke-dasharray:none">
      <g
         style="fill:#ffb380;stroke:#ffb380;stroke-width:0;stroke-miterlimit:4;stroke-dasharray:none"
         transform="translate(25.201038,11.228272)"
         id="g10752-7-4-8">
        <path
           style="fill:#ffb380;stroke:#ffb380;stroke-width:0;stroke-linecap:butt;stroke-linejoin:miter;stroke-miterlimit:4;stroke-dasharray:none;stroke-opacity:1"
           d="m 99.887476,70.965849 -0.25802,-16.26452"
           id="path10469-6-2-8"
           inkscape:connector-curvature="0"
           sodipodi:nodetypes="cc" />
        <path
           style="fill:#ffb380;stroke:#ffb380;stroke-width:0;stroke-linecap:butt;stroke-linejoin:miter;stroke-miterlimit:4;stroke-dasharray:none;stroke-opacity:1"
           d="m 93.007886,70.836839 -0.12901,-16.13551"
           id="path10471-1-9-6"
           inkscape:connector-curvature="0"
           sodipodi:nodetypes="cc" />
        <path
           style="fill:#ffb380;stroke:#ffb380;stroke-width:0;stroke-linecap:butt;stroke-linejoin:miter;stroke-miterlimit:4;stroke-dasharray:none;stroke-opacity:1"
           d="M 104.51544,66.337899 88.250916,66.079879"
           id="path10473-3-6-8"
           inkscape:connector-curvature="0"
           sodipodi:nodetypes="cc" />
        <path
           style="fill:#ffb380;stroke:#ffb380;stroke-width:0;stroke-linecap:butt;stroke-linejoin:miter;stroke-miterlimit:4;stroke-dasharray:none;stroke-opacity:1"
           d="M 104.38644,59.458299 88.250916,59.329289"
           id="path10475-2-1-3"
           inkscape:connector-curvature="0"
           sodipodi:nodetypes="cc" />
        <path
           style="opacity:1;fill:#ffb380;fill-opacity:0.98823529;stroke:#ffb380;stroke-width:0;stroke-linecap:round;stroke-miterlimit:4;stroke-dasharray:none;stroke-dashoffset:0"
           d="m 90.006816,65.952069 c -1.46025,-0.0268 -2.91877,-0.0853 -3.24117,-0.12983 -4.76267,-0.65846 -8.51794,-4.18463 -9.51557,-8.93505 -0.21038,-1.00177 -0.25996,-2.65907 -0.11037,-3.6894 0.34479,-2.37485 1.32965,-4.45114 2.90524,-6.12489 3.06039,-3.25103 7.5498,-4.40059 11.74462,-3.00731 3.33014,1.10608 5.99237,3.76634 7.10535,7.1001 0.48105,1.44089 0.61713,2.8849 0.6253,6.63523 l 0.003,1.46542 h -1.26457 c -0.6955,0 -2.15402,-0.0205 -3.24115,-0.0456 l -1.97661,-0.0456 v -2.43991 c 0,-2.84806 -0.038,-3.14693 -0.52862,-4.15813 -0.26825,-0.55288 -0.41056,-0.74681 -0.9118,-1.24257 -0.98905,-0.97824 -2.02058,-1.40312 -3.38685,-1.395 -1.33739,0.008 -2.38579,0.45418 -3.34561,1.42399 -0.94164,0.95142 -1.37339,1.99359 -1.37413,3.31689 -5.3e-4,0.87733 0.11864,1.41158 0.47672,2.13779 0.47872,0.97087 1.18645,1.66827 2.20868,2.17646 0.83682,0.41601 1.1825,0.4592 4.02543,0.50288 1.37956,0.0212 2.51604,0.0477 2.5255,0.0588 0.009,0.0112 0.0328,1.47104 0.0519,3.2442 0.0255,2.36815 0.0141,3.22078 -0.0429,3.2121 -0.0427,-0.006 -1.2724,-0.0338 -2.73264,-0.0606 z"
           id="path10533-9-0-8"
           inkscape:connector-curvature="0" />
        <path
           style="opacity:1;fill:#ffb380;fill-opacity:0.98823529;stroke:#ffb380;stroke-width:0;stroke-linecap:round;stroke-miterlimit:4;stroke-dasharray:none;stroke-dashoffset:0"
           d="m 102.69562,82.186509 c -4.480364,-0.67866 -8.157464,-3.93421 -9.375284,-8.30046 -0.32891,-1.17928 -0.36716,-1.61632 -0.41041,-4.68934 l -0.0412,-2.93084 -2.44811,-0.0447 c -2.9396,-0.0537 -3.55449,-0.091 -4.42483,-0.26808 -4.84848,-0.98659 -8.47905,-4.90036 -9.12635,-9.83824 -0.57663,-4.39873 1.56143,-8.8479 5.37931,-11.19403 4.26456,-2.62062 9.79479,-2.14839 13.57852,1.15947 1.76686,1.54466 3.1254,3.84477 3.63004,6.14593 0.19944,0.90938 0.27096,1.95821 0.3162,4.63656 l 0.0415,2.45814 2.905734,0.0347 c 2.56787,0.0306 2.99732,0.0516 3.69345,0.18039 7.43248,1.37495 11.55459,9.37058 8.34786,16.19231 -1.42385,3.02898 -4.15374,5.31536 -7.38271,6.18329 -1.42151,0.38209 -3.26288,0.49019 -4.68371,0.27498 z m 2.86464,-6.81848 c 1.26616,-0.32078 2.43441,-1.2508 2.98774,-2.37847 0.65689,-1.33872 0.65324,-2.70087 -0.0109,-4.0687 -0.57142,-1.1769 -1.79237,-2.11526 -3.08307,-2.36951 -0.3616,-0.0712 -1.27267,-0.11663 -3.02833,-0.15092 l -2.511134,-0.049 0.0438,2.59994 c 0.0485,2.87924 0.0809,3.13615 0.505434,4.01007 0.56263,1.15817 1.7254,2.10177 2.95674,2.39944 0.55265,0.1336 1.62645,0.13721 2.13969,0.007 z m -12.402414,-4.01498 c -0.0175,-0.0671 -0.0329,-0.0289 -0.0344,0.0849 -0.002,0.11378 0.0129,0.16868 0.0318,0.12199 0.0189,-0.0467 0.02,-0.13979 0.003,-0.20688 z m 6.54915,-4.93202 c -0.0191,-0.0474 -0.0348,-0.009 -0.0348,0.0862 0,0.0948 0.0156,0.13361 0.0348,0.0862 0.0192,-0.0474 0.0192,-0.12499 0,-0.1724 z m -6.91225,-9.689 c -0.0495,-2.8727 -0.0913,-3.20166 -0.51429,-4.05562 -0.52026,-1.05022 -1.44764,-1.8536 -2.61032,-2.26127 -0.52613,-0.18447 -0.68526,-0.20862 -1.38734,-0.21054 -0.57161,-0.002 -0.90751,0.0325 -1.20296,0.1221 -1.32686,0.40229 -2.33024,1.24153 -2.8967,2.42284 -1.17507,2.45049 0.0611,5.36174 2.65148,6.24426 0.57115,0.19458 1.38872,0.24833 3.98461,0.26195 l 2.01923,0.0106 z"
           id="path10535-9-4-3"
           inkscape:connector-curvature="0" />
      </g>
    </g>
    <g
       id="g10938-0-4-2-3"
       style="opacity:1;stroke:#ececec"
       transform="matrix(4.898925,0,0,4.898925,-99.145707,-94.47186)">
      <path
         d="m 36.340723,57.176706 a 11.378545,11.378545 0 0 1 5.605809,-9.783047"
         sodipodi:open="true"
         sodipodi:end="4.1803016"
         sodipodi:start="3.1435625"
         sodipodi:ry="11.378545"
         sodipodi:rx="11.378545"
         sodipodi:cy="57.19912"
         sodipodi:cx="47.719246"
         sodipodi:type="arc"
         id="path10422-8-51-9-2-3"
         style="opacity:1;fill:none;fill-opacity:0.98823529;stroke:#ececec;stroke-width:0.30000001;stroke-linecap:round;stroke-miterlimit:4;stroke-dasharray:none;stroke-dashoffset:0" />
      <path
         d="m 47.717344,57.160796 a 11.378545,11.378545 0 0 1 10.572448,6.941536 11.378545,11.378545 0 0 1 -2.373061,12.42297 11.378545,11.378545 0 0 1 -12.386658,2.55584 11.378545,11.378545 0 0 1 -7.096554,-10.469026"
         sodipodi:open="true"
         sodipodi:end="3.1351623"
         sodipodi:start="4.7040851"
         sodipodi:ry="11.378545"
         sodipodi:rx="11.378545"
         sodipodi:cy="68.538948"
         sodipodi:cx="47.811829"
         sodipodi:type="arc"
         id="path10422-3-4-08-0-2-8"
         style="opacity:1;fill:none;fill-opacity:0.98823529;stroke:#ececec;stroke-width:0.30000001;stroke-linecap:round;stroke-miterlimit:4;stroke-dasharray:none;stroke-dashoffset:0" />
      <path
         inkscape:connector-curvature="0"
         id="path10871-5-7-0-0"
         d="m 36.340721,57.176706 0.0928,11.435408"
         style="fill:none;stroke:#ececec;stroke-width:0.30000001;stroke-linecap:butt;stroke-linejoin:miter;stroke-miterlimit:4;stroke-dasharray:none;stroke-opacity:1" />
      <path
         sodipodi:nodetypes="ccc"
         inkscape:connector-curvature="0"
         id="path10873-06-5-5-4"
         d="m 47.717344,57.160794 -4.477792,-0.02976 -0.03705,-4.634043"
         style="fill:none;stroke:#ececec;stroke-width:0.30000001;stroke-linecap:butt;stroke-linejoin:miter;stroke-miterlimit:4;stroke-dasharray:none;stroke-opacity:1" />
      <path
         d="m 41.955014,47.393825 a 11.495125,11.495125 0 0 1 1.250496,5.135442"
         sodipodi:open="true"
         sodipodi:end="6.2763073"
         sodipodi:start="5.8123538"
         sodipodi:ry="11.495125"
         sodipodi:rx="11.495125"
         sodipodi:cy="52.60833"
         sodipodi:cx="31.710657"
         sodipodi:type="arc"
         id="path10422-3-4-8-4-8-5-7"
         style="opacity:1;fill:none;fill-opacity:0.98823529;stroke:#ececec;stroke-width:0.30000001;stroke-linecap:butt;stroke-miterlimit:4;stroke-dasharray:none;stroke-dashoffset:0" />
      <path
         d="m 47.935795,64.313925 a 4.4009714,4.4009714 0 0 1 4.089191,2.684834 4.4009714,4.4009714 0 0 1 -0.917848,4.804932 4.4009714,4.4009714 0 0 1 -4.790887,0.988543 4.4009714,4.4009714 0 0 1 -2.744792,-4.04919"
         sodipodi:open="true"
         sodipodi:end="3.1351623"
         sodipodi:start="4.7040851"
         sodipodi:ry="4.4009714"
         sodipodi:rx="4.4009714"
         sodipodi:cy="68.714745"
         sodipodi:cx="47.97234"
         sodipodi:type="arc"
         id="path10422-3-4-9-62-7-2-68"
         style="opacity:1;fill:none;fill-opacity:0.98823529;stroke:#ececec;stroke-width:0.27761528;stroke-linecap:round;stroke-miterlimit:4;stroke-dasharray:none;stroke-dashoffset:0" />
      <path
         inkscape:connector-curvature="0"
         id="path10871-7-58-0-9-9"
         d="m 43.535566,64.320075 0.0359,4.422964"
         style="fill:none;stroke:#ececec;stroke-width:0.27761528;stroke-linecap:square;stroke-linejoin:miter;stroke-miterlimit:4;stroke-dasharray:none;stroke-opacity:1" />
      <path
         sodipodi:nodetypes="cc"
         inkscape:connector-curvature="0"
         id="path10871-7-7-6-4-0-0"
         d="m 43.563687,64.318663 4.37903,-0.0037"
         style="fill:none;stroke:#ececec;stroke-width:0.27761531;stroke-linecap:square;stroke-linejoin:miter;stroke-miterlimit:4;stroke-dasharray:none;stroke-opacity:1" />
    </g>
    <path
       style="opacity:1;fill:#f2f2f2;fill-opacity:1;stroke:#f2f2f2;stroke-width:1.50397003;stroke-linecap:round;stroke-miterlimit:4;stroke-dasharray:none;stroke-dashoffset:0;stroke-opacity:1"
       d="m 129.67112,295.76803 c -11.8385,-1.15405 -23.39295,-6.46208 -32.131749,-14.7615 -9.458115,-8.98246 -15.520729,-21.19269 -16.896787,-34.03081 -0.245436,-2.29138 -0.501406,-18.33159 -0.568374,-35.64477 -0.109742,-28.34348 -0.03919,-31.88301 0.682861,-35.54054 2.043339,-10.31591 6.60713,-19.38063 13.767694,-27.34574 2.392044,-2.66081 10.277755,-9.0976 11.145445,-9.0976 0.95962,0 3.79373,7.89893 5.06583,14.11903 0.33754,1.64976 0.67865,8.88597 0.84037,17.82239 l 0.27237,15.04486 15.73927,0.28119 c 16.42787,0.29346 18.10942,0.47765 24.73219,2.71415 8.59701,2.90282 15.11135,7.0476 21.7912,13.8648 3.10464,3.16853 5.76911,6.42934 7.37533,9.02621 9.72152,15.71728 10.97789,35.55146 3.29105,51.95474 -8.41788,17.96331 -25.07049,29.71931 -44.81949,31.64068 -5.00361,0.48695 -4.80237,0.48793 -10.28721,-0.0488 z m 13.38764,-32.42982 c 7.98319,-2.733 13.77623,-9.73645 14.98311,-18.11405 1.52677,-10.59765 -4.9413,-20.91328 -15.2787,-24.36735 -2.64812,-0.88484 -3.94546,-0.96192 -16.20217,-0.9624 l -13.32351,-5.8e-4 0.2567,13.54098 c 0.28855,15.23682 0.46931,16.26319 3.71558,21.12489 2.37002,3.54907 4.87126,5.69989 8.98963,7.72972 5.21996,2.57286 11.30251,2.95127 16.85955,1.04879 z"
       id="path11973-2-6"
       inkscape:connector-curvature="0" />
    <path
       style="opacity:1;fill:#00aad4;fill-opacity:1;stroke:#00aad4;stroke-width:0.39005744;stroke-linecap:round;stroke-miterlimit:4;stroke-dasharray:none;stroke-dashoffset:0;stroke-opacity:1"
       d="M -0.11373337,202.45201 V 105.46833 H 96.869914 193.85355 v 96.98368 96.98362 H 96.869914 -0.11373337 Z M 105.44212,293.02394 c 27.76009,-2.57386 52.94218,-17.85564 68.13418,-41.34737 7.16534,-11.0799 11.88136,-23.95997 13.77704,-37.62687 0.87822,-6.33154 0.78933,-18.10578 -0.1853,-24.54006 -3.12754,-20.6478 -11.93143,-37.92757 -26.641,-52.28946 -14.18063,-13.84539 -30.75973,-22.04016 -50.7148,-25.06747 -6.39563,-0.97025 -18.169336,-1.05643 -24.540041,-0.17961 -20.427824,2.81148 -38.355702,11.67724 -52.780343,26.10111 -15.113701,15.11283 -24.3345514,34.9551 -26.2457064,56.47791 -0.477703,5.37986 -0.22489,15.37012 0.517233,20.44006 2.397431,16.378 8.9491754,31.5344 19.2102764,44.43984 3.463377,4.35588 11.260857,11.9305 15.765149,15.31457 13.82048,10.3833 29.436899,16.53442 46.390786,18.27292 3.996769,0.40953 12.915676,0.41205 17.312496,0.004 z"
       id="path15873"
       inkscape:connector-curvature="0" />
  </g>
</svg>
