<svg class="write-page" color-interpolation="linearRGB" width="1660px" height="900px" xmlns="http://www.w3.org/2000/svg" xmlns:xlink="http://www.w3.org/1999/xlink">
  <g class="write-content write-v3" width="1660" height="900" xruling="0" yruling="0" marginLeft="0" papercolor="#1A1A1B" rulecolor="#9F0000FF">
    <g class="ruleline write-std-ruling write-scale-down" fill="none" stroke="#0000FF" stroke-opacity="0.624" stroke-width="1" shape-rendering="crispEdges" vector-effect="non-scaling-stroke">
      <rect class="pagerect" fill="#1A1A1B" stroke="none" x="0" y="0" width="1660" height="900" />
    </g>
    <path class="write-stroke-pen" fill="none" stroke="#FFA200" stroke-width="2" stroke-linecap="round" stroke-linejoin="round" __comx="49.284" __comy="24.058" __timestamp="0x181b5cff491" d="M41.412 18.495 l0 0.012 0.003 0.005 0.006 0.005 0.023 0.009 0.032 0.008 0.098 0.014 0.349 0.022 0.637 0.017 0.73 0.008 0.803 0.004 0.997 -0.033 1.039 -0.084 1.024 -0.135 1.015 -0.152 0.752 -0.074 0.72 -0.089 0.798 -0.103 0.859 -0.076 0.73 -0.088 0.735 -0.068 0.677 -0.057 0.622 -0.052 0.568 -0.05 0.577 -0.051 0.458 -0.045 0.404 -0.024 0.191 -0.02 0.421 -0.027 0.09 -0.005 0.149 -0.016 0.045 -0.004 0.045 -0.004 0.095 -0.011 0.053 -0.009 -0.056 -0.018 -0.022 -0.003 -0.226 -0.01 -0.054 -0.002 -0.43 -0.015" />
    <path class="write-stroke-pen" fill="none" stroke="#FFA200" stroke-width="2" stroke-linecap="round" stroke-linejoin="round" __comx="50.671" __comy="24.058" __timestamp="0x181b5cff5fc" d="M51.792 16.26 l0 0.012 0 0.022 0 0.032 0 0.067 -0.02 0.097 -0.032 0.314 -0.025 0.096 -0.056 0.416 -0.036 0.144 -0.124 0.577 -0.1 0.46 -0.062 0.521 -0.089 0.596 -0.103 0.654 -0.11 0.71 -0.138 0.707 -0.126 0.756 -0.115 0.75 -0.11 0.747 -0.103 0.683 -0.11 0.751 -0.098 0.622 -0.045 0.563 -0.075 0.58 -0.036 0.514 -0.063 0.469 -0.014 0.131 -0.035 0.603 -0.028 0.157 -0.044 0.41 -0.008 0.087 -0.011 0.139 -0.031 0.168 -0.014 0.091 -0.034 0.128 -0.021 0.09 -0.03 0.08 -0.039 0.071 -0.018 0.03 -0.017 0.025 -0.016 0.02 -0.015 0.016 -0.027 0.018 -0.024 0.004 -0.022 -0.008 -0.015 -0.021 -0.004 -0.016 0.019 -0.041 0.043 -0.043 0.21 -0.21" />
    <path class="write-stroke-pen" fill="none" stroke="#FFA200" stroke-width="2" stroke-linecap="round" stroke-linejoin="round" __comx="63.129" __comy="24.058" __timestamp="0x181b5cff997" d="M54.879 29.513 l0.004 -0.004 0.008 -0.008 0.049 -0.038 0.06 -0.062 0.079 -0.07 0.109 -0.101 0.152 -0.131 0.344 -0.215 0.121 -0.093 0.371 -0.219 0.161 -0.109 0.504 -0.25 0.229 -0.144 0.588 -0.418 0.188 -0.135 0.507 -0.286 0.322 -0.306 0.458 -0.276 0.299 -0.344 0.376 -0.265 0.234 -0.3 0.15 -0.163 0.286 -0.421 0.116 -0.154 0.198 -0.372 0.063 -0.128 0.078 -0.181 0.106 -0.407 0.02 -0.087 0.025 -0.139 0.005 -0.168 -0.016 -0.166 -0.044 -0.155 -0.059 -0.12 -0.076 -0.109 -0.086 -0.086 -0.327 -0.168 -0.072 -0.031 -0.119 -0.04 -0.172 -0.011 -0.408 0.048 -0.281 0.192 -0.116 0.079 -0.363 0.195 -0.277 0.326 -0.104 0.107 -0.44 0.473 -0.069 0.1 -0.237 0.482 -0.097 0.161 -0.203 0.496 -0.067 0.146 -0.136 0.573 -0.024 0.128 -0.056 0.531 -0.008 0.085 -0.004 0.48 0.034 0.186 0.111 0.428 0.223 0.246 0.117 0.126 0.332 0.238 0.128 0.09 0.427 0.204 0.186 0.09 0.451 0.123 0.18 0.037 0.541 0.038 0.204 -0.014 0.556 -0.094 0.246 -0.092 0.665 -0.362 0.193 -0.116 0.599 -0.447 0.201 -0.165 0.588 -0.537 0.17 -0.146 0.581 -0.542 0.155 -0.161 0.465 -0.53 0.127 -0.139 0.259 -0.415 0.305 -0.283 0.215 -0.377 0.103 -0.153 0.109 -0.175 0.108 -0.183 0.089 -0.147 0.073 -0.133 0.07 -0.137 0.067 -0.141 0.047 -0.098 0.019 -0.043 0.051 -0.089 0.03 -0.057 0.008 0.07 -0.014 0.034 -0.102 0.284 -0.047 0.103 -0.127 0.383 -0.074 0.153 -0.177 0.542 -0.057 0.142 -0.177 0.633 -0.053 0.146 -0.149 0.519 -0.029 0.128 -0.062 0.47 -0.014 0.135 -0.012 0.139 -0.024 0.43 0.002 0.101 0.033 0.158 0.048 0.108 0.066 0.091 0.289 0.176 0.065 0.033 0.158 0.045 0.452 0.001 0.195 -0.054 0.532 -0.296 0.149 -0.099 0.51 -0.393 0.145 -0.119 0.495 -0.505 0.153 -0.169 0.31 -0.481 0.159 -0.214 0.259 -0.493 0.147 -0.225 0.227 -0.449 0.102 -0.168 0.18 -0.391 0.075 -0.15 0.08 -0.183 0.092 -0.203 0.077 -0.191 0.057 -0.145 0.056 -0.148 0.045 -0.143 0.013 -0.045 0.024 -0.071 0.073 -0.054 0.002 0.002 -0.043 0.246 -0.03 0.088 -0.12 0.516 -0.108 0.363 -0.114 0.433 -0.119 0.512 -0.13 0.471 -0.135 0.586 -0.114 0.524 -0.102 0.468 -0.112 0.533 -0.051 0.403 -0.074 0.422 -0.019 0.135 -0.044 0.548 -0.006 0.088 -0.008 0.14 0.002 0.15 0.032 0.16 0.027 0.075 0.061 0.098 0.111 0.106 0.136 0.075 0.18 0.029 0.377 -0.03 0.315 -0.225 0.162 -0.117 0.437 -0.374 0.462 -0.395" />
    <path class="write-stroke-pen" fill="none" stroke="#FFA200" stroke-width="2" stroke-linecap="round" stroke-linejoin="round" __comx="86.01" __comy="24.058" __timestamp="0x181b5cffe6a" d="M80.855 22.753 l0 -0.003 0 -0.034 0 -0.054 -0.02 -0.084 -0.037 -0.099 -0.08 -0.161 -0.087 -0.139 -0.29 -0.257 -0.084 -0.077 -0.337 -0.18 -0.082 -0.043 -0.555 -0.146 -0.448 -0.066 -0.469 0.005 -0.473 0.047 -0.486 0.096 -0.595 0.321 -0.433 0.191 -0.537 0.346 -0.12 0.095 -0.326 0.482 -0.303 0.262 -0.221 0.47 -0.067 0.129 -0.126 0.48 -0.04 0.108 -0.092 0.443 -0.015 0.082 -0.004 0.417 0.029 0.148 0.086 0.2 0.461 0.557 0.358 0.235 0.417 0.208 0.444 0.187 0.517 0.188 0.466 0.163 0.53 0.174 0.56 0.32 0.114 0.05 0.401 0.166 0.171 0.091 0.301 0.296 0.119 0.107 0.146 0.135 0.215 0.341 0.05 0.082 0.058 0.121 0.048 0.127 0.028 0.156 -0.009 0.181 -0.219 0.342 -0.1 0.136 -0.513 0.331 -0.456 0.188 -0.491 0.151 -0.502 0.082 -0.463 0.087 -0.523 0.054 -0.405 0.025 -0.474 0.017 -0.097 -0.004 -0.162 -0.025 -0.151 -0.051 -0.143 -0.072 -0.127 -0.108 -0.179 -0.313 -0.033 -0.07 -0.046 -0.166 -0.003 -0.407 0.28 -0.352 0.343 -0.26 0.403 -0.239 0.491 -0.243 0.557 -0.212 0.571 -0.187 0.57 -0.145 0.573 -0.1 0.397 -0.061 0.187 -0.033 0.867 -0.071 0.448 -0.021 0.13 -0.005 0.135 -0.004 0.139 -0.003 0.142 -0.003 0.097 0.011 0.092 0.023 0.087 0.033 0.038 0.014 0.07 0.037 0.063 0.044 0.056 0.051 0.052 0.079 0.032 0.06 0.023 0.09 0.02 0.107 0 0.136 0 0.076 0 0.124 0 0.083 0.016 0.118 0.03 0.117 0.062 0.143 0.121 0.195 0.131 0.157 0.383 0.263 0.132 0.09 0.162 0.08 0.448 0.124 0.179 0.037 0.477 0.036 0.192 0 0.555 -0.049 0.185 -0.048 0.543 -0.152 0.316 -0.239 0.359 -0.208 0.28 -0.294 0.182 -0.188 0.296 -0.42 0.15 -0.177 0.256 -0.426 0.086 -0.14 0.172 -0.442 0.04 -0.127 0.077 -0.408 0.021 -0.136 0 -0.434 -0.03 -0.153 -0.064 -0.178 -0.266 -0.345 -0.094 -0.126 -0.367 -0.267 -0.114 -0.072 -0.544 -0.168 -0.122 -0.03 -0.526 -0.022 -0.177 0.029 -0.666 0.292 -0.134 0.066 -0.636 0.388 -0.24 0.285 -0.12 0.136 -0.25 0.41 -0.109 0.157 -0.183 0.542 -0.033 0.122 -0.08 0.581 -0.014 0.129 -0.008 0.413 0.028 0.151 0.265 0.517 0.071 0.088 0.134 0.131 0.396 0.254 0.112 0.055 0.494 0.127 0.174 0.033 0.466 0.051 0.141 0.003 0.56 -0.066 0.181 -0.052 0.62 -0.323 0.386 -0.177 0.329 -0.285 0.518 -0.279 0.332 -0.339 0.502 -0.321 0.493 -0.453 0.342 -0.222 0.502 -0.462 0.187 -0.177 0.568 -0.553 0.132 -0.129 0.479 -0.448 0.088 -0.101 0.164 -0.166 0.273 -0.413 0.116 -0.157 0.126 -0.158 0.107 -0.166 0.075 -0.13 0.052 -0.091 0.021 -0.04 0.02 -0.041 0.042 -0.098 0.03 0.026 -0.012 0.037 -0.066 0.267 -0.015 0.086 -0.083 0.441 -0.016 0.113 -0.04 0.557 -0.017 0.39 -0.01 0.403 -0.048 0.422 -0.029 0.413 -0.008 0.137 -0.02 0.683 -0.003 0.134 -0.055 0.552 -0.007 0.086 -0.023 0.42 -0.004 0.089 -0.005 0.142 -0.003 0.093 -0.003 0.095 -0.025 0.114 -0.017 0.053 -0.018 0.012 -0.026 -0.142 -0.029 -0.076 -0.05 -0.329 -0.027 -0.337 0.004 -0.429 0.047 -0.456 0.057 -0.216 0.2 -0.666 0.335 -0.522 0.22 -0.382 0.45 -0.517 0.156 -0.158 0.53 -0.593 0.34 -0.273 0.31 -0.384 0.374 -0.277 0.356 -0.184 0.124 -0.059 0.448 -0.141 0.129 -0.032 0.41 -0.063 0.125 0.009 0.354 0.265 0.11 0.08 0.22 0.294 0.07 0.088 0.075 0.11 0.174 0.42 0.04 0.122 0.078 0.398 -0.007 0.182 -0.041 0.177 -0.048 0.15 -0.202 0.633" />
    <path class="write-stroke-pen" fill="none" stroke="#FFA200" stroke-width="2" stroke-linecap="round" stroke-linejoin="round" __comx="123.72" __comy="24.058" __timestamp="0x181b5d00588" d="M119.552 21.157 l0.007 -0.013 0.035 -0.071 0.119 -0.306 0.051 -0.109 0.074 -0.156 0.065 -0.157 0.079 -0.182 0.119 -0.389 0.054 -0.184 0.041 -0.185 0.086 -0.486 0.014 -0.088 0.023 -0.193 0.032 -0.433 -0.007 -0.095 -0.046 -0.185 -0.061 -0.145 -0.263 -0.277 -0.065 -0.061 -0.387 -0.179 -0.116 -0.042 -0.503 -0.096 -0.405 -0.005 -0.472 0.041 -0.427 0.086 -0.62 0.363 -0.477 0.396 -0.496 0.455 -0.505 0.514 -0.602 0.607 -0.499 0.561 -0.66 0.725 -0.614 0.741 -0.643 0.758 -0.622 0.844 -0.48 0.87 -0.455 0.953 -0.218 0.732 -0.434 0.794 -0.191 0.617 -0.122 0.478 -0.123 0.563 -0.054 0.446 -0.032 0.459 0.003 0.47 0.036 0.183 0.17 0.612 0.272 0.303 0.119 0.128 0.437 0.281 0.168 0.101 0.737 0.25 0.549 0.092 0.567 0.048 0.64 0 0.59 -0.078 0.608 -0.269 0.493 -0.183 0.609 -0.38 0.421 -0.203 0.638 -0.5 0.519 -0.284 0.568 -0.494 0.402 -0.26 0.476 -0.411 0.137 -0.123 0.462 -0.464 0.106 -0.117 0.24 -0.363 0.117 -0.158 0.079 -0.122 0.189 -0.393 0.028 -0.054 0.047 -0.09 0.019 -0.04 0.018 -0.041 0.017 -0.041 0.019 -0.076 0.017 -0.055 0.005 -0.052 -0.015 -0.024 -0.066 0.124 -0.041 0.069 -0.107 0.275 -0.028 0.097 -0.12 0.525 -0.021 0.117 -0.055 0.631 -0.009 0.125 -0.02 0.525 0.005 0.138 0.029 0.417 0.04 0.152 0.129 0.422 0.095 0.174 0.293 0.291 0.153 0.128 0.463 0.189 0.377 0.089 0.395 0.055 0.467 0.038 0.474 0 0.493 -0.068 0.487 -0.107 0.547 -0.316 0.432 -0.199 0.488 -0.337 0.458 -0.38 0.285 -0.339 0.516 -0.529 0.205 -0.332 0.125 -0.19 0.224 -0.442 0.076 -0.173 0.114 -0.457 0.026 -0.132 -0.011 -0.557 -0.044 -0.222 -0.35 -0.568 -0.104 -0.147 -0.465 -0.331 -0.404 -0.19 -0.548 -0.151 -0.503 -0.074 -0.524 0.007 -0.597 0.082 -0.654 0.349 -0.6 0.383 -0.414 0.202 -0.585 0.485 -0.345 0.21 -0.336 0.443 -0.406 0.286 -0.282 0.445 -0.102 0.141 -0.225 0.522 -0.134 0.379 -0.035 0.124 -0.086 0.585 -0.01 0.083 0.017 0.182 0.087 0.422 0.21 0.243 0.097 0.098 0.426 0.234 0.354 0.107 0.381 0.067 0.458 0.046 0.528 0.029 0.538 -0.032 0.544 -0.091 0.642 -0.321 0.433 -0.182 0.537 -0.34 0.374 -0.193 0.485 -0.351 0.371 -0.21 0.287 -0.295 0.393 -0.262 0.146 -0.13 0.255 -0.339 0.122 -0.15 0.13 -0.152 0.087 -0.118 0.038 -0.05 0.061 -0.085 0.025 -0.037 0.023 -0.038 0.022 -0.039 0.049 -0.093 0.019 -0.045 -0.01 0.091 -0.023 0.058 -0.041 0.298 -0.031 0.112 -0.115 0.511 -0.02 0.115 -0.05 0.562 -0.009 0.126 -0.02 0.526 0.003 0.094 0.041 0.183 0.12 0.424 0.229 0.243 0.119 0.125 0.377 0.229 0.131 0.081 0.482 0.153 0.171 0.04 0.65 0.076 0.466 -0.013 0.424 -0.07 0.496 -0.141 0.586 -0.347 0.442 -0.231 0.57 -0.452 0.483 -0.406 0.499 -0.46 0.481 -0.55 0.494 -0.586 0.476 -0.676 0.461 -0.741 0.29 -0.698 0.513 -0.975 0.234 -0.738 0.37 -0.824 0.223 -0.758 0.178 -0.72 0.123 -0.605 0.115 -0.622 0.078 -0.564 0.062 -0.513 0.034 -0.52 0.009 -0.181 0.015 -0.54 0.003 -0.135 0.003 -0.139 -0.018 -0.168 -0.04 -0.13 -0.037 -0.085 -0.069 -0.098 -0.083 -0.082 -0.33 -0.122 -0.121 -0.007 -0.288 0.193 -0.37 0.179 -0.29 0.397 -0.417 0.478 -0.211 0.338 -0.498 0.643 -0.252 0.511 -0.45 0.743 -0.236 0.756 -0.413 0.851 -0.213 0.875 -0.186 0.962 -0.158 0.833 -0.159 0.844 -0.111 0.656 -0.051 0.67 -0.022 0.619 -0.011 0.629 0.02 0.573 0.058 0.522 0.098 0.477 0.064 0.176 0.207 0.541 0.253 0.276 0.108 0.105 0.155 0.127 0.353 0.159 0.121 0.043 0.127 0.036 0.407 0.07 0.087 0.013 0.164 -0.001 0.442 -0.064 0.15 -0.049 0.175 -0.081 0.198 -0.127 0.292 -0.315 0.085 -0.09 0.11 -0.126 0.465 -0.533" />
    <path class="write-stroke-pen" fill="none" stroke="#FFA200" stroke-width="2" stroke-linecap="round" stroke-linejoin="round" __comx="156.432" __comy="24.058" __timestamp="0x181b5d00b82" d="M143.558 26.266 l0 -0.003 0 -0.017 0 -0.048 0 -0.04 0 -0.021 0 -0.082 -0.02 -0.112 -0.014 -0.103 -0.012 -0.112 -0.032 -0.141 -0.008 -0.037 -0.029 -0.082 -0.035 -0.065 -0.043 -0.058 -0.096 -0.068 -0.098 -0.024 -0.127 0.012 -0.134 0.045 -0.14 0.07 -0.363 0.161 -0.277 0.304 -0.312 0.203 -0.233 0.289 -0.316 0.246 -0.247 0.358 -0.304 0.26 -0.258 0.419 -0.105 0.148 -0.258 0.541 -0.095 0.16 -0.213 0.555 -0.037 0.122 -0.079 0.457 -0.013 0.085 -0.008 0.142 0.027 0.189 0.205 0.326 0.091 0.116 0.355 0.201 0.151 0.061 0.49 0.101 0.392 0.028 0.465 -0.003 0.429 -0.065 0.486 -0.111 0.555 -0.169 0.535 -0.34 0.373 -0.194 0.485 -0.351 0.384 -0.239 0.337 -0.362 0.552 -0.321 0.499 -0.441 0.343 -0.218 0.293 -0.348 0.323 -0.247 0.231 -0.309 0.117 -0.145 0.12 -0.167 0.097 -0.137 0.175 -0.379 0.042 -0.09 0.048 -0.13 0.041 -0.134 0.023 -0.066 0.015 -0.07 0.01 -0.022 -0.02 0.12 -0.037 0.057 -0.05 0.077 -0.159 0.344 -0.082 0.137 -0.421 0.555 -0.112 0.137 -0.453 0.588 -0.091 0.122 -0.237 0.532 -0.041 0.118 -0.088 0.449 -0.014 0.083 -0.018 0.134 0.026 0.442 0.217 0.328 0.088 0.107 0.307 0.216 0.125 0.086 0.414 0.15 0.169 0.045 0.52 0.076 0.186 0.009 0.555 -0.058 0.355 -0.202 0.536 -0.221 0.501 -0.36 0.198 -0.159 0.565 -0.483 0.16 -0.156 0.499 -0.493 0.155 -0.167 0.293 -0.425 0.24 -0.396 0.112 -0.162 0.219 -0.393 0.084 -0.146 0.155 -0.394 0.052 -0.137 0.096 -0.412 0.018 -0.088 0.016 -0.09 0.007 -0.044 0.007 -0.045 0.012 -0.07 -0.003 -0.052 -0.017 0.004 -0.077 0.171 -0.054 0.073 -0.129 0.282 -0.145 0.347 -0.256 0.273 -0.198 0.535 -0.139 0.374 -0.082 0.162 -0.203 0.618 -0.057 0.144 -0.169 0.575 -0.029 0.126 -0.068 0.527 -0.014 0.132 -0.011 0.137 0.018 0.436 0.031 0.113 0.231 0.294 0.098 0.106 0.323 0.214 0.11 0.055 0.43 0.118 0.391 0.064 0.2 0 0.674 -0.083 0.615 -0.266 0.495 -0.182 0.644 -0.353 0.578 -0.419 0.586 -0.426 0.586 -0.426 0.671 -0.529 0.584 -0.47 0.669 -0.582 0.618 -0.617 0.598 -0.63 0.532 -0.71 0.499 -0.732 0.445 -0.726 0.262 -0.746 0.411 -0.785 0.181 -0.568 0.172 -0.611 0.157 -0.565 0.122 -0.507 0.107 -0.459 0.083 -0.461 0.044 -0.406 0.015 -0.186 0.024 -0.485 0.004 -0.089 0.005 -0.141 -0.03 -0.197 -0.04 -0.163 -0.042 -0.122 -0.067 -0.124 -0.079 -0.098 -0.092 -0.082 -0.347 -0.122 -0.254 0.088 -0.329 0.119 -0.275 0.322 -0.413 0.415 -0.24 0.377 -0.451 0.492 -0.274 0.5 -0.585 0.734 -0.439 0.61 -0.462 0.736 -0.257 0.689 -0.506 0.822 -0.233 0.794 -0.175 0.71 -0.331 0.728 -0.122 0.638 -0.13 0.557 -0.144 0.571 -0.116 0.51 -0.112 0.52 -0.109 0.525 -0.055 0.46 -0.029 0.407 -0.008 0.135 -0.015 0.423 -0.003 0.09 0.016 0.168 0.043 0.156 0.101 0.209 0.118 0.166 0.314 0.253 0.107 0.066 0.425 0.14 0.389 0.075 0.18 0.026 0.669 0.023 0.482 -0.059 0.481 -0.102 0.592 -0.324 0.378 -0.178 0.537 -0.355 0.374 -0.199 0.528 -0.443 0.367 -0.248 0.506 -0.471 0.426 -0.411 0.188 -0.183 0.587 -0.612 0.148 -0.166 0.454 -0.538 0.118 -0.16 0.27 -0.546 0.113 -0.2 0.253 -0.632 0.079 -0.186 0.131 -0.453 0.041 -0.136 0.054 -0.19 0.041 -0.189 0.025 -0.141 0.015 -0.093 0.007 -0.046 0 -0.099 -0.043 -0.029 -0.032 0.023 -0.144 0.334 -0.049 0.097 -0.2 0.6 -0.14 0.42 -0.137 0.39 -0.158 0.461 -0.122 0.401 -0.136 0.53 -0.114 0.47 -0.051 0.155 -0.108 0.656 -0.017 0.129 -0.036 0.472 -0.008 0.135 0.004 0.487 0.017 0.123 0.056 0.185 0.079 0.179 0.114 0.171 0.302 0.213 0.107 0.057 0.433 0.08 0.168 -0.011 0.402 -0.078 0.365 -0.263 0.457 -0.227 0.532 -0.47 0.418 -0.393 0.355 -0.257 0.381 -0.53 0.434 -0.505 0.217 -0.347 0.24 -0.445 0.228 -0.46 0.221 -0.468 0.189 -0.46 0.15 -0.458 0.132 -0.467 0.04 -0.137 0.094 -0.414 0.009 -0.042 0.016 -0.089 0.007 -0.044 0.007 -0.044 0.004 -0.105 -0.034 0.003 -0.145 0.336 -0.135 0.388 -0.137 0.401 -0.335 0.618 -0.112 0.404 -0.147 0.51 -0.317 0.6 -0.134 0.533 -0.15 0.572 -0.119 0.51 -0.105 0.46 -0.106 0.468 -0.024 0.131 -0.059 0.602 -0.007 0.085 -0.002 0.419 0.03 0.152 0.055 0.143 0.253 0.274 0.091 0.071 0.338 0.138 0.162 0.048 0.451 0.053 0.421 -0.033 0.243 -0.075 0.481 -0.177 0.338 -0.266 0.414 -0.233 0.553 -0.311" />
    <path class="write-stroke-pen" fill="none" stroke="#FFA200" stroke-width="2" stroke-linecap="round" stroke-linejoin="round" __comx="179.071" __comy="24.058" __timestamp="0x181b5d00dfc" d="M183.001 21.529 l0 -0.003 0 -0.006 0 -0.042 -0.02 -0.072 -0.005 -0.02 -0.023 -0.048 -0.033 -0.049 -0.053 -0.069 -0.049 -0.054 -0.082 -0.062 -0.095 -0.052 -0.105 -0.043 -0.114 -0.036 -0.448 -0.034 -0.149 0.011 -0.525 0.069 -0.176 0.054 -0.173 0.077 -0.409 0.171 -0.307 0.31 -0.112 0.103 -0.457 0.464 -0.084 0.085 -0.267 0.406 -0.114 0.155 -0.258 0.496 -0.089 0.132 -0.185 0.379 -0.045 0.067 -0.058 0.113 -0.049 0.121 -0.075 0.397 0.007 0.145 0.042 0.171 0.22 0.273 0.113 0.132 0.376 0.267 0.166 0.107 0.608 0.237 0.398 0.153 0.456 0.142 0.215 0.091 0.417 0.168 0.176 0.092 0.173 0.107 0.209 0.137 0.21 0.143 0.171 0.127 0.169 0.135 0.11 0.108 0.1 0.117 0.205 0.376 0.038 0.081 0.049 0.13 0.041 0.135 0.034 0.139 0.014 0.168 0.006 0.091 -0.021 0.159 -0.037 0.159 -0.04 0.12 -0.062 0.107 -0.092 0.126 -0.306 0.201 -0.068 0.037 -0.48 0.132 -0.394 0.104 -0.397 0.063 -0.468 0.043 -0.134 0.01 -0.611 0.025 -0.412 0.01 -0.417 0.006 -0.42 0.004 -0.422 0.002 -0.426 -0.019 -0.146 -0.014 -0.692 -0.09 -0.157 -0.037 -0.54 -0.118 -0.18 -0.067 -0.477 -0.169 -0.071 -0.037 -0.161 -0.101 -0.103 -0.071 -0.104 -0.076 -0.093 -0.094 -0.078 -0.105 -0.065 -0.114 -0.055 -0.121 -0.049 -0.181 -0.004 -0.181 0.046 -0.172 0.152 -0.572" />
    <path class="write-stroke-pen" fill="none" stroke="#FF0000" stroke-width="2" stroke-linecap="round" stroke-linejoin="round" __comx="125.21" __comy="86.06" __timestamp="0x181b5d09505" d="M125.432 77.643 l0.004 -0.004 0.005 -0.015 0.006 -0.043 -0.012 -0.069 -0.018 -0.042 -0.051 -0.075 -0.061 -0.062 -0.074 -0.059 -0.28 -0.127 -0.068 -0.032 -0.102 -0.036 -0.392 -0.097 -0.072 -0.015 -0.359 -0.046 -0.077 -0.009 -0.372 -0.026 -0.123 -0.007 -0.381 -0.013 -0.148 0.014 -0.495 0.069 -0.142 0.034 -0.438 0.122 -0.288 0.213 -0.411 0.19 -0.426 0.295 -0.113 0.078 -0.612 0.441 -0.127 0.1 -0.562 0.48 -0.308 0.191 -0.485 0.491 -0.359 0.361 -0.368 0.369 -0.428 0.429 -0.426 0.426 -0.425 0.425 -0.401 0.451 -0.404 0.506 -0.216 0.405 -0.423 0.58 -0.217 0.456 -0.169 0.435 -0.353 0.584 -0.137 0.512 -0.134 0.497 -0.113 0.5 -0.104 0.509 -0.105 0.568 -0.054 0.618 -0.026 0.672 -0.012 0.664 -0.005 0.549 0.018 0.396 0.071 0.422 0.125 0.435 0.296 0.472 0.322 0.406 0.283 0.225 0.479 0.382 0.405 0.196 0.487 0.16 0.556 0.136 0.555 0.066 0.505 0.031 0.624 0.018 0.561 0.008 0.677 0.004 0.676 -0.078 0.674 -0.142 0.736 -0.367 0.712 -0.37 0.67 -0.399 0.713 -0.427 0.721 -0.463 0.65 -0.418 0.709 -0.583 0.572 -0.534 0.511 -0.497 0.488 -0.539 0.409 -0.453 0.363 -0.406 0.211 -0.349 0.386 -0.513 0.182 -0.317 0.191 -0.353 0.106 -0.178 0.234 -0.465 0.103 -0.182 0.153 -0.349 0.065 -0.134 0.069 -0.163 0.094 -0.364 0.016 -0.052 0.03 -0.12 0.025 -0.123 0.021 -0.126 0.012 -0.083 0.006 -0.041 0.005 -0.041 -0.001 -0.089 -0.011 -0.071 -0.02 -0.063 -0.039 -0.063 -0.06 -0.039 -0.066 -0.005 -0.166 0.141 -0.076 0.059 -0.197 0.289 -0.09 0.116 -0.236 0.504 -0.143 0.335 -0.154 0.401 -0.149 0.41 -0.134 0.366 -0.321 0.594 -0.108 0.373 -0.126 0.41 -0.119 0.46 -0.1 0.411 -0.062 0.463 -0.072 0.42 -0.041 0.414 -0.009 0.119 -0.02 0.427 0.003 0.128 0.067 0.449 0.044 0.133 0.223 0.278 0.19 0.317 0.251 0.182 0.107 0.076 0.41 0.143 0.106 0.029 0.508 0.071 0.351 0.029 0.363 0.001 0.374 -0.036 0.201 -0.051 0.609 -0.289 0.345 -0.149 0.483 -0.307 0.392 -0.214 0.445 -0.353 0.468 -0.445 0.428 -0.418 0.441 -0.462 0.432 -0.467 0.397 -0.388 0.241 -0.389 0.35 -0.492 0.221 -0.467 0.159 -0.39 0.177 -0.416 0.157 -0.408 0.127 -0.406 0.092 -0.408 0.067 -0.361 0.046 -0.419 0.025 -0.367 0.017 -0.425 -0.027 -0.379 -0.057 -0.431 -0.087 -0.385 -0.07 -0.198 -0.295 -0.509 -0.073 -0.121 -0.099 -0.145 -0.377 -0.299 -0.315 -0.172 -0.333 -0.122 -0.402 -0.102 -0.409 -0.06 -0.37 0.003 -0.535 0.226 -0.387 0.147 -0.57 0.49 -0.403 0.353 -0.446 0.445 -0.449 0.502 -0.412 0.543 -0.22 0.452 -0.383 0.608 -0.186 0.508 -0.156 0.49 -0.132 0.551 -0.044 0.667 -0.034 0.519" />
    <path class="write-stroke-pen" fill="none" stroke="#FF0000" stroke-width="2" stroke-linecap="round" stroke-linejoin="round" __comx="143.782" __comy="86.06" __timestamp="0x181b5d09851" d="M145.766 79.526 l0 0.023 -0.018 0.05 -0.071 0.265 -0.053 0.113 -0.136 0.441 -0.1 0.376 -0.129 0.455 -0.152 0.57 -0.154 0.622 -0.154 0.672 -0.159 0.777 -0.309 0.805 -0.165 0.782 -0.151 0.797 -0.309 0.838 -0.162 0.827 -0.144 0.788 -0.343 0.845 -0.152 0.653 -0.141 0.634 -0.128 0.54 -0.12 0.448 -0.121 0.407 -0.049 0.131 -0.136 0.463 -0.018 0.073 -0.046 0.139 -0.032 0.118 -0.039 0.108 -0.035 0.066 -0.016 0.028 -0.042 0.051 -0.035 0.02 -0.069 -0.103 -0.019 -0.051 -0.043 -0.326 -0.02 -0.294 0.005 -0.327 0.064 -0.412 0.104 -0.469 0.296 -0.69 0.203 -0.474" />
    <path class="write-stroke-pen" fill="none" stroke="#FF0000" stroke-width="2" stroke-linecap="round" stroke-linejoin="round" __comx="150.614" __comy="86.06" __timestamp="0x181b5d09a6c" d="M146.096 80.514 l0.003 0 0.005 -0.01 0.006 -0.036 0.014 -0.056 0.014 -0.045 0.012 -0.03 0.015 -0.031 0.032 -0.05 0.016 -0.02 0.018 -0.019 0.043 -0.035 0.022 -0.016 0.051 -0.021 0.05 -0.007 0.069 0.016 0.065 0.037 0.163 0.291 0.042 0.085 0.122 0.447 0.031 0.107 0.094 0.497 0.062 0.399 0.035 0.135 0.149 0.588 0.09 0.356 0.063 0.157 0.167 0.47 0.098 0.177 0.209 0.414 0.247 0.239 0.094 0.1 0.297 0.199 0.1 0.052 0.335 0.1 0.113 0.027 0.417 0.038 0.383 -0.034 0.197 -0.049 0.573 -0.311 0.336 -0.157 0.321 -0.371 0.47 -0.421 0.386 -0.389 0.23 -0.309 0.482 -0.493 0.245 -0.352 0.414 -0.437 0.228 -0.313 0.289 -0.262 0.256 -0.39 0.098 -0.133 0.192 -0.334 0.06 -0.093 0.081 -0.125 0.083 -0.128 0.068 -0.116 0.047 -0.081 0.03 -0.05 0.02 -0.036 0.019 -0.036 0.034 -0.056 0.031 -0.039 0.092 0.023 0.011 0.034 -0.024 0.363 -0.045 0.278 -0.075 0.413 -0.1 0.601 -0.123 0.612 -0.151 0.781 -0.15 0.82 -0.309 0.847 -0.167 0.887 -0.15 0.895 -0.322 0.982 -0.157 0.976 -0.143 0.931 -0.138 0.882 -0.14 0.89 -0.123 0.67 -0.096 0.577 -0.09 0.541 -0.035 0.387 -0.008 0.113 -0.019 0.469 -0.003 0.075 -0.002 0.077 -0.002 0.079 0.002 0.047 0.016 0.076 0.086 -0.063 0.056 -0.05 0.166 -0.339 0.28 -0.395 0.153 -0.338 0.173 -0.482 0.173 -0.458 0.315 -0.57 0.257 -0.465" />
    <path class="write-stroke-pen" fill="none" stroke="#FF0000" stroke-width="2" stroke-linecap="round" stroke-linejoin="round" __comx="161.165" __comy="86.06" __timestamp="0x181b5d09be7" d="M162.805 78.961 l-0.01 0 -0.036 0 -0.031 0 -0.038 0 -0.062 0.014 -0.055 0.036 -0.046 0.053 -0.064 0.079 -0.128 0.407 -0.023 0.095 -0.063 0.591 -0.067 0.444 -0.09 0.565 -0.048 0.673 -0.075 0.669 -0.122 0.782 -0.108 0.817 -0.134 0.867 -0.143 0.911 -0.146 0.957 -0.316 0.977 -0.147 0.862 -0.144 0.887 -0.333 0.828 -0.155 0.703 -0.113 0.678 -0.12 0.59 -0.111 0.443 -0.086 0.346 -0.044 0.133 -0.108 0.361 -0.019 0.075 -0.048 0.141 -0.022 0.077 -0.01 0.032 -0.014 0.075 0.032 -0.023 0.048 -0.057 0.234 -0.088 0.143 -0.19 0.236 -0.312" />
    <path class="write-stroke-pen" fill="none" stroke="#FF0000" stroke-width="2" stroke-linecap="round" stroke-linejoin="round" __comx="169.949" __comy="86.06" __timestamp="0x181b5d09efa" d="M171.655 80.326 l-0.01 0 -0.02 0 -0.066 0.031 -0.083 0.055 -0.185 0.265 -0.086 0.109 -0.23 0.492 -0.152 0.378 -0.169 0.5 -0.173 0.617 -0.319 0.721 -0.123 0.737 -0.296 0.797 -0.161 0.779 -0.154 0.853 -0.141 0.793 -0.313 0.89 -0.151 0.766 -0.111 0.732 -0.13 0.749 -0.09 0.527 -0.092 0.546 -0.082 0.448 -0.041 0.398 -0.01 0.115 -0.019 0.365 -0.003 0.078 -0.003 0.08 0.001 0.036 0.008 0.063 0.01 0.049 0.037 -0.046 0.018 -0.037 0.052 -0.21 0.022 -0.083 0.065 -0.342 0.092 -0.341 0.054 -0.164 0.133 -0.513 0.142 -0.551" />
    <path class="write-stroke-pen" fill="none" stroke="#FF0000" stroke-width="2" stroke-linecap="round" stroke-linejoin="round" __comx="175.255" __comy="86.06" __timestamp="0x181b5d0a076" d="M171.56 80.138 l0 -0.01 0.006 -0.022 0.011 -0.031 0.01 -0.021 0.026 -0.036 0.052 -0.041 0.041 -0.024 0.075 -0.031 0.086 -0.026 0.133 -0.028 0.16 -0.003 0.358 0.052 0.272 0.18 0.14 0.086 0.446 0.4 0.119 0.11 0.471 0.592 0.214 0.403 0.333 0.5 0.226 0.522 0.36 0.57 0.215 0.517 0.378 0.663 0.228 0.523 0.458 0.687 0.238 0.506 0.362 0.553 0.216 0.511 0.183 0.445 0.321 0.562 0.149 0.369 0.149 0.401 0.075 0.15 0.161 0.357 0.052 0.098 0.041 0.078 0.058 0.119 0.031 0.075 0.028 0.077 0.014 0.069 0.002 0.061 0.001 0.025 -0.009 0.045 -0.007 0.025 -0.01 0.01 -0.008 -0.014 -0.005 -0.019 -0.008 -0.071 -0.012 -0.284 0.006 -0.128 0.076 -0.43 0.191 -0.285 0.275 -0.411" />
    <path class="write-stroke-pen" fill="none" stroke="#FF0000" stroke-width="2" stroke-linecap="round" stroke-linejoin="round" __comx="181.492" __comy="86.06" __timestamp="0x181b5d0a1e4" d="M183.705 77.314 l-0.01 0 -0.02 0 -0.039 0.014 -0.078 0.049 -0.165 0.217 -0.053 0.065 -0.074 0.096 -0.222 0.451 -0.126 0.326 -0.146 0.405 -0.165 0.518 -0.162 0.572 -0.159 0.623 -0.156 0.673 -0.322 0.822 -0.164 0.731 -0.161 0.862 -0.344 0.845 -0.169 0.819 -0.327 0.931 -0.152 0.814 -0.15 0.896 -0.344 0.884 -0.15 0.7 -0.116 0.733 -0.122 0.639 -0.095 0.536 -0.084 0.444 -0.082 0.403 -0.013 0.073 -0.042 0.413 -0.007 0.076 -0.006 0.078 0 0.036 0.003 0.034 0.007 0.041 0.027 0.057 0.047 0.034 0.087 -0.012 0.156 -0.162 0.073 -0.065 0.114 -0.119 0.121 -0.136 0.212 -0.352 0.094 -0.135 0.187 -0.337 0.094 -0.145 0.105 -0.144 0.369 -0.509" />
    <path class="write-stroke-pen" fill="none" stroke="#FF0000" stroke-width="2" stroke-linecap="round" stroke-linejoin="round" __comx="190.484" __comy="86.06" __timestamp="0x181b5d0a459" d="M194.625 77.831 l0 -0.01 -0.031 -0.05 -0.199 -0.149 -0.073 -0.068 -0.259 -0.127 -0.058 -0.023 -0.364 -0.076 -0.127 -0.003 -0.515 0.063 -0.485 0.284 -0.319 0.156 -0.476 0.416 -0.444 0.443 -0.459 0.432 -0.471 0.541 -0.497 0.615 -0.442 0.6 -0.509 0.767 -0.483 0.758 -0.448 0.794 -0.395 0.788 -0.207 0.704 -0.421 0.903 -0.197 0.7 -0.168 0.788 -0.151 0.796 -0.11 0.738 -0.041 0.687 -0.017 0.698 -0.006 0.536 0.066 0.508 0.128 0.522 0.281 0.459 0.117 0.149 0.474 0.448 0.333 0.15 0.428 0.14 0.441 0.075 0.509 0.045 0.46 0.001 0.541 -0.093 0.62 -0.329 0.484 -0.324 0.584 -0.417 0.527 -0.407 0.478 -0.402 0.392 -0.384 0.417 -0.49 0.206 -0.352 0.218 -0.442 0.166 -0.395 0.143 -0.358 0.142 -0.365 0.057 -0.161 0.114 -0.472 0.023 -0.118 0.044 -0.37 0.012 -0.122 0.01 -0.125 0.006 -0.083 0.003 -0.04 0.002 -0.041 0.002 -0.041 0.004 -0.065 0.006 -0.061 0.013 0.068 0.003 0.037 0.006 0.337 0.003 0.326 0.002 0.417 -0.044 0.501 -0.072 0.564 -0.079 0.509 -0.096 0.625 -0.09 0.562 -0.097 0.619 -0.091 0.56 -0.111 0.515 -0.126 0.516 -0.102 0.456 -0.091 0.41 -0.1 0.469 -0.083 0.364 -0.06 0.16 -0.139 0.467 -0.019 0.074 -0.024 0.118 -0.02 0.122 -0.012 0.081 -0.021 0.072 -0.019 0.053 -0.024 0.046 -0.017 0.011 -0.003 -0.032 0.035 -0.226 0.027 -0.087 0.061 -0.281 0.032 -0.14 0.095 -0.443 0.305 -0.214 0.064 -0.063 0.311 -0.309" />
    <path class="write-stroke-pen" fill="none" stroke="#FF0000" stroke-width="2" stroke-linecap="round" stroke-linejoin="round" __comx="195.354" __comy="86.06" __timestamp="0x181b5d0a542" d="M191.989 86.633 l0 -0.003 0.012 -0.011 0.043 -0.033 0.085 -0.054 0.254 -0.106 0.105 -0.05 0.358 -0.107 0.161 -0.057 0.503 -0.113 0.402 -0.07 0.47 -0.088 0.417 -0.084 0.474 -0.095 0.165 -0.035 0.478 -0.078 0.181 -0.044 0.483 -0.109 0.161 -0.06 0.415 -0.129 0.122 -0.038 0.125 -0.04 0.144 -0.055 0.6 -0.071 0.574 -0.068" />
    <path class="write-stroke-pen" fill="none" stroke="#FF0000" stroke-width="2" stroke-linecap="round" stroke-linejoin="round" __comx="219.128" __comy="86.06" __timestamp="0x181b5d0a8d8" d="M223.338 76.89 l-0.024 -0.008 -0.231 -0.077 -0.271 -0.097 -0.106 -0.046 -0.473 -0.165 -0.108 -0.037 -0.446 -0.102 -0.349 -0.048 -0.117 -0.013 -0.592 -0.034 -0.116 -0.005 -0.547 0.056 -0.158 0.044 -0.419 0.127 -0.125 0.059 -0.148 0.087 -0.355 0.177 -0.088 0.067 -0.236 0.285 -0.07 0.081 -0.092 0.113 -0.16 0.371 -0.025 0.069 -0.084 0.403 -0.019 0.116 -0.025 0.535 0.013 0.139 0.106 0.652 0.106 0.467 0.13 0.522 0.293 0.635 0.16 0.532 0.16 0.609 0.157 0.666 0.184 0.725 0.163 0.763 0.18 0.763 0.185 0.757 0.18 0.699 0.178 0.649 0.155 0.648 0.134 0.545 0.138 0.555 0.132 0.507 0.076 0.394 0.059 0.354 0.016 0.117 -0.006 0.486 -0.028 0.131 -0.276 0.473 -0.066 0.074 -0.421 0.257 -0.314 0.139 -0.338 0.122 -0.345 0.073 -0.357 0.046 -0.366 0.011 -0.387 -0.049 -0.29 -0.178 -0.522 -0.214 -0.438 -0.317 -0.39 -0.332 -0.141 -0.138 -0.435 -0.507 -0.172 -0.304 -0.165 -0.341 -0.156 -0.355 -0.097 -0.187 -0.126 -0.452 -0.025 -0.114 -0.054 -0.417 -0.013 -0.12 -0.011 -0.123 0.008 -0.149 0.038 -0.17 0.053 -0.133 0.089 -0.131 0.263 -0.179 0.437 -0.298" />
    <path class="write-stroke-pen" fill="none" stroke="#FF0000" stroke-width="2" stroke-linecap="round" stroke-linejoin="round" __comx="229.791" __comy="86.06" __timestamp="0x181b5d0aaaf" d="M225.55 86.162 l-0.01 0 -0.043 0.018 -0.053 0.042 -0.122 0.212 -0.044 0.067 -0.142 0.331 -0.056 0.115 -0.159 0.484 -0.051 0.126 -0.158 0.562 -0.057 0.343 -0.035 0.356 -0.022 0.364 -0.006 0.121 -0.014 0.487 0.015 0.143 0.087 0.441 0.078 0.186 0.33 0.467 0.088 0.105 0.436 0.285 0.164 0.112 0.481 0.203 0.343 0.12 0.454 0.086 0.573 0.054 0.513 0.025 0.577 -0.034 0.577 -0.09 0.631 -0.263 0.477 -0.14 0.568 -0.29 0.438 -0.2 0.546 -0.393 0.487 -0.397 0.42 -0.358 0.496 -0.462 0.418 -0.481 0.236 -0.445 0.38 -0.557 0.211 -0.461 0.166 -0.438 0.116 -0.494 0.078 -0.451 0.043 -0.458 -0.017 -0.417 -0.071 -0.429 -0.299 -0.503 -0.35 -0.418 -0.387 -0.397 -0.506 -0.458 -0.45 -0.268 -0.567 -0.432 -0.502 -0.233 -0.543 -0.213 -0.546 -0.173 -0.549 -0.131 -0.609 -0.092 -0.498 -0.038 -0.513 0.025 -0.559 0.246 -0.332 0.136 -0.524 0.486 -0.23 0.369 -0.503 0.545 -0.245 0.479 -0.433 0.656 -0.194 0.547 -0.175 0.642 -0.139 0.759 -0.051 0.695 -0.036 0.491" />
    <path class="write-stroke-pen" fill="none" stroke="#FF0000" stroke-width="2" stroke-linecap="round" stroke-linejoin="round" __comx="243.22" __comy="86.06" __timestamp="0x181b5d0ad02" d="M242.401 83.197 l0 -0.003 -0.01 -0.005 -0.02 -0.004 -0.048 -0.006 -0.075 0.012 -0.088 0.028 -0.295 0.103 -0.229 0.243 -0.274 0.189 -0.24 0.305 -0.276 0.217 -0.258 0.369 -0.331 0.394 -0.186 0.352 -0.171 0.39 -0.32 0.525 -0.171 0.423 -0.16 0.452 -0.128 0.453 -0.12 0.515 -0.057 0.456 -0.03 0.408 -0.019 0.469 -0.004 0.118 0.013 0.539 0.034 0.161 0.263 0.55 0.072 0.112 0.331 0.412 0.124 0.123 0.406 0.252 0.329 0.15 0.347 0.129 0.358 0.115 0.357 0.069 0.364 0.043 0.369 0.027 0.381 -0.019 0.39 -0.068 0.449 -0.128 0.525 -0.31 0.383 -0.179 0.537 -0.363 0.336 -0.2 0.493 -0.488 0.262 -0.392 0.433 -0.516 0.232 -0.447 0.351 -0.47 0.173 -0.449 0.137 -0.486 0.086 -0.443 0.069 -0.455 0.038 -0.461 0.02 -0.411 -0.03 -0.478 -0.076 -0.43 -0.267 -0.483 -0.158 -0.334 -0.377 -0.47 -0.346 -0.386 -0.347 -0.262 -0.483 -0.376 -0.413 -0.218 -0.491 -0.195 -0.401 -0.148 -0.45 -0.109 -0.457 -0.06 -0.416 0.008 -0.429 0.065 -0.565 0.343 -0.393 0.31 -0.402 0.382 -0.227 0.34 -0.493 0.583 -0.23 0.443 -0.353 0.588 -0.183 0.514 -0.094 0.59 -0.046 0.658 -0.036 0.514" />
    <path class="write-stroke-pen" fill="none" stroke="#FF0000" stroke-width="2" stroke-linecap="round" stroke-linejoin="round" __comx="252.709" __comy="86.06" __timestamp="0x181b5d0af4e" d="M253.933 79.714 l0 -0.003 -0.018 -0.035 -0.042 -0.047 -0.054 -0.042 -0.246 -0.042 -0.175 0.18 -0.142 0.237 -0.175 0.431 -0.134 0.467 -0.122 0.545 -0.113 0.611 -0.108 0.667 -0.109 0.777 -0.042 0.759 -0.079 0.873 -0.089 0.856 -0.031 0.847 -0.07 0.793 -0.026 0.852 -0.066 0.739 -0.026 0.744 -0.065 0.697 -0.075 0.591 -0.085 0.602 -0.035 0.492 -0.051 0.353 -0.034 0.406 -0.027 0.138 -0.047 0.415 -0.008 0.076 -0.007 0.078 -0.006 0.08 -0.016 0.071 -0.014 0.053 -0.018 0.046 -0.015 0.015 -0.03 -0.111 -0.008 -0.053 -0.017 -0.287 -0.004 -0.089 -0.009 -0.415 -0.002 -0.148 -0.004 -0.513 -0.002 -0.406 -0.003 -0.581" />
    <path class="write-stroke-pen" fill="none" stroke="#FF0000" stroke-width="2" stroke-linecap="round" stroke-linejoin="round" __comx="256.971" __comy="86.06" __timestamp="0x181b5d0b0b5" d="M254.168 80.514 l0 -0.039 -0.045 -0.321 -0.055 -0.277 -0.042 -0.146 -0.036 -0.089 -0.011 -0.031 -0.011 -0.032 -0.01 -0.033 -0.02 -0.067 -0.002 0.018 0.026 0.024 0.132 0.23 0.265 0.326 0.166 0.285 0.397 0.47 0.243 0.404 0.434 0.568 0.379 0.509 0.261 0.514 0.4 0.652 0.218 0.564 0.416 0.721 0.216 0.609 0.355 0.65 0.212 0.616 0.201 0.647 0.311 0.646 0.166 0.569 0.146 0.544 0.128 0.449 0.125 0.408 0.1 0.354 0.049 0.135 0.135 0.471 0.026 0.082 0.054 0.139 0.034 0.084 0.035 0.085 0.037 0.086 0.018 0.035 0.032 0.054 0.052 0.049 0.095 -0.051 0.035 -0.038 0.07 -0.251 0.021 -0.115 0.033 -0.352 0.018 -0.331 0.006 -0.155 0.023 -0.584" />
    <path class="write-stroke-pen" fill="none" stroke="#FF0000" stroke-width="2" stroke-linecap="round" stroke-linejoin="round" __comx="262.027" __comy="86.06" __timestamp="0x181b5d0b20f" d="M264.053 77.596 l0 -0.003 0 -0.005 -0.018 -0.043 -0.021 -0.028 -0.03 -0.031 -0.034 -0.024 -0.041 -0.022 -0.065 -0.012 -0.058 0.012 -0.164 0.203 -0.062 0.081 -0.16 0.367 -0.111 0.316 -0.114 0.389 -0.122 0.51 -0.121 0.625 -0.107 0.618 -0.138 0.733 -0.15 0.831 -0.145 0.811 -0.151 0.918 -0.315 0.935 -0.09 0.868 -0.129 0.948 -0.304 0.92 -0.15 0.866 -0.149 0.945 -0.303 0.865 -0.091 0.812 -0.117 0.73 -0.127 0.689 -0.118 0.536 -0.092 0.438 -0.079 0.35 -0.021 0.113 -0.097 0.533 -0.012 0.074 -0.015 0.119 -0.009 0.079 -0.004 0.033 -0.01 0.066 -0.011 0.032 0.002 -0.096 0 -0.048 0.002 -0.251" />
  </g>
</svg>
