<svg class="write-page" color-interpolation="linearRGB" width="1660px" height="900px" xmlns="http://www.w3.org/2000/svg" xmlns:xlink="http://www.w3.org/1999/xlink">
  <g class="write-content write-v3" width="1660" height="900" xruling="0" yruling="0" marginLeft="0" papercolor="#1A1A1B" rulecolor="#9F0000FF">
    <g class="ruleline write-std-ruling write-scale-down" fill="none" stroke="#0000FF" stroke-opacity="0.624" stroke-width="1" shape-rendering="crispEdges" vector-effect="non-scaling-stroke">
      <rect class="pagerect" fill="#1A1A1B" stroke="none" x="0" y="0" width="1660" height="900" />
    </g>
    <path class="write-stroke-pen" fill="none" stroke="#FFA200" stroke-width="1.4" stroke-linecap="round" stroke-linejoin="round" __comx="32.588" __comy="22.021" __timestamp="0x185e8b1d7c1" d="M29.607 22.256 l0 -0.002 0 -0.004 0.003 -0.009 0.009 -0.022 0.008 -0.016 0.023 -0.051 0.019 -0.04 0.041 -0.077 0.048 -0.085 0.071 -0.105 0.081 -0.108 0.089 -0.11 0.11 -0.139 0.122 -0.134 0.145 -0.155 0.149 -0.156 0.273 -0.202 0.095 -0.082 0.142 -0.118 0.288 -0.183 0.095 -0.054 0.134 -0.066 0.139 -0.06 0.309 -0.097 0.065 -0.018 0.143 -0.03 0.146 -0.024 0.127 -0.002 0.145 0.024 0.249 0.158 0.095 0.061 0.202 0.256 0.054 0.08 0.136 0.35 0.027 0.089 0.075 0.52 0.025 0.288 -0.033 0.356 -0.069 0.355 -0.09 0.354 -0.289 0.489 -0.126 0.306 -0.289 0.446 -0.153 0.309 -0.326 0.419 -0.166 0.3 -0.325 0.378 -0.09 0.1 -0.461 0.508 -0.089 0.096 -0.352 0.364 -0.075 0.085 -0.173 0.266 -0.222 0.187 -0.083 0.08 -0.082 0.087 -0.065 0.068 -0.04 0.051 -0.036 0.054 -0.014 0.025 -0.017 0.045 0.004 0.076 0.124 0.107 0.052 0.029 0.296 0.049 0.113 0.005 0.406 -0.03 0.331 -0.046 0.297 -0.055 0.347 -0.07 0.306 -0.067 0.444 -0.09 0.434 -0.065 0.391 -0.067 0.342 -0.05 0.347 -0.046 0.305 -0.039 0.308 -0.039 0.101 -0.01 0.143 -0.011 0.106 -0.007 0.07 -0.004 0.071 -0.004 0.075 0.006 0.059 0.014 0.052 0.021 0.047 0.027 0.033 0.024 0.028 0.052 0.117 0.22" />
    <path class="write-stroke-pen" fill="none" stroke="#FFA200" stroke-width="1.4" stroke-linecap="round" stroke-linejoin="round" __comx="65.743" __comy="22.224" __timestamp="0x185e8b1e88e" d="M63.066 22.569 l0 0.019 0 0.155 0 0.037 -0.033 0.273 -0.024 0.095 -0.051 0.442 -0.008 0.089 -0.02 0.425 -0.004 0.095 0.01 0.44 0.084 0.454 0.222 0.392 0.095 0.127 0.27 0.209 0.328 0.288 0.106 0.064 0.395 0.115 0.324 0.052 0.294 0.013 0.138 -0.004 0.457 -0.064 0.18 -0.063 0.442 -0.302 0.133 -0.094 0.442 -0.377 0.117 -0.114 0.428 -0.446 0.167 -0.25 0.302 -0.41 0.156 -0.342 0.151 -0.414 0.126 -0.379 0.116 -0.469 0.076 -0.466 0.051 -0.377 0.03 -0.428 0.013 -0.339 -0.042 -0.358 -0.069 -0.313 -0.233 -0.403 -0.087 -0.14 -0.354 -0.416 -0.284 -0.221 -0.277 -0.179 -0.322 -0.161 -0.328 -0.123 -0.334 -0.087 -0.34 -0.051 -0.397 0.003 -0.357 0.052 -0.422 0.194 -0.286 0.121 -0.271 0.301 -0.056 0.06 -0.182 0.294 -0.08 0.113 -0.217 0.494 -0.137 0.37 -0.145 0.469 -0.124 0.425 -0.134 0.519 -0.103 0.509 -0.049 0.553 -0.039 0.432" />
    <path class="write-stroke-pen" fill="none" stroke="#FFA200" stroke-width="1.4" stroke-linecap="round" stroke-linejoin="round" __comx="72.059" __comy="22.224" __timestamp="0x185e8b1eae9" d="M72.519 18.216 l0 0.009 0 0.03 0 0.21 0 0.068 0 0.373 0 0.357 0 0.372 0 0.521 0 0.563 0 0.7 0 0.727 0 0.761 -0.054 0.801 -0.017 0.787 -0.062 0.883 -0.074 0.868 -0.02 0.863 -0.063 0.865 -0.017 0.862 -0.005 0.863 -0.001 0.815 -0.055 0.776 -0.096 0.737 -0.101 0.603 -0.08 0.522 -0.075 0.491 -0.031 0.406 -0.043 0.292 -0.011 0.095 -0.009 0.098 -0.008 0.102 -0.005 0.067 -0.004 0.068 -0.012 0.061 -0.016 0.06 -0.062 -0.002 0.131 -0.019 0.072 -0.185 0.09 -0.231" />
    <path class="write-stroke-pen" fill="none" stroke="#FFA200" stroke-width="1.4" stroke-linecap="round" stroke-linejoin="round" __comx="73.6" __comy="22.224" __timestamp="0x185e8b1ec25" d="M70.793 22.334 l0.155 -0.069 0.271 -0.254 0.37 -0.297 0.406 -0.21 0.44 -0.277 0.345 -0.158 0.367 -0.139 0.378 -0.129 0.378 -0.104 0.334 -0.052 0.298 -0.028 0.151 0.007 0.41 0.065 0.257 0.184 0.26 0.144 0.215 0.276 0.15 0.257 0.159 0.36 0.111 0.326 0.08 0.333 0.051 0.385 0.028 0.388 -0.018 0.351 -0.061 0.359 -0.192 0.386 -0.054 0.101 -0.362 0.5 -0.083 0.105 -0.411 0.41 -0.083 0.075 -0.467 0.236 -0.378 0.26 -0.296 0.104 -0.368 0.102 -0.379 0.092 -0.38 0.05 -0.34 0.025 -0.301 0.014 -0.306 0.009 -0.072 -0.003 -0.073 -0.008 -0.084 -0.028 -0.07 -0.042 -0.055 -0.057 0.018 -0.179 0.139 -0.17 0.505 -0.149 0.323 -0.096" />
    <path class="write-stroke-pen" fill="none" stroke="#FFA200" stroke-width="1.4" stroke-linecap="round" stroke-linejoin="round" __comx="80.05" __comy="22.224" __timestamp="0x185e8b1ed48" d="M80.168 15.313 l-0.015 0.022 -0.059 0.188 -0.079 0.227 -0.077 0.254 -0.077 0.277 -0.051 0.328 -0.063 0.344 -0.039 0.387 -0.023 0.436 -0.013 0.481 -0.007 0.571 -0.003 0.607 -0.001 0.692 -0.001 0.676 0 0.67 0 0.621 0 0.578 0.022 0.538 0.049 0.455 0.06 0.418 0.084 0.386 0.068 0.296 0.05 0.131 0.107 0.341 0.025 0.052 0.061 0.095 0.258 0.403" />
    <path class="write-stroke-pen" fill="none" stroke="#FFA200" stroke-width="1.4" stroke-linecap="round" stroke-linejoin="round" __comx="81.71" __comy="22.224" __timestamp="0x185e8b1ee8d" d="M77.932 23.158 l0.002 0 0.004 0 0.031 0 0.214 -0.033 0.092 -0.036 0.416 -0.243 0.296 -0.135 0.431 -0.292 0.385 -0.176 0.565 -0.357 0.43 -0.198 0.556 -0.353 0.508 -0.191 0.492 -0.166 0.458 -0.153 0.37 -0.118 0.374 -0.098 0.334 -0.065 0.296 -0.035 0.136 -0.012 0.327 0.028 0.222 0.137 0.105 0.075 0.253 0.459 0.104 0.333 0.086 0.448 0.037 0.368 0.022 0.424 0.011 0.382 -0.025 0.304 -0.046 0.308 -0.058 0.31 -0.026 0.088 -0.086 0.308 -0.033 0.088 -0.029 0.054 -0.026 0.039 -0.055 0.037 -0.059 0.008 -0.076 -0.029 -0.146 -0.162 -0.075 -0.081 -0.164 -0.273 -0.218 -0.214 -0.14 -0.312 -0.175 -0.389" />
    <path class="write-stroke-pen" fill="none" stroke="#FFA200" stroke-width="1.4" stroke-linecap="round" stroke-linejoin="round" __comx="85.306" __comy="22.224" __timestamp="0x185e8b1ef30" d="M84.6 17.313 l0.002 0 0.004 0 0.006 0 0.036 0 0.029 0 0.057 0 0.079 0.015 0.046 0.007 0.078 0.009 0.074 0.019 0.075 0.028 0.075 0.036 0.102 0.053 0.078 0.046 0.122 0.083 0.121 0.09 0.426 0.319" />
    <path class="write-stroke-pen" fill="none" stroke="#FFA200" stroke-width="1.4" stroke-linecap="round" stroke-linejoin="round" __comx="94.586" __comy="22.224" __timestamp="0x185e8b1f28d" d="M89.699 24.452 l0.019 0 0.054 0 0.075 0 0.224 0 0.033 -0.003 0.095 -0.022 0.115 -0.046 0.115 -0.062 0.116 -0.074 0.116 -0.084 0.117 -0.091 0.135 -0.122 0.182 -0.258 0.056 -0.09 0.136 -0.29 0.044 -0.099 0.095 -0.301 0.033 -0.137 0.047 -0.312 0.013 -0.103 -0.005 -0.326 -0.017 -0.122 -0.042 -0.14 -0.188 -0.266 -0.067 -0.096 -0.272 -0.224 -0.082 -0.058 -0.311 -0.132 -0.091 -0.03 -0.338 -0.065 -0.115 -0.003 -0.465 0.16 -0.102 0.042 -0.378 0.27 -0.085 0.073 -0.219 0.321 -0.278 0.336 -0.143 0.257 -0.118 0.279 -0.021 0.058 -0.063 0.293 -0.012 0.063 -0.009 0.105 0.029 0.328 0.046 0.134 0.212 0.22 0.079 0.073 0.365 0.148 0.268 0.061 0.285 0.038 0.296 0.024 0.305 0 0.308 -0.015 0.368 -0.061 0.319 -0.079 0.39 -0.211 0.145 -0.087 0.425 -0.353 0.208 -0.248 0.332 -0.341 0.188 -0.293 0.352 -0.407 0.175 -0.295 0.266 -0.345 0.158 -0.268 0.113 -0.161 0.208 -0.375 0.1 -0.138 0.104 -0.143 0.073 -0.102 0.059 -0.093 0.041 -0.066 0.04 -0.068 0.026 -0.041 0.019 -0.027 0.044 -0.046 0.035 -0.028 0.045 -0.017 0.097 0.11 0.022 0.044 0.052 0.277 0.01 0.075 0.026 0.391 0.012 0.322 0.007 0.335 0.005 0.434 0.002 0.386 -0.029 0.306 -0.021 0.392 -0.004 0.098 -0.048 0.453 -0.008 0.098 -0.047 0.316 -0.008 0.065 -0.011 0.103 -0.009 0.105 -0.005 0.069 -0.002 0.029 -0.004 0.045 -0.006 0.04 0.002 0.01 0.033 -0.106 0.044 -0.083 0.112 -0.292 0.099 -0.26 0.136 -0.33 0.145 -0.34 0.15 -0.346 0.142 -0.309 0.103 -0.171 0.196 -0.387 0.219 -0.243 0.178 -0.335 0.074 -0.116 0.118 -0.16 0.116 -0.133 0.141 -0.155 0.091 -0.09 0.116 -0.09 0.092 -0.063 0.092 -0.05 0.061 -0.028 0.109 -0.021 0.189 0.085 0.06 0.033 0.14 0.188 0.046 0.073 0.117 0.334 0.031 0.09 0.103 0.509 0.049 0.285 0.033 0.338 0.008 0.097 0.038 0.447 0.014 0.103 0.044 0.354 0.027 0.119 0.037 0.118 0.117 0.365 0.052 0.108 0.065 0.103 0.075 0.098 0.11 0.114 0.109 0.08 0.119 0.063 0.127 0.05 0.133 0.039 0.314 0.027 0.111 -0.014 0.16 -0.045 0.309 -0.099 0.233 -0.184 0.105 -0.088 0.134 -0.109 0.202 -0.25 0.094 -0.111 0.078 -0.097 0.153 -0.315 0.035 -0.092 0.069 -0.296 0.114 -0.492" />
    <path class="write-stroke-pen" fill="none" stroke="#FFA200" stroke-width="1.4" stroke-linecap="round" stroke-linejoin="round" __comx="117.079" __comy="21.015" __timestamp="0x185e8b20095" d="M117.275 15.705 l0 0.019 0 0.035 0 0.048 0 0.248 -0.015 0.09 -0.059 0.308 -0.067 0.327 -0.038 0.332 -0.06 0.391 -0.037 0.479 -0.062 0.527 -0.032 0.658 -0.013 0.687 -0.005 0.722 -0.002 0.808 -0.001 0.744 0 0.65 0 0.661 0 0.617 0 0.484 0 0.452 0 0.415 0 0.333 0 0.341 0 0.098 0 0.354 0 0.065 0.005 0.074 0.004 0.067 0.004 0.031 0.008 0.037 0.016 0.05 0.017 0.022 0.026 -0.111 0.008 -0.066 0.03 -0.25" />
    <path class="write-stroke-pen" fill="none" stroke="#FFA200" stroke-width="1.4" stroke-linecap="round" stroke-linejoin="round" __comx="118.342" __comy="21.015" __timestamp="0x185e8b201ae" d="M115.549 16.45 l0.18 -0.054 0.298 -0.22 0.422 -0.292 0.407 -0.174 0.404 -0.159 0.454 -0.144 0.457 -0.109 0.507 -0.077 0.415 -0.032 0.383 0.02 0.35 0.061 0.38 0.192 0.129 0.065 0.393 0.322 0.161 0.264 0.118 0.265 0.084 0.363 0.043 0.332 -0.026 0.398 -0.21 0.471 -0.258 0.414 -0.351 0.43 -0.374 0.409 -0.456 0.425 -0.477 0.44 -0.45 0.367 -0.462 0.359 -0.417 0.312 -0.336 0.171 -0.36 0.281 -0.076 0.044 -0.354 0.139 -0.078 0.038 -0.057 0.023 -0.059 0.021 -0.035 0.01 -0.039 0.009 -0.027 0.006 0.106 -0.007 0.15 -0.01" />
    <path class="write-stroke-pen" fill="none" stroke="#FFA200" stroke-width="1.4" stroke-linecap="round" stroke-linejoin="round" __comx="123.904" __comy="21.015" __timestamp="0x185e8b203b3" d="M119.55 24.57 l0.002 0 0.03 -0.015 0.243 -0.191 0.1 -0.077 0.374 -0.317 0.33 -0.197 0.426 -0.406 0.415 -0.363 0.412 -0.326 0.398 -0.338 0.3 -0.192 0.388 -0.315 0.129 -0.102 0.353 -0.191 0.146 -0.087 0.28 -0.111 0.098 -0.038 0.097 -0.03 0.118 -0.015 0.089 0.003 0.2 0.124 0.063 0.055 0.136 0.293 0.081 0.38 0.037 0.317 0.022 0.332 -0.04 0.398 -0.036 0.13 -0.1 0.428 -0.089 0.306 -0.041 0.112 -0.114 0.391 -0.041 0.113 -0.072 0.342 -0.011 0.063 -0.015 0.101 -0.009 0.067 -0.008 0.068 -0.001 0.031 0.017 0.081 0.044 0.061 0.079 0.025 0.223 -0.034 0.174 -0.144 0.229 -0.133 0.215 -0.274 0.232 -0.196 0.208 -0.31 0.272 -0.33 0.173 -0.3 0.277 -0.383 0.133 -0.263 0.152 -0.301 0.106 -0.167 0.166 -0.332 0.065 -0.1 0.087 -0.119 0.047 -0.057 0.051 -0.055 0.023 -0.022 0.024 -0.021 0.054 -0.033 0.071 -0.02 0.155 0.132 0.08 0.213 0.043 0.232 0.027 0.263 0.018 0.325 0.01 0.293 0.007 0.345 0.004 0.303 -0.03 0.359 -0.007 0.1 -0.017 0.452 -0.003 0.099 -0.006 0.357 -0.001 0.065 -0.001 0.104 -0.001 0.106 -0.001 0.07 0.004 0.078 0.004 0.032 0.016 0.058 0.025 0.053 0.05 0.049 0.055 0.017 0.13 -0.117 0.05 -0.054 0.13 -0.279 0.158 -0.34" />
    <path class="write-stroke-pen" fill="none" stroke="#FFA200" stroke-width="1.4" stroke-linecap="round" stroke-linejoin="round" __comx="128.697" __comy="21.015" __timestamp="0x185e8b20446" d="M127.905 18.137 l-0.009 0 -0.008 0.009 -0.007 0.016 0.004 0.032 0.026 0.049 0.044 0.055 0.187 0.087 0.082 0.043 0.254 0.099 0.1 0.045 0.332 0.133 0.153 0.075 0.448 0.22" />
    <path class="write-stroke-pen" fill="none" stroke="#FFA200" stroke-width="1.4" stroke-linecap="round" stroke-linejoin="round" __comx="136.089" __comy="21.015" __timestamp="0x185e8b2064a" d="M133.514 21 l-0.012 0.012 -0.041 0.041 -0.212 0.112 -0.152 0.21 -0.063 0.071 -0.326 0.344 -0.071 0.081 -0.192 0.338 -0.076 0.114 -0.32 0.459 -0.042 0.08 -0.165 0.413 -0.048 0.105 -0.127 0.377 -0.044 0.11 -0.077 0.337 -0.012 0.062 -0.022 0.307 0.006 0.09 0.034 0.135 0.171 0.235 0.073 0.084 0.315 0.195 0.268 0.121 0.322 0.08 0.379 0.051 0.433 0.012 0.442 -0.051 0.437 -0.084 0.442 -0.122 0.444 -0.231 0.361 -0.148 0.395 -0.248 0.364 -0.187 0.492 -0.352 0.341 -0.169 0.413 -0.324 0.204 -0.238 0.296 -0.32 0.15 -0.251 0.142 -0.283 0.085 -0.15 0.129 -0.371 0.055 -0.143 0.099 -0.387 0.02 -0.097 0.022 -0.138 0.013 -0.103 -0.002 -0.125 -0.021 -0.096 -0.158 -0.192 -0.038 -0.035 -0.308 -0.125 -0.269 -0.03 -0.294 0.028 -0.423 0.208 -0.11 0.067 -0.455 0.39 -0.175 0.234 -0.283 0.327 -0.17 0.333 -0.139 0.324 -0.067 0.122 -0.161 0.46 -0.017 0.058 -0.056 0.335 -0.007 0.101 0.018 0.355 0.042 0.132 0.282 0.399 0.248 0.146 0.337 0.13 0.411 0.135 0.415 0.106 0.373 0.051 0.337 0.026 0.343 0.015 0.347 0.009 0.305 0.005 0.31 -0.012 0.17 -0.035 0.364 -0.094 0.133 -0.054 0.13 -0.068 0.127 -0.079 0.125 -0.087 0.082 -0.072 0.023 -0.022 0.037 -0.051 -0.038 -0.148 -0.054 -0.212" />
    <path class="write-stroke-pen" fill="none" stroke="#FFA200" stroke-width="1.4" stroke-linecap="round" stroke-linejoin="round" __comx="166.369" __comy="22.297" __timestamp="0x185e8b21269" d="M158.618 24.884 l0.009 0 0.032 -0.007 0.18 -0.043 0.07 -0.036 0.106 -0.078 0.149 -0.209 0.079 -0.1 0.082 -0.118 0.067 -0.118 0.061 -0.126 0.099 -0.292 0.026 -0.097 0.029 -0.138 0.041 -0.313 0.008 -0.067 0.013 -0.145 -0.018 -0.179 -0.067 -0.331 -0.049 -0.138 -0.224 -0.258 -0.088 -0.116 -0.239 -0.199 -0.092 -0.073 -0.312 -0.163 -0.093 -0.045 -0.423 -0.105 -0.094 -0.019 -0.49 -0.009 -0.344 0.029 -0.313 0.062 -0.274 0.224 -0.41 0.197 -0.23 0.265 -0.398 0.377 -0.181 0.274 -0.358 0.429 -0.136 0.248 -0.133 0.281 -0.251 0.361 -0.1 0.261 -0.094 0.288 -0.024 0.094 -0.064 0.484 -0.01 0.095 -0.005 0.35 0.021 0.11 0.159 0.23 0.08 0.104 0.309 0.222 0.121 0.079 0.397 0.125 0.281 0.051 0.295 0.018 0.316 -0.035 0.315 -0.068 0.44 -0.241 0.28 -0.132 0.428 -0.325 0.209 -0.239 0.365 -0.25 0.261 -0.34 0.325 -0.367 0.175 -0.292 0.298 -0.357 0.141 -0.254 0.158 -0.367 0.13 -0.336 0.106 -0.336 0.087 -0.3 0.03 -0.102 0.071 -0.306 0.019 -0.072 0.022 -0.102 0.013 -0.067 0.003 -0.071 -0.006 -0.056 -0.025 -0.064 -0.077 0.035 -0.05 0.037 -0.143 0.274 -0.114 0.274 -0.107 0.269 -0.093 0.279 -0.095 0.335 -0.04 0.111 -0.086 0.477 -0.032 0.292 -0.02 0.3 -0.005 0.1 -0.012 0.405 -0.002 0.101 -0.005 0.36 0.004 0.073 0.02 0.122 0.045 0.14 0.053 0.109 0.055 0.075 0.065 0.063 0.104 0.068 0.115 0.054 0.15 0.022 0.308 -0.038 0.258 -0.205 0.289 -0.175 0.223 -0.283 0.313 -0.328 0.166 -0.25 0.32 -0.388 0.182 -0.271 0.37 -0.442 0.194 -0.305 0.19 -0.367 0.28 -0.427 0.137 -0.307 0.078 -0.149 0.137 -0.296 0.063 -0.101 0.073 -0.097 0.043 -0.06 0.047 -0.058 0.03 -0.036 0.022 -0.024 0.023 -0.022 0.061 -0.04 0.119 0.039 0.022 0.016 0.079 0.231 0.008 0.269 -0.03 0.345 -0.048 0.324 -0.066 0.38 -0.066 0.341 -0.066 0.303 -0.077 0.351 -0.035 0.116 -0.071 0.439 -0.03 0.115 -0.052 0.345 -0.008 0.063 -0.011 0.101 -0.006 0.317 0.008 0.058 0.015 0.052 0.039 0.067 0.052 0.056 0.062 0.047 0.075 0.035 0.107 0.011 0.109 -0.017 0.34 -0.182 0.091 -0.052 0.154 -0.106 0.406 -0.362 0.116 -0.116 0.378 -0.401 0.17 -0.255 0.357 -0.407 0.177 -0.295 0.322 -0.43 0.156 -0.338 0.121 -0.286 0.151 -0.348 0.079 -0.153 0.149 -0.342 0.029 -0.066 0.055 -0.112 0.022 -0.041 0.023 -0.041 0.043 -0.057 0.099 0.042 0.02 0.028 0.053 0.311 -0.01 0.237 -0.043 0.348 -0.059 0.368 -0.063 0.335 -0.064 0.3 -0.038 0.298 -0.055 0.311 -0.014 0.1 -0.033 0.404 -0.007 0.101 -0.013 0.314 0.002 0.074 0.018 0.123 0.037 0.115 0.052 0.108 0.088 0.124 0.227 0.154 0.08 0.041 0.123 0.038 0.343 0.009 0.127 -0.023 0.46 -0.238 0.137 -0.08 0.412 -0.343 0.141 -0.125 0.355 -0.375 0.096 -0.1 0.218 -0.31 0.087 -0.113 0.132 -0.157 0.178 -0.281 0.054 -0.078 0.072 -0.105 0.058 -0.095 0.026 -0.04 0.017 -0.029 0.045 -0.058 0.088 0.005 0.011 0.013 -0.008 0.179 -0.025 0.062 -0.077 0.258 -0.035 0.091 -0.103 0.351 -0.047 0.278 -0.013 0.094 -0.027 0.345 -0.006 0.099 -0.012 0.31 0.011 0.121 0.036 0.139 0.175 0.241 0.085 0.107 0.273 0.191 0.26 0.1 0.124 0.035 0.428 0.062 0.345 -0.004 0.162 -0.031 0.498 -0.223 0.144 -0.076 0.372 -0.293 0.122 -0.112 0.232 -0.371 0.176 -0.326 0.135 -0.288 0.16 -0.349 0.127 -0.3 0.096 -0.335 0.073 -0.343 0.039 -0.301 0.024 -0.306 0.004 -0.065 -0.01 -0.157 -0.033 -0.141 -0.052 -0.136 -0.221 -0.214 -0.044 -0.034 -0.289 -0.111 -0.102 -0.015 -0.435 0.131 -0.111 0.052 -0.559 0.448 -0.194 0.292 -0.364 0.363 -0.177 0.277 -0.323 0.418 -0.133 0.254 -0.141 0.325 -0.068 0.122 -0.114 0.411 -0.02 0.092 -0.043 0.341 0.012 0.134 0.141 0.233 0.209 0.188 0.322 0.165 0.348 0.089 0.413 0.053 0.422 0.028 0.386 -0.022 0.362 -0.081 0.429 -0.24 0.325 -0.164 0.401 -0.353 0.311 -0.292 0.313 -0.303 0.199 -0.259 0.363 -0.457 0.193 -0.382 0.325 -0.51 0.166 -0.469 0.141 -0.495 0.128 -0.503 0.123 -0.507 0.114 -0.463 0.095 -0.462 0.058 -0.372 0.05 -0.381 0.042 -0.341 0.012 -0.135 0.021 -0.4 0.004 -0.1 0.005 -0.141 -0.012 -0.124 -0.008 -0.104 -0.013 -0.06 -0.021 -0.053 -0.037 -0.053 -0.077 0.007 -0.04 0.025 -0.111 0.224 -0.041 0.075 -0.128 0.402 -0.084 0.309 -0.088 0.37 -0.084 0.38 -0.087 0.431 -0.088 0.477 -0.083 0.474 -0.047 0.611 -0.063 0.554 -0.072 0.551 -0.032 0.594 -0.012 0.497 -0.005 0.457 -0.003 0.418 -0.001 0.379 -0.001 0.385 0.016 0.344 0.055 0.317 0.045 0.133 0.109 0.31 0.075 0.128 0.07 0.096 0.095 0.085 0.077 0.052 0.084 0.044 0.127 0.04 0.111 0.013 0.16 -0.016 0.159 -0.042 0.254 -0.178 0.134 -0.096 0.155 -0.124 0.13 -0.12 0.127 -0.129 0.108 -0.109 0.088 -0.096 0.033 -0.036 0.033 -0.036 0.384 -0.414" />
    <path class="write-stroke-pen" fill="none" stroke="#FFA200" stroke-width="1.4" stroke-linecap="round" stroke-linejoin="round" __comx="196.142" __comy="22.297" __timestamp="0x185e8b214a5" d="M196.078 15.117 l0.01 -0.005 0.028 -0.029 0.06 -0.071 0.049 -0.062 0.03 -0.042 0.02 -0.027 0.016 -0.018 0.017 -0.017 0.031 -0.022 0.093 0.051 0.025 0.033 0.066 0.325 0.029 0.315 -0.022 0.442 -0.056 0.549 -0.025 0.593 -0.063 0.737 -0.075 0.765 -0.025 0.797 -0.064 0.838 -0.019 0.922 -0.064 0.956 -0.075 0.945 -0.075 0.848 -0.072 0.718 -0.072 0.642 -0.024 0.562 -0.054 0.534 -0.02 0.402 -0.008 0.283 -0.002 0.095 -0.004 0.303 0.002 0.029 0.012 0.101 0.026 0.117 0.009 0.028 0.01 0.027 0.031 0.049 0.044 0.04 0.104 -0.066 0.043 -0.04 0.099 -0.251 0.123 -0.312" />
    <path class="write-stroke-pen" fill="none" stroke="#FFA200" stroke-width="1.4" stroke-linecap="round" stroke-linejoin="round" __comx="197.181" __comy="22.297" __timestamp="0x185e8b215cb" d="M193.097 17.117 l0.01 -0.005 0.151 -0.06 0.215 -0.083 0.339 -0.133 0.492 -0.169 0.502 -0.162 0.639 -0.154 0.679 -0.136 0.668 -0.099 0.713 -0.063 0.661 -0.046 0.523 -0.015 0.491 -0.006 0.465 0.058 0.437 0.195 0.317 0.124 0.249 0.256 0.24 0.166 0.194 0.328 0.043 0.081 0.099 0.394 0.041 0.28 -0.02 0.308 -0.202 0.435 -0.128 0.318 -0.412 0.471 -0.397 0.374 -0.38 0.349 -0.423 0.364 -0.411 0.205 -0.489 0.289 -0.472 0.159 -0.447 0.11 -0.459 0.094 -0.42 0.081 -0.375 0.039 -0.338 0.02 -0.097 0.005 -0.352 0.01 -0.065 0.002 -0.027 0.001 -0.062 0.002 0.121 -0.015 0.584 0.07 0.278 0.033" />
    <path class="write-stroke-pen" fill="none" stroke="#FFA200" stroke-width="1.4" stroke-linecap="round" stroke-linejoin="round" __comx="204.087" __comy="22.297" __timestamp="0x185e8b21872" d="M198.353 26.178 l0.002 0 0.004 0 0.019 -0.005 0.042 -0.012 0.062 -0.027 0.228 -0.091 0.119 -0.076 0.321 -0.26 0.127 -0.1 0.404 -0.321 0.131 -0.103 0.425 -0.357 0.263 -0.163 0.364 -0.306 0.302 -0.177 0.143 -0.09 0.423 -0.21 0.139 -0.094 0.324 -0.168 0.094 -0.045 0.29 -0.082 0.062 -0.015 0.1 -0.02 0.103 -0.016 0.143 0.007 0.206 0.128 0.064 0.056 0.14 0.296 0.028 0.079 0.035 0.449 -0.017 0.286 -0.058 0.305 -0.081 0.308 -0.104 0.353 -0.11 0.353 -0.104 0.311 -0.046 0.113 -0.104 0.305 -0.019 0.063 -0.024 0.101 -0.014 0.067 -0.012 0.068 -0.003 0.031 0.003 0.057 0.022 0.074 0.162 0.129 0.098 0.014 0.325 -0.138 0.096 -0.056 0.342 -0.166 0.232 -0.266 0.24 -0.192 0.227 -0.347 0.101 -0.122 0.341 -0.375 0.073 -0.087 0.169 -0.269 0.072 -0.094 0.093 -0.114 0.062 -0.073 0.031 -0.036 0.031 -0.036 0.023 -0.024 0.042 -0.034 0.037 -0.022 0.048 -0.009 0.094 0.1 0.017 0.027 0.023 0.204 0.004 0.045 -0.017 0.259 -0.005 0.086 -0.009 0.285 -0.002 0.061 -0.002 0.099 0.005 0.107 0.031 0.141 0.068 0.157 0.197 0.207 0.083 0.078 0.289 0.136 0.12 0.041 0.375 0.069 0.131 0.018 0.442 0.014 0.301 -0.009 0.166 -0.034 0.403 -0.099 0.131 -0.052 0.377 -0.241 0.114 -0.082 0.205 -0.239 0.095 -0.107 0.18 -0.273 0.087 -0.118 0.148 -0.281 0.047 -0.096 0.037 -0.095 0.04 -0.136 0.009 -0.171 -0.14 -0.264 -0.052 -0.067 -0.288 -0.163 -0.292 -0.083 -0.317 -0.049 -0.338 0.003 -0.352 0.052 -0.398 0.215 -0.277 0.129 -0.214 0.202 -0.33 0.196 -0.211 0.281 -0.051 0.064 -0.117 0.291 -0.019 0.055 -0.024 0.09 -0.032 0.295 0.098 0.183 0.045 0.049 0.318 0.121 0.289 0.055 0.315 0.032 0.375 0.021 0.532 -0.05 0.446 -0.042" />
    <path class="write-stroke-pen" fill="none" stroke="#FFA200" stroke-width="1.4" stroke-linecap="round" stroke-linejoin="round" __comx="214.984" __comy="22.297" __timestamp="0x185e8b21a62" d="M213.768 16.49 l0 -0.002 0 -0.004 -0.009 -0.008 -0.023 0.002 -0.039 0.025 -0.073 0.221 -0.083 0.233 -0.079 0.258 -0.092 0.363 -0.092 0.421 -0.085 0.426 -0.119 0.573 -0.118 0.56 -0.123 0.6 -0.1 0.637 -0.087 0.631 -0.082 0.629 -0.033 0.673 -0.012 0.622 -0.004 0.531 -0.002 0.541 -0.001 0.546 0 0.501 0.019 0.414 0.027 0.377 0.06 0.309 0.083 0.311 0.039 0.113 0.094 0.305 0.023 0.07 0.035 0.104 0.036 0.107 0.019 0.067 0.009 0.028 0.013 0.067 -0.006 0.029 -0.037 -0.084 -0.039 -0.056 -0.109 -0.235 -0.052 -0.109 -0.077 -0.336 -0.02 -0.121 -0.036 -0.422 0.009 -0.144 0.068 -0.399 0.156 -0.232 0.073 -0.119 0.164 -0.29 0.247 -0.208 0.204 -0.247 0.315 -0.217 0.31 -0.16 0.328 -0.142 0.327 -0.095 0.343 -0.089 0.342 -0.067 0.347 -0.056 0.303 -0.03 0.101 -0.008 0.366 0.015 0.138 0.031 0.134 0.05 0.233 0.194 0.067 0.057 0.154 0.238 0.041 0.083 0.087 0.321 0.007 0.083 -0.145 0.449 -0.055 0.114 -0.341 0.486 -0.22 0.184 -0.425 0.416 -0.281 0.178 -0.471 0.367 -0.295 0.163 -0.38 0.27 -0.302 0.142 -0.103 0.053 -0.379 0.157 -0.081 0.04 -0.091 0.036 -0.061 0.021 -0.078 0.009 0.011 -0.139 0.72 -0.102 0.412 -0.226 0.291 -0.16" />
    <path class="write-stroke-pen" fill="none" stroke="#FFA200" stroke-width="1.4" stroke-linecap="round" stroke-linejoin="round" __comx="223.904" __comy="22.297" __timestamp="0x185e8b21d51" d="M225.379 25.08 l0.002 0 0.002 -0.002 0.002 -0.004 0.006 -0.009 0.013 -0.022 0.022 -0.047 0.025 -0.059 0.028 -0.069 0.066 -0.246 0.012 -0.054 0.029 -0.126 0.022 -0.129 0.032 -0.301 0.008 -0.1 0.007 -0.103 0.014 -0.318 -0.011 -0.124 -0.036 -0.142 -0.054 -0.136 -0.199 -0.236 -0.047 -0.049 -0.285 -0.161 -0.089 -0.046 -0.367 -0.099 -0.334 -0.051 -0.385 0.117 -0.325 0.103 -0.467 0.3 -0.305 0.149 -0.416 0.324 -0.26 0.152 -0.407 0.403 -0.167 0.243 -0.297 0.225 -0.219 0.376 -0.072 0.105 -0.182 0.393 -0.051 0.101 -0.089 0.321 -0.014 0.06 -0.043 0.297 0.009 0.11 0.03 0.104 0.169 0.199 0.074 0.076 0.236 0.12 0.082 0.032 0.321 0.069 0.093 0.016 0.346 0.018 0.134 -0.02 0.398 -0.087 0.269 -0.227 0.287 -0.165 0.214 -0.245 0.113 -0.114 0.264 -0.2 0.177 -0.232 0.077 -0.086 0.136 -0.147 0.118 -0.135 0.118 -0.141 0.102 -0.117 0.084 -0.101 0.083 -0.104 0.031 -0.038 0.032 -0.038 0.041 -0.041 0.053 -0.033 0.102 0.053 0.014 0.025 -0.018 0.245 -0.019 0.078 -0.086 0.452 -0.064 0.31 -0.033 0.279 -0.051 0.299 -0.013 0.097 -0.028 0.351 0 0.072 0.006 0.106 0.033 0.141 0.052 0.136 0.071 0.1 0.089 0.079 0.103 0.063 0.139 0.03 0.144 -0.007 0.236 -0.137 0.141 -0.101 0.355 -0.342 0.165 -0.275 0.181 -0.363 0.275 -0.425 0.404 -0.224 0.253 -0.461 0.176 -0.321" />
    <path class="write-stroke-pen" fill="none" stroke="#FFA200" stroke-width="1.4" stroke-linecap="round" stroke-linejoin="round" __comx="231.589" __comy="22.297" __timestamp="0x185e8b21fc8" d="M228.634 17.47 l0 -0.002 0 -0.004 -0.009 -0.008 -0.011 0.009 -0.026 0.031 -0.042 0.167 -0.008 0.04 -0.027 0.083 -0.05 0.331 -0.01 0.086 -0.027 0.464 -0.011 0.331 -0.007 0.385 -0.004 0.388 -0.002 0.484 -0.001 0.43 -0.001 0.431 0 0.526 0 0.517 0 0.561 0 0.554 0 0.599 0 0.452 0 0.416 -0.035 0.383 -0.018 0.337 -0.004 0.097 -0.009 0.398 -0.002 0.099 -0.002 0.102 -0.001 0.105 -0.001 0.069 -0.001 0.07 -0.001 0.054 -0.001 0.057 0.015 -0.057 0.031 -0.044 0.096 -0.217 0.117 -0.247 0.265 -0.341 0.148 -0.254 0.306 -0.391 0.122 -0.144 0.362 -0.414 0.129 -0.141 0.381 -0.356 0.101 -0.096 0.343 -0.209 0.115 -0.08 0.325 -0.172 0.094 -0.046 0.093 -0.036 0.134 -0.039 0.119 -0.013 0.137 0.014 0.216 0.139 0.048 0.037 0.127 0.217 0.034 0.077 0.073 0.31 0.004 0.08 -0.044 0.383 -0.144 0.225 -0.125 0.292 -0.193 0.207 -0.177 0.286 -0.288 0.23 -0.181 0.231 -0.382 0.221 -0.107 0.073 -0.445 0.314 -0.078 0.041 -0.275 0.113 -0.08 0.04 -0.09 0.035 -0.095 0.03 -0.098 0.025 -0.065 0.014 -0.03 0.004 -0.077 -0.008 -0.057 -0.035 0.089 -0.131 0.106 -0.189 0.36 -0.212 0.38 -0.29 0.374 -0.293 0.373 -0.185 0.479 -0.342 0.427 -0.211 0.464 -0.308 0.384 -0.173 0.472 -0.302 0.299 -0.13 0.329 -0.127 0.152 -0.073 0.329 -0.105 0.067 -0.023 0.097 -0.027 0.064 -0.015 0.068 -0.005 0.182 0.103 0.049 0.047 0.079 0.286 -0.008 0.262 -0.159 0.347 -0.095 0.262 -0.115 0.33 -0.107 0.299 -0.232 0.375 -0.062 0.098 -0.154 0.364 -0.058 0.1 -0.05 0.077 -0.068 0.103 -0.032 0.057 -0.015 0.024 -0.034 0.047 -0.062 -0.031 -0.011 -0.029 -0.022 -0.203 -0.007 -0.094 0.006 -0.292 0.02 -0.317 0.028 -0.451" />
    <path class="write-stroke-pen" fill="none" stroke="#FFA200" stroke-width="1.4" stroke-linecap="round" stroke-linejoin="round" __comx="234.675" __comy="22.297" __timestamp="0x185e8b2204b" d="M233.616 19.588 l0 0.009 0 0.016 0.002 0.008 0.009 0.025 0.035 0.049 0.051 0.055 0.204 0.119 0.098 0.068 0.261 0.141 0.204 0.209 0.274 0.132 0.097 0.051 0.32 0.123 0.124 0.064 0.438 0.225" />
    <path class="write-stroke-pen" fill="none" stroke="#FFA200" stroke-width="1.4" stroke-linecap="round" stroke-linejoin="round" __comx="242.482" __comy="22.297" __timestamp="0x185e8b22279" d="M239.657 22.922 l0.046 -0.124 0.195 -0.276 0.191 -0.428 0.156 -0.389 0.147 -0.368 0.13 -0.371 0.125 -0.381 0.121 -0.386 0.093 -0.338 0.087 -0.344 0.06 -0.299 0.037 -0.303 0.01 -0.101 0.021 -0.359 -0.009 -0.121 -0.045 -0.317 -0.042 -0.138 -0.059 -0.134 -0.055 -0.087 -0.063 -0.069 -0.072 -0.058 -0.093 -0.042 -0.344 0.066 -0.085 0.036 -0.218 0.25 -0.148 0.24 -0.158 0.349 -0.286 0.504 -0.158 0.478 -0.144 0.546 -0.267 0.633 -0.138 0.564 -0.111 0.672 -0.112 0.625 -0.091 0.623 -0.034 0.576 -0.013 0.49 -0.006 0.454 -0.002 0.371 0.015 0.337 0.045 0.152 0.275 0.497 0.094 0.127 0.318 0.347 0.098 0.071 0.302 0.144 0.275 0.075 0.129 0.026 0.437 0.047 0.314 -0.026 0.18 -0.056 0.544 -0.29 0.276 -0.127 0.405 -0.345 0.313 -0.289 0.313 -0.301 0.177 -0.25 0.363 -0.402 0.165 -0.256 0.308 -0.358 0.178 -0.299 0.091 -0.142 0.176 -0.371 0.072 -0.123 0.063 -0.127 0.046 -0.098 0.013 -0.03 0.025 -0.071 -0.004 0.005 -0.016 0.024 -0.08 0.194 -0.05 0.083 -0.116 0.24 -0.049 0.093 -0.146 0.441 -0.042 0.103 -0.089 0.459 -0.033 0.286 -0.009 0.096 -0.022 0.443 -0.004 0.098 -0.008 0.353 0.005 0.106 0.039 0.32 0.034 0.113 0.181 0.235 0.087 0.106 0.108 0.104 0.292 0.142 0.087 0.033 0.127 0.036 0.298 0.051 0.104 0.008 0.12 -0.008 0.368 -0.064 0.261 -0.188 0.334 -0.149 0.271 -0.337 0.253 -0.315" />
    <path class="write-stroke-pen" fill="none" stroke="#FFA200" stroke-width="1.4" stroke-linecap="round" stroke-linejoin="round" __comx="246.796" __comy="22.297" __timestamp="0x185e8b22317" d="M245.227 19.039 l0 0.009 0 0.016 0.009 0.015 0.036 0.037 0.211 0.099 0.079 0.041 0.327 0.114 0.099 0.042 0.365 0.115 0.139 0.05 0.38 0.075 0.296 0.035 0.136 0.012 0.403 0.02 0.138 0.005 0.521 0.02" />
    <path class="write-stroke-pen" fill="none" stroke="#FFA200" stroke-width="1.4" stroke-linecap="round" stroke-linejoin="round" __comx="251.042" __comy="22.258" __timestamp="0x185e8b22d9b" d="M251.699 15.352 l0.002 0 0.014 -0.005 0.022 -0.009 0.029 -0.013 0.02 -0.01 0.021 -0.013 0.014 -0.011 0.026 -0.011 0.019 -0.001 0.005 0.021 -0.023 0.186 -0.033 0.083 -0.108 0.314 -0.097 0.27 -0.122 0.37 -0.128 0.424 -0.137 0.519 -0.126 0.514 -0.138 0.652 -0.13 0.684 -0.13 0.768 -0.097 0.798 -0.115 0.839 -0.086 0.778 -0.079 0.735 -0.076 0.695 -0.022 0.513 -0.009 0.442 -0.004 0.366 -0.002 0.289 0.014 0.114 0.082 0.402 0.059 0.128 0.081 0.116 0.219 0.145 0.023 0.014 0.081 0.037 0.087 0.031 0.096 0.021 0.105 -0.003 0.104 -0.037 0.158 -0.169 0.051 -0.067 0.111 -0.321 0.03 -0.088 0.147 -0.43" />
    <path class="write-stroke-pen" fill="none" stroke="#FFA200" stroke-width="1.4" stroke-linecap="round" stroke-linejoin="round" __comx="253.621" __comy="22.258" __timestamp="0x185e8b22ff1" d="M248.953 22.766 l0 0.019 0 0.035 0.007 0.051 0.012 0.062 0.012 0.047 0.033 0.054 0.076 0.083 0.212 0.104 0.076 0.028 0.308 0.059 0.125 0.018 0.431 0.032 0.295 0.013 0.347 0.009 0.396 0.006 0.35 -0.013 0.401 -0.044 0.404 -0.079 0.399 -0.096 0.405 -0.127 0.347 -0.112 0.349 -0.114 0.309 -0.107 0.146 -0.056 0.35 -0.111 0.07 -0.024 0.104 -0.035 0.101 -0.028 0.032 -0.008 0.07 -0.007 0.081 0.011 0.068 0.028 0.123 0.243 0.014 0.079 -0.027 0.333 -0.033 0.113 -0.228 0.418 -0.033 0.079 -0.141 0.411 -0.105 0.294 -0.187 0.224 -0.128 0.327 -0.045 0.101 -0.122 0.369 -0.043 0.108 -0.075 0.333 -0.012 0.062 -0.016 0.099 -0.013 0.102 0.002 0.093 0.024 0.113 0.054 0.101 0.195 0.142 0.075 0.034 0.269 0.018 0.135 -0.033 0.379 -0.208 0.107 -0.071 0.371 -0.286 0.122 -0.111 0.388 -0.391 0.112 -0.123 0.353 -0.435 0.16 -0.264 0.272 -0.349 0.16 -0.27 0.102 -0.135 0.214 -0.37 0.102 -0.137 0.106 -0.142 0.094 -0.118 0.046 -0.061 0.029 -0.038 0.021 -0.025 0.057 -0.047 0.122 0.045 0.018 0.035 0 0.209 -0.015 0.078 -0.069 0.367 -0.03 0.307 -0.051 0.332 -0.067 0.385 -0.077 0.434 -0.042 0.474 -0.064 0.524 -0.031 0.56 -0.055 0.511 -0.028 0.601 -0.055 0.55 -0.074 0.644 -0.077 0.634 -0.102 0.634 -0.253 0.71 -0.155 0.649 -0.337 0.755 -0.297 0.617 -0.351 0.56 -0.346 0.438 -0.469 0.437 -0.473 0.345 -0.498 0.202 -0.527 0.154 -0.494 0.127 -0.541 0.06 -0.452 0.024 -0.466 -0.028 -0.497 -0.215 -0.386 -0.273 -0.213 -0.292 -0.375 -0.452 -0.187 -0.449 -0.135 -0.527 -0.058 -0.536 -0.003 -0.498 0.184 -0.558 0.252 -0.489 0.361 -0.442 0.465 -0.405 0.303 -0.264" />
    <path class="write-stroke-pen" fill="none" stroke="#FFA200" stroke-width="1.4" stroke-linecap="round" stroke-linejoin="round" __comx="274.345" __comy="21.646" __timestamp="0x185e8b26613" d="M274.645 17.47 l0.002 0 0.006 -0.003 0.004 -0.004 0.004 -0.006 0.004 -0.008 0.007 -0.006 0.008 0.011 0.016 0.139 -0.008 0.047 -0.019 0.291 -0.004 0.078 -0.01 0.443 -0.037 0.328 -0.024 0.423 -0.051 0.432 -0.029 0.521 -0.059 0.566 -0.07 0.557 -0.071 0.506 -0.075 0.508 -0.033 0.459 -0.053 0.423 -0.023 0.332 -0.043 0.304 -0.008 0.063 -0.059 0.358 -0.009 0.064 -0.008 0.066 -0.007 0.05 -0.003 0.047 0.015 0.017 0.049 0.057" />
    <path class="write-stroke-pen" fill="none" stroke="#FFA200" stroke-width="1.4" stroke-linecap="round" stroke-linejoin="round" __comx="275.426" __comy="21.646" __timestamp="0x185e8b26777" d="M271.939 16.529 l0.019 0 0.187 -0.016 0.223 -0.039 0.265 -0.071 0.318 -0.078 0.332 -0.078 0.336 -0.061 0.389 -0.056 0.389 -0.031 0.39 -0.017 0.438 -0.01 0.349 0.028 0.464 0.187 0.321 0.102 0.437 0.292 0.343 0.302 0.2 0.248 0.351 0.411 0.188 0.336 0.283 0.417 0.169 0.43 0.152 0.501 0.127 0.461 0.128 0.511 0.1 0.506 0.046 0.504 0.023 0.602 0.009 0.5 -0.034 0.418 -0.071 0.386 -0.222 0.39 -0.113 0.266 -0.228 0.233 -0.181 0.284 -0.364 0.234 -0.294 0.127 -0.367 0.135 -0.372 0.107 -0.426 0.101 -0.424 0.052 -0.474 0.029 -0.38 0.012 -0.432 0.007 -0.387 -0.014 -0.4 -0.062 -0.39 -0.068 -0.354 -0.086 -0.131 -0.051 -0.391 -0.137 -0.097 -0.067 -0.085 -0.071 -0.058 -0.067 -0.049 -0.076 -0.017 -0.034 0.066 -0.199 0.092 -0.276" />
    <path class="write-stroke-pen" fill="none" stroke="#FFA200" stroke-width="1.4" stroke-linecap="round" stroke-linejoin="round" __comx="289.796" __comy="21.646" __timestamp="0x185e8b26d5b" d="M280.804 20.765 l0.003 -0.003 0.022 -0.029 0.09 -0.204 0.053 -0.086 0.067 -0.093 0.078 -0.099 0.087 -0.103 0.059 -0.068 0.062 -0.069 0.03 -0.034 0.031 -0.034 0.023 -0.022 0.024 -0.021 0.063 -0.038 0.123 0.045 0.024 0.037 0.01 0.213 -0.012 0.079 -0.083 0.374 -0.064 0.271 -0.087 0.296 -0.095 0.381 -0.094 0.431 -0.081 0.386 -0.106 0.44 -0.079 0.341 -0.09 0.311 -0.083 0.304 -0.05 0.3 -0.031 0.118 -0.049 0.305 -0.009 0.065 -0.012 0.103 -0.003 0.076 0.022 0.145 0.031 0.083 0.067 0.09 0.213 0.127 0.048 0.023 0.264 0.056 0.122 -0.006 0.344 -0.078 0.262 -0.199 0.302 -0.18 0.26 -0.362 0.302 -0.331 0.189 -0.327 0.284 -0.412 0.181 -0.39 0.15 -0.41 0.117 -0.335 0.109 -0.301 0.072 -0.157 0.112 -0.38 0.03 -0.1 0.032 -0.103 0.025 -0.101 0.014 -0.067 0.007 -0.033 0.003 -0.06 -0.006 -0.053 -0.014 -0.047 -0.018 -0.042 -0.033 -0.019 -0.101 0.092 -0.045 0.049 -0.121 0.271 -0.058 0.099 -0.176 0.467 -0.13 0.402 -0.097 0.367 -0.088 0.378 -0.078 0.34 -0.072 0.302 -0.019 0.097 -0.046 0.446 -0.008 0.098 -0.001 0.311 0.022 0.113 0.04 0.106 0.076 0.122 0.095 0.112 0.236 0.14 0.083 0.038 0.278 0.073 0.094 0.02 0.403 -0.007 0.179 -0.047 0.355 -0.121 0.268 -0.223 0.297 -0.172 0.236 -0.286 0.111 -0.116 0.31 -0.317 0.079 -0.106 0.186 -0.357 0.086 -0.147 0.13 -0.367 0.046 -0.11 0.04 -0.099 0.031 -0.097 0.026 -0.1 0.008 -0.032 0.006 -0.059 -0.007 -0.067 -0.02 -0.032 -0.069 0.091 -0.033 0.047 -0.099 0.266 -0.038 0.084 -0.115 0.38 -0.02 0.085 -0.049 0.416 -0.009 0.093 -0.019 0.343 -0.004 0.099 -0.008 0.309 -0.002 0.066 0.013 0.123 0.038 0.141 0.177 0.243 0.074 0.086 0.274 0.15 0.083 0.035 0.365 0.08 0.132 0.013 0.401 -0.032 0.178 -0.055 0.486 -0.25 0.141 -0.082 0.478 -0.336 0.214 -0.233 0.349 -0.364 0.184 -0.291 0.156 -0.317 0.139 -0.333 0.14 -0.384 0.077 -0.29 0.048 -0.297 0.017 -0.136 0.028 -0.403 -0.016 -0.111 -0.047 -0.16 -0.185 -0.256 -0.085 -0.107 -0.309 -0.187 -0.085 -0.046 -0.495 -0.12 -0.28 -0.039 -0.299 0.005 -0.313 0.05 -0.236 0.154 -0.387 0.173 -0.381 0.303 -0.18 0.231 -0.332 0.372 -0.17 0.328 -0.128 0.281 -0.144 0.378 -0.095 0.292 -0.025 0.095 -0.057 0.393 -0.008 0.063 0.006 0.315 0.024 0.111 0.16 0.211 0.072 0.08 0.309 0.15 0.081 0.03 0.319 0.065 0.093 0.015 0.343 0.032 0.103 0.001 0.405 -0.033 0.166 -0.04 0.464 -0.228 0.117 -0.071 0.389 -0.286 0.087 -0.076 0.223 -0.327 0.097 -0.138 0.172 -0.324 0.059 -0.105 0.063 -0.108 0.052 -0.097 0.028 -0.062 0.013 -0.03 0.02 -0.065 0.007 -0.046 -0.021 0.066 -0.033 0.046 -0.087 0.251 -0.035 0.081 -0.103 0.331 -0.039 0.099 -0.073 0.362 -0.01 0.059 -0.033 0.339 -0.005 0.063 -0.001 0.105 0.025 0.14 0.04 0.109 0.19 0.229 0.078 0.082 0.281 0.143 0.117 0.043 0.373 0.055 0.298 -0.004 0.313 -0.049 0.402 -0.217 0.278 -0.13 0.392 -0.313 0.222 -0.278 0.393 -0.368 0.224 -0.325 0.376 -0.466 0.235 -0.464 0.372 -0.591 0.188 -0.505 0.309 -0.581 0.173 -0.512 0.135 -0.488 0.119 -0.455 0.112 -0.419 0.07 -0.371 0.048 -0.292 0.029 -0.298 0.008 -0.099 -0.017 -0.409 -0.031 -0.136 -0.05 -0.132 -0.226 -0.249 -0.071 -0.063 -0.249 -0.116 -0.086 -0.031 -0.334 -0.035 -0.23 0.105 -0.263 0.11 -0.217 0.253 -0.084 0.094 -0.381 0.47 -0.157 0.327 -0.13 0.4 -0.133 0.465 -0.125 0.468 -0.121 0.469 -0.119 0.47 -0.125 0.516 -0.099 0.508 -0.092 0.556 -0.036 0.455 -0.018 0.463 -0.007 0.331 0.024 0.131 0.092 0.391 0.167 0.229 0.082 0.103 0.275 0.206 0.093 0.068 0.349 0.128 0.09 0.026 0.381 0.059 0.133 0.016 0.409 -0.027 0.368 -0.083 0.433 -0.242 0.413 -0.281 0.38 -0.318 0.332 -0.324 0.369 -0.386 0.204 -0.296 0.311 -0.351 0.107 -0.127 0.184 -0.309 0.07 -0.094 0.071 -0.099 0.042 -0.061 0.017 -0.027 0.036 -0.073 0.002 -0.031 -0.047 0.105 -0.04 0.057 -0.147 0.427 -0.105 0.328 -0.111 0.358 -0.094 0.367 -0.074 0.292 -0.019 0.095 -0.048 0.44 -0.006 0.062 -0.008 0.1 0 0.108 0.026 0.142 0.058 0.134 0.19 0.168 0.07 0.045 0.254 0.088 0.103 0.013 0.338 -0.027 0.145 -0.049 0.256 -0.219 0.098 -0.087 0.221 -0.291 0.171 -0.31 0.228 -0.414" />
    <path class="write-stroke-pen" fill="none" stroke="#FFA200" stroke-width="1.4" stroke-linecap="round" stroke-linejoin="round" __comx="298.141" __comy="21.646" __timestamp="0x185e8b26df3" d="M297.318 19 l0 0.019 0 0.035 0 0.048 0 0.212 0.002 0.02 0.018 0.063 0.059 0.099 0.226 0.135 0.101 0.04 0.26 0.057 0.089 0.015 0.291 0.03 0.102 0.002 0.5 0.009" />
    <path class="write-stroke-pen" fill="none" stroke="#FFA200" stroke-width="1.4" stroke-linecap="round" stroke-linejoin="round" __comx="301.22" __comy="21.646" __timestamp="0x185e8b26f07" d="M302.064 15.666 l-0.033 0.148 -0.024 0.062 -0.124 0.461 -0.103 0.381 -0.11 0.406 -0.107 0.375 -0.099 0.421 -0.116 0.477 -0.105 0.562 -0.09 0.555 -0.084 0.552 -0.084 0.597 -0.033 0.542 -0.056 0.503 -0.075 0.601 -0.026 0.45 -0.053 0.465 -0.058 0.378 -0.057 0.297 -0.038 0.341 -0.025 0.116 -0.078 0.353 -0.029 0.087 -0.018 0.062 -0.016 0.064 -0.014 0.066 -0.009 0.074 -0.001 0.03 -0.022 0.499" />
    <path class="write-stroke-pen" fill="none" stroke="#FFA200" stroke-width="1.4" stroke-linecap="round" stroke-linejoin="round" __comx="304.908" __comy="21.646" __timestamp="0x185e8b271a2" d="M300.73 21.275 l-0.012 0.012 -0.007 0.016 -0.007 0.023 0.003 0.02 0.038 0.034 0.204 0.053 0.069 0.006 0.33 -0.022 0.142 -0.037 0.414 -0.11 0.336 -0.1 0.302 -0.099 0.307 -0.106 0.309 -0.111 0.311 -0.114 0.146 -0.058 0.352 -0.114 0.103 -0.034 0.138 -0.034 0.103 -0.021 0.106 -0.018 0.096 -0.002 0.07 0.008 0.081 0.029 0.157 0.174 0.029 0.041 0.053 0.33 -0.022 0.278 -0.06 0.292 -0.206 0.406 -0.116 0.313 -0.128 0.379 -0.106 0.301 -0.232 0.376 -0.124 0.274 -0.053 0.106 -0.135 0.302 -0.044 0.083 -0.039 0.093 -0.043 0.086 -0.026 0.061 -0.01 0.028 -0.01 0.052 0.008 0.056 0.138 0.047 0.084 -0.022 0.349 -0.227 0.238 -0.121 0.344 -0.273 0.329 -0.314 0.308 -0.3 0.324 -0.34 0.193 -0.264 0.315 -0.252 0.203 -0.273 0.231 -0.191 0.1 -0.104 0.115 -0.128 0.1 -0.109 0.09 -0.088 0.085 -0.07 0.061 -0.047 0.027 -0.019 0.058 -0.035 0.104 -0.031 0.213 0.116 0.037 0.027 0.126 0.226 0.067 0.239 0.046 0.308 0.043 0.328 0.025 0.337 0.016 0.389 0.008 0.345 0.006 0.441 0.003 0.436 0.002 0.434 -0.043 0.58 -0.063 0.562 -0.072 0.555 -0.098 0.556 -0.114 0.599 -0.255 0.676 -0.127 0.56 -0.292 0.672 -0.159 0.554 -0.375 0.575 -0.327 0.46 -0.374 0.478 -0.362 0.401 -0.439 0.388 -0.408 0.324 -0.374 0.186 -0.359 0.144 -0.375 0.132 -0.333 0.098 -0.291 0.051 -0.307 0.002 -0.155 -0.039 -0.441 -0.277 -0.171 -0.209 -0.135 -0.249 -0.132 -0.282 -0.076 -0.28 -0.052 -0.336 0.002 -0.306 0.154 -0.391 0.242 -0.389 0.332 -0.366 0.449 -0.398 0.531 -0.364 0.598 -0.24 0.708 -0.37 0.678 -0.189 0.681 -0.275 0.637 -0.136 0.521 -0.112 0.487 -0.088 0.451 -0.058 0.326 -0.039 0.336 -0.023 0.097 -0.005 0.306 -0.01 0.031 -0.001 0.091 0.01 0.067 0.016 0.053 0.021 0.047 0.028 0.05 0.058 -0.041 0.143 -0.04 0.074 -0.394 0.372 -0.332 0.155 -0.356 0.166" />
    <path class="write-stroke-pen" fill="none" stroke="#FFA200" stroke-width="1.4" stroke-linecap="round" stroke-linejoin="round" __comx="40.498" __comy="21.075" __timestamp="0x185e8b27dff" d="M39.021 20.059 l0 0.145 0 0.053 -0.038 0.34 -0.007 0.078 -0.061 0.493 -0.073 0.331 -0.073 0.333 -0.087 0.307 -0.032 0.084 -0.099 0.299 -0.036 0.085 -0.107 0.302 -0.038 0.086 -0.08 0.296 -0.021 0.099 -0.085 0.408 -0.017 0.099 -0.042 0.451 -0.007 0.099 -0.019 0.499 -0.003 0.098 -0.008 0.447 0.005 0.103 0.029 0.401 0.034 0.136 0.094 0.313 0.07 0.129 0.209 0.195 0.1 0.095 0.336 0.187 0.119 0.048 0.373 0.08 0.131 0.021 0.44 0.037 0.301 0.001 0.32 -0.046 0.183 -0.064 0.453 -0.252 0.143 -0.087 0.406 -0.32 0.106 -0.09 0.365 -0.375 0.155 -0.249 0.093 -0.141 0.191 -0.413 0.064 -0.136 0.113 -0.377 0.074 -0.339 0.039 -0.299 0.014 -0.137 0.025 -0.452 -0.039 -0.363 -0.043 -0.164 -0.262 -0.477 -0.085 -0.141 -0.34 -0.384 -0.28 -0.196 -0.272 -0.15 -0.371 -0.16 -0.37 -0.101 -0.38 -0.074 -0.384 -0.041 -0.388 -0.023 -0.35 0.021 -0.316 0.058 -0.257 0.189 -0.338 0.17 -0.244 0.343 -0.139 0.254 -0.112 0.27 -0.179 0.432" />
  </g>
</svg>
