<svg class="write-page" color-interpolation="linearRGB" width="1660px" height="900px" xmlns="http://www.w3.org/2000/svg" xmlns:xlink="http://www.w3.org/1999/xlink">
  <g class="write-content write-v3" width="1660" height="900" xruling="0" yruling="0" marginLeft="0" papercolor="#10131B" rulecolor="#9F0000FF">
    <g class="ruleline write-std-ruling write-scale-down" fill="none" stroke="#0000FF" stroke-opacity="0.624" stroke-width="1" shape-rendering="crispEdges" vector-effect="non-scaling-stroke">
      <rect class="pagerect" fill="#10131B" stroke="none" x="0" y="0" width="1660" height="900" />
    </g>
    <path class="write-stroke-pen" fill="none" stroke="#FFA200" stroke-width="1.6" stroke-linecap="round" stroke-linejoin="round" __comx="26.195" __comy="30.467" __timestamp="0x1892ba3d97f" d="M20.326 24.832 l0 0.014 0 0.015 -0.011 0.039 -0.016 0.035 -0.015 0.045 -0.026 0.062 -0.012 0.035 -0.016 0.06 -0.009 0.041 -0.008 0.043 -0.007 0.045 -0.009 0.072 -0.002 0.054 0.014 0.084 0.037 0.075 0.193 0.125 0.179 0.059 0.263 0.043 0.346 0.013 0.385 -0.009 0.419 -0.021 0.491 -0.064 0.584 -0.067 1.146 -0.131 1.22 -0.231 1.175 -0.074 1.109 -0.086 0.981 -0.111 0.858 -0.087 0.704 -0.082 0.517 -0.056 0.474 -0.036 0.285 -0.01 0.239 -0.017 0.096 -0.005 0.1 -0.004 0.076 -0.002 0.05 -0.001 0.05 -0.002 0.01 0.019 -0.005 0.003 -0.15 0.039 -0.182 0.047" />
    <path class="write-stroke-pen" fill="none" stroke="#FFA200" stroke-width="1.6" stroke-linecap="round" stroke-linejoin="round" __comx="26.283" __comy="30.467" __timestamp="0x1892ba3da76" d="M27.71 23.567 l0 0.007 0 0.012 0 0.018 0 0.022 0 0.155 0 0.035 -0.011 0.071 -0.048 0.268 -0.022 0.079 -0.074 0.317 -0.072 0.259 -0.085 0.294 -0.092 0.328 -0.1 0.394 -0.218 0.464 -0.107 0.39 -0.207 0.502 -0.108 0.488 -0.221 0.529 -0.104 0.477 -0.225 0.558 -0.107 0.543 -0.219 0.549 -0.102 0.506 -0.09 0.489 -0.214 0.527 -0.095 0.408 -0.071 0.393 -0.064 0.404 -0.067 0.31 -0.062 0.312 -0.011 0.069 -0.025 0.289 -0.003 0.047 -0.004 0.075 -0.003 0.049 -0.021 0.396" />
    <path class="write-stroke-pen" fill="none" stroke="#FFA200" stroke-width="1.6" stroke-linecap="round" stroke-linejoin="round" __comx="35.196" __comy="30.467" __timestamp="0x1892ba3debe" d="M30.858 31.51 l0 0.014 0 0.164 0 0.047 -0.025 0.214 -0.006 0.062 -0.013 0.274 -0.003 0.07 -0.005 0.224 0.001 0.021 0.018 0.057 0.045 0.057 0.153 0.057 0.074 0.001 0.231 -0.051 0.151 -0.118 0.241 -0.124 0.159 -0.176 0.243 -0.239 0.082 -0.089 0.262 -0.322 0.119 -0.197 0.132 -0.249 0.101 -0.218 0.104 -0.256 0.104 -0.292 0.063 -0.252 0.045 -0.224 0.028 -0.227 -0.003 -0.115 -0.042 -0.276 -0.032 -0.101 -0.161 -0.19 -0.067 -0.076 -0.24 -0.147 -0.064 -0.035 -0.304 -0.082 -0.068 -0.015 -0.288 -0.034 -0.229 0.006 -0.18 0.097 -0.231 0.101 -0.166 0.194 -0.173 0.128 -0.174 0.312 -0.102 0.227 -0.096 0.243 -0.099 0.284 -0.074 0.251 -0.042 0.252 -0.025 0.257 -0.015 0.26 -0.008 0.228 0.007 0.266 0.042 0.275 0.044 0.116 0.201 0.366 0.056 0.085 0.268 0.309 0.176 0.121 0.229 0.106 0.244 0.086 0.316 0.057 0.319 0.03 0.322 0.002 0.37 -0.061 0.394 -0.166 0.335 -0.11 0.41 -0.263 0.351 -0.155 0.366 -0.27 0.359 -0.285 0.291 -0.248 0.293 -0.257 0.284 -0.237 0.248 -0.242 0.146 -0.192 0.209 -0.174 0.174 -0.266 0.069 -0.101 0.133 -0.271 0.041 -0.078 0.077 -0.213 0.014 -0.046 0.018 -0.073 0.01 -0.049 0.003 -0.052 -0.004 -0.041 -0.023 -0.051 -0.041 -0.028 -0.1 0.07 -0.146 0.072 -0.099 0.18 -0.084 0.182 -0.177 0.25 -0.07 0.187 -0.088 0.247 -0.079 0.282 -0.065 0.254 -0.067 0.292 -0.059 0.26 -0.036 0.291 -0.019 0.258 0 0.078 0.029 0.339 0.026 0.1 0.086 0.241 0.135 0.13 0.069 0.067 0.243 0.134 0.087 0.034 0.276 0.057 0.219 0.016 0.236 -0.025 0.29 -0.133 0.244 -0.098 0.31 -0.25 0.2 -0.132 0.299 -0.311 0.243 -0.279 0.13 -0.219 0.265 -0.332 0.125 -0.223 0.125 -0.247 0.113 -0.225 0.1 -0.221 0.103 -0.258 0.045 -0.107 0.081 -0.29 0.022 -0.076 0.04 -0.228 0.007 -0.049 0.01 -0.077 0.006 -0.051 -0.002 -0.045 -0.008 -0.04 -0.034 -0.052 -0.034 -0.018 -0.106 0.1 -0.035 0.039 -0.116 0.24 -0.083 0.192 -0.035 0.073 -0.107 0.338 -0.067 0.246 -0.059 0.222 -0.064 0.26 -0.036 0.257 -0.02 0.227 -0.012 0.23 -0.003 0.076 -0.008 0.306 -0.002 0.076 -0.001 0.078 -0.001 0.08 0.02 0.249 0.02 0.065 0.101 0.335" />
    <path class="write-stroke-pen" fill="none" stroke="#FFA200" stroke-width="1.6" stroke-linecap="round" stroke-linejoin="round" __comx="50.041" __comy="30.467" __timestamp="0x1892ba3e31b" d="M45.773 28.98 l0.002 0 0.003 0 0.005 0 0.006 0 0.006 -0.002 0.006 -0.013 -0.011 -0.025 -0.026 -0.032 -0.154 -0.068 -0.052 -0.021 -0.276 -0.05 -0.202 -0.02 -0.252 0.01 -0.257 0.031 -0.299 0.06 -0.354 0.184 -0.269 0.11 -0.346 0.24 -0.297 0.222 -0.243 0.21 -0.136 0.181 -0.302 0.307 -0.111 0.181 -0.091 0.202 -0.055 0.21 -0.015 0.071 -0.021 0.295 0.014 0.1 0.181 0.312 0.178 0.141 0.26 0.219 0.247 0.122 0.273 0.109 0.309 0.207 0.258 0.11 0.247 0.095 0.224 0.085 0.202 0.174 0.219 0.117 0.069 0.048 0.084 0.064 0.152 0.183 0.032 0.042 0.037 0.062 0.031 0.066 0.04 0.223 -0.065 0.134 -0.043 0.069 -0.236 0.253 -0.195 0.092 -0.263 0.101 -0.31 0.101 -0.35 0.101 -0.348 0.078 -0.321 0.08 -0.318 0.069 -0.283 0.033 -0.259 0.042 -0.072 0.009 -0.298 0.022 -0.048 0.003 -0.022 0 -0.04 -0.007 -0.051 -0.032 0.036 -0.086 0.112 -0.08 0.273 -0.197 0.263 -0.106 0.366 -0.128 0.413 -0.223 0.387 -0.133 0.406 -0.126 0.444 -0.223 0.353 -0.121 0.369 -0.103 0.349 -0.177 0.293 -0.098 0.28 -0.089 0.254 -0.083 0.117 -0.051 0.259 -0.101 0.262 -0.096 0.078 -0.041 0.043 -0.019 0.021 -0.009 0.039 -0.01 0.035 -0.002 0.034 0.006 0.025 0.024 0.009 0.036 -0.009 0.149 -0.011 0.046 -0.05 0.216 -0.02 0.055 -0.07 0.238 -0.016 0.068 -0.054 0.225 -0.014 0.073 -0.012 0.075 -0.001 0.274 0.234 0.267 0.274 0.15 0.347 0.124 0.326 0.053 0.091 0.011 0.354 0.006 0.222 -0.02 0.305 -0.071 0.321 -0.182 0.237 -0.107 0.356 -0.272 0.3 -0.251 0.261 -0.225 0.258 -0.271 0.236 -0.257 0.136 -0.22 0.203 -0.257 0.041 -0.061 0.109 -0.236 0.031 -0.071 0.056 -0.218 0.01 -0.047 -0.001 -0.102 -0.098 -0.196 -0.051 -0.082 -0.217 -0.173 -0.194 -0.116 -0.299 -0.114 -0.308 -0.072 -0.315 -0.038 -0.319 -0.02 -0.296 0.031 -0.323 0.159 -0.232 0.084 -0.176 0.163 -0.368 0.175 -0.334 0.266 -0.187 0.11 -0.309 0.326 -0.024 0.031 -0.071 0.183 -0.04 0.267 0.114 0.314 0.186 0.263 0.276 0.177 0.096 0.065 0.295 0.136 0.277 0.106 0.31 0.059 0.316 0.031 0.32 0.016 0.358 -0.006 0.323 -0.031 0.401 -0.154 0.305 -0.099 0.385 -0.256 0.32 -0.224 0.304 -0.245 0.308 -0.281 0.291 -0.263 0.257 -0.23 0.261 -0.233 0.105 -0.097 0.28 -0.269 0.086 -0.092 0.273 -0.281 0.058 -0.065 0.085 -0.1 0.086 -0.105 0.13 -0.239 0.026 -0.048 0.056 -0.106 0.057 -0.109 0.027 -0.052 0.018 -0.032 0.013 -0.021 0.014 -0.02 0.015 -0.019 0.016 -0.018 0.036 -0.028 0.048 -0.019 0.1 0.053 0.011 0.005 0.081 0.12 0.015 0.028 0.025 0.054 0.046 0.187 0.012 0.065 0.031 0.314 0.005 0.07 0.015 0.398 0.005 0.219 0.003 0.258 0.002 0.295 0.001 0.26 0.001 0.262 0 0.229 0 0.076 0 0.342 0 0.075 0 0.077 0 0.079 0 0.052 0.004 0.059 0.003 0.024 0.023 0.064 0.035 0.051 0.118 0.005 0.191 -0.048 0.162 -0.188 0.262 -0.277 0.141 -0.21 0.293 -0.328 0.259 -0.289 0.229 -0.256 0.266 -0.297 0.231 -0.259 0.233 -0.262 0.141 -0.2 0.263 -0.278 0.071 -0.074 0.258 -0.294 0.067 -0.088 0.132 -0.238 0.059 -0.09 0.051 -0.077 0.03 -0.048 0.024 -0.044 0.021 -0.046 0.01 -0.023 0.026 -0.046 0.009 -0.034 0.037 -0.146" />
    <path class="write-stroke-pen" fill="none" stroke="#FFA200" stroke-width="1.6" stroke-linecap="round" stroke-linejoin="round" __comx="70.8" __comy="30.467" __timestamp="0x1892ba3e696" d="M67.131 35.305 l0 0.007 0 0.012 -0.007 0.011 -0.003 0.003 0.009 -0.007 0.054 -0.147 0.168 -0.137 0.243 -0.29 0.244 -0.28 0.265 -0.315 0.274 -0.348 0.286 -0.411 0.297 -0.419 0.295 -0.415 0.335 -0.482 0.32 -0.444 0.33 -0.473 0.365 -0.541 0.35 -0.502 0.334 -0.525 0.32 -0.497 0.284 -0.43 0.298 -0.468 0.264 -0.432 0.265 -0.438 0.234 -0.402 0.146 -0.35 0.241 -0.355 0.112 -0.222 0.076 -0.117 0.12 -0.24 0.042 -0.06 0.033 -0.04 0.015 -0.016 0.034 -0.029 0.037 -0.022 0.099 0.03 0.062 0.107 0.046 0.21 0.031 0.345 -0.018 0.402 -0.009 0.476 -0.003 0.509 -0.001 0.575 0 0.636 0.042 0.625 0.056 0.691 0.08 0.682 0.061 0.606 0.038 0.578 0.03 0.514 0.03 0.524 0.028 0.457 0.028 0.43 0.026 0.367 0.025 0.307 0.011 0.247 0.003 0.071 0.006 0.261 -0.006 0.041 -0.026 0.075 -0.038 0.072 -0.042 0.075 -0.176 0.317" />
    <path class="write-stroke-pen" fill="none" stroke="#FFA200" stroke-width="1.6" stroke-linecap="round" stroke-linejoin="round" __comx="81.105" __comy="30.467" __timestamp="0x1892ba3ebd6" d="M68.22 31.687 l0.004 0.007 0.013 0.017 0.02 0.023 0.038 0.036 0.064 0.049 0.2 0.092 0.197 0.072 0.243 0.073 0.315 0.048 0.323 0.054 0.39 0.031 0.386 0.014 0.456 0.007 0.485 -0.033 0.479 -0.067 0.545 -0.086 0.558 -0.192 0.549 -0.099 0.526 -0.109 0.514 -0.195 0.413 -0.11 0.458 -0.196 0.353 -0.11 0.402 -0.194 0.262 -0.102 0.33 -0.21 0.3 -0.217 0.206 -0.127 0.206 -0.252 0.202 -0.147 0.091 -0.08 0.281 -0.263 0.087 -0.09 0.163 -0.232 0.202 -0.164 0.149 -0.232 0.17 -0.164 0.143 -0.214 0.062 -0.083 0.23 -0.283 0.043 -0.062 0.076 -0.107 0.079 -0.109 0.089 -0.104 0.077 -0.087 0.079 -0.087 0.038 -0.045 0.037 -0.047 0.023 -0.029 0.029 -0.054 0.014 -0.042 -0.009 -0.013 -0.047 0.074 -0.031 0.033 -0.093 0.173 -0.035 0.061 -0.116 0.285 -0.046 0.085 -0.236 0.405 -0.072 0.255 -0.076 0.249 -0.103 0.389 -0.095 0.386 -0.1 0.454 -0.096 0.482 -0.084 0.405 -0.069 0.406 -0.063 0.409 -0.058 0.376 -0.027 0.376 -0.012 0.345 -0.005 0.314 0.01 0.285 0.016 0.223 0.025 0.101 0.07 0.233 0.129 0.134 0.058 0.054 0.209 0.094 0.088 0.028 0.312 0.037 0.228 -0.019 0.27 -0.065 0.309 -0.161 0.241 -0.105 0.31 -0.213 0.203 -0.11 0.315 -0.253 0.096 -0.076 0.24 -0.149 0.101 -0.079 0.084 -0.07 0.074 -0.059 0.046 -0.034 0.047 -0.034 0.021 -0.014 0.021 -0.013 0.039 -0.017 0.051 -0.008 0.079 0.075 0.02 0.034 0.04 0.154 0.011 0.056 0.023 0.227 0.004 0.043 0.011 0.217 0.006 0.052 0.029 0.101 0.042 0.098 0.068 0.111 0.194 0.16 0.081 0.047 0.267 0.078 0.213 0.037 0.102 0.007 0.3 -0.015 0.237 -0.042 0.319 -0.152 0.246 -0.101 0.286 -0.203 0.162 -0.177 0.289 -0.284 0.129 -0.186 0.129 -0.213 0.124 -0.222 0.106 -0.22 0.033 -0.072 0.076 -0.322 0.013 -0.072 0.004 -0.233 -0.11 -0.197 -0.06 -0.097 -0.278 -0.211 -0.281 -0.136 -0.295 -0.082 -0.308 -0.043 -0.281 -0.021 -0.296 0.029 -0.371 0.148 -0.274 0.096 -0.326 0.184 -0.268 0.116 -0.186 0.198 -0.265 0.157 -0.172 0.264 -0.1 0.193 -0.04 0.073 -0.082 0.302 -0.015 0.068 -0.019 0.255 0.014 0.099 0.138 0.285 0.038 0.049 0.225 0.156 0.089 0.056 0.294 0.089 0.21 0.037 0.219 0.023 0.104 0.002 0.304 -0.023 0.124 -0.03 0.308 -0.096 0.132 -0.064 0.304 -0.202 0.073 -0.049 0.215 -0.116 0.165 -0.163 0.058 -0.047 0.082 -0.071 0.081 -0.085 0.037 -0.042 0.049 -0.055 0.024 -0.027 0.017 -0.017 0.025 -0.025 0.018 -0.017 0.056 -0.032 0.115 0.03 0.037 0.023 0.087 0.157 0.026 0.053 0.08 0.31 0.044 0.234 0.032 0.347 0.016 0.35 0.009 0.459 0.004 0.521 -0.036 0.51 -0.05 0.504 -0.075 0.504 -0.083 0.501 -0.189 0.525 -0.097 0.482 -0.089 0.461 -0.184 0.46 -0.094 0.384 -0.182 0.402 -0.099 0.355 -0.212 0.416 -0.117 0.322 -0.228 0.336 -0.113 0.224 -0.232 0.19 -0.217 0.123 -0.15 0.158 -0.295 0.122 -0.196 0.045 -0.211 0.028 -0.221 0.006 -0.115 -0.027 -0.291 -0.175 -0.143 -0.182 -0.123 -0.221 -0.107 -0.299 -0.055 -0.307 -0.029 -0.315 -0.001 -0.355 0.043 -0.326 0.227 -0.428 0.262 -0.372 0.306 -0.37 0.344 -0.368 0.413 -0.403 0.412 -0.389 0.456 -0.348 0.466 -0.331 0.532 -0.34 0.537 -0.354 0.532 -0.353 0.562 -0.36 0.522 -0.323 0.496 -0.317 0.53 -0.328 0.429 -0.28 0.461 -0.273 0.421 -0.301 0.369 -0.259 0.377 -0.262 0.341 -0.297 0.313 -0.262 0.266 -0.245 0.255 -0.231 0.149 -0.188 0.185 -0.159 0.147 -0.236 0.059 -0.083 0.112 -0.233 0.031 -0.07 0.039 -0.099 0.054 -0.224 0.01 -0.048 -0.002 -0.085 -0.016 -0.066 -0.119 -0.133 -0.031 -0.031 -0.05 -0.035 -0.216 -0.075 -0.041 -0.012 -0.253 -0.003 -0.076 0.016 -0.091 0.035 -0.297 0.181 -0.053 0.036 -0.163 0.198 -0.179 0.14 -0.122 0.226 -0.053 0.082 -0.119 0.295 -0.072 0.212 -0.047 0.249 -0.028 0.255 -0.015 0.226 -0.011 0.298 0.006 0.229 0.022 0.103 0.097 0.342 0.155 0.185 0.133 0.198 0.249 0.166 0.193 0.091 0.268 0.065 0.28 0.036 0.321 0.021 0.361 -0.018 0.361 -0.055 0.364 -0.158 0.341 -0.129 0.513 -0.112 0.292 -0.214 0.238 -0.174" />
    <path class="write-stroke-pen" fill="none" stroke="#FFA200" stroke-width="1.6" stroke-linecap="round" stroke-linejoin="round" __comx="98.427" __comy="30.467" __timestamp="0x1892ba3edc1" d="M99.227 24.45 l0.002 0 0.002 -0.002 0.001 -0.003 0.001 -0.005 -0.004 -0.009 -0.014 -0.002 -0.026 0.015 -0.07 0.138 -0.06 0.164 -0.085 0.255 -0.092 0.305 -0.205 0.364 -0.11 0.323 -0.11 0.41 -0.236 0.549 -0.109 0.483 -0.204 0.554 -0.123 0.55 -0.211 0.611 -0.119 0.576 -0.202 0.57 -0.097 0.54 -0.083 0.45 -0.08 0.394 -0.061 0.333 -0.06 0.343 -0.056 0.314 -0.025 0.248 -0.013 0.222 -0.015 0.087 -0.011 0.074 -0.009 0.076 -0.005 0.05 -0.001 0.023 0.006 0.043 0.025 0.048 0.139 0.034 0.167 -0.159 0.237 -0.13 0.32 -0.291 0.261 -0.267 0.306 -0.275 0.289 -0.26 0.282 -0.239 0.256 -0.155 0.303 -0.257 0.192 -0.119 0.217 -0.123 0.11 -0.068 0.251 -0.122 0.049 -0.024 0.074 -0.034 0.046 -0.018 0.023 -0.008 0.069 -0.008 0.139 0.092 0.022 0.021 0.073 0.178 0.004 0.076 -0.032 0.228 -0.029 0.087 -0.217 0.312 -0.059 0.077 -0.302 0.303 -0.207 0.122 -0.329 0.262 -0.247 0.117 -0.383 0.239 -0.355 0.14 -0.37 0.112 -0.411 0.195 -0.358 0.104 -0.304 0.071 -0.248 0.057 -0.217 0.03 -0.047 0.005 -0.075 0.007 -0.05 0.004 -0.023 0 -0.028 -0.002 -0.051 -0.029 0.087 -0.1 0.155 -0.096 0.269 -0.212 0.357 -0.115 0.361 -0.186 0.27 -0.139" />
    <path class="write-stroke-pen" fill="none" stroke="#FFA200" stroke-width="1.6" stroke-linecap="round" stroke-linejoin="round" __comx="106.273" __comy="30.467" __timestamp="0x1892ba3ef2b" d="M104.258 29.186 l0.002 0 0.007 0.007 0.01 0.014 0.012 0.019 0.014 0.024 0.016 0.028 0.018 0.032 0.065 0.204 0.015 0.043 0.056 0.235 0.041 0.215 0.011 0.072 0.025 0.296 0.012 0.227 0.008 0.264 0.004 0.23 0.003 0.266 0.002 0.232 -0.022 0.239 -0.014 0.266 -0.015 0.09 -0.031 0.335 -0.018 0.087 -0.056 0.265 -0.009 0.047 -0.024 0.089 -0.011 0.049 -0.006 0.057 0.016 0.032 0.143 -0.087 0.09 -0.126 0.236 -0.251 0.243 -0.249 0.28 -0.267 0.315 -0.275 0.348 -0.279 0.286 -0.229 0.263 -0.223 0.223 -0.13 0.286 -0.208 0.202 -0.115 0.101 -0.075 0.24 -0.131 0.073 -0.05 0.067 -0.041 0.067 -0.033 0.022 -0.01 0.022 -0.009 0.049 -0.011 0.056 0.001 0.109 0.091 0.181 0.151" />
    <path class="write-stroke-pen" fill="none" stroke="#FFA200" stroke-width="1.6" stroke-linecap="round" stroke-linejoin="round" __comx="114.693" __comy="30.467" __timestamp="0x1892ba3f163" d="M112.201 32.657 l0.025 0 0.147 0 0.168 -0.011 0.101 -0.027 0.27 -0.077 0.09 -0.04 0.218 -0.09 0.108 -0.065 0.267 -0.207 0.071 -0.053 0.171 -0.188 0.19 -0.142 0.133 -0.199 0.109 -0.205 0.033 -0.068 0.08 -0.247 0.018 -0.071 0.02 -0.102 -0.006 -0.278 -0.099 -0.2 -0.099 -0.237 -0.17 -0.173 -0.07 -0.071 -0.278 -0.165 -0.084 -0.058 -0.296 -0.111 -0.07 -0.026 -0.352 -0.063 -0.07 -0.01 -0.365 0.004 -0.312 0.121 -0.212 0.081 -0.309 0.247 -0.075 0.064 -0.353 0.329 -0.072 0.068 -0.303 0.348 -0.123 0.243 -0.102 0.24 -0.103 0.282 -0.081 0.283 -0.061 0.223 -0.016 0.072 -0.039 0.332 0.003 0.087 0.054 0.246 0.168 0.187 0.169 0.11 0.22 0.072 0.271 0.046 0.315 0.027 0.319 0.014 0.325 -0.021 0.329 -0.054 0.338 -0.154 0.273 -0.104 0.289 -0.113 0.312 -0.207 0.233 -0.117 0.224 -0.112 0.163 -0.157 0.191 -0.13 0.097 -0.081 0.164 -0.193 0.062 -0.064 0.078 -0.08 0.08 -0.082 0.053 -0.064 0.049 -0.068 0.021 -0.029 0.04 -0.04 0.062 0.025 0.005 0.023 -0.014 0.129 -0.004 0.048 -0.033 0.214 -0.007 0.062 -0.014 0.21 -0.003 0.045 0.015 0.23 0.021 0.082 0.129 0.171 0.08 0.089 0.239 0.144 0.264 0.106 0.273 0.057 0.283 0.032 0.358 0.005 0.324 -0.026 0.324 -0.042 0.328 -0.065 0.337 -0.161 0.206 -0.078 0.127 -0.068 0.257 -0.128 0.077 -0.06 0.065 -0.059 0.052 -0.057 0.041 -0.06 0.029 -0.076 0.123 -0.321" />
  </g>
</svg>
