<svg class="write-page" color-interpolation="linearRGB" width="1660px" height="900px" xmlns="http://www.w3.org/2000/svg" xmlns:xlink="http://www.w3.org/1999/xlink">
  <g class="write-content write-v3" width="1660" height="900" xruling="0" yruling="0" marginLeft="0" papercolor="#1A1A1B" rulecolor="#9F0000FF">
    <g class="ruleline write-std-ruling write-scale-down" fill="none" stroke="#0000FF" stroke-opacity="0.624" stroke-width="1" shape-rendering="crispEdges" vector-effect="non-scaling-stroke">
      <rect class="pagerect" fill="#1A1A1B" stroke="none" x="0" y="0" width="1660" height="900" />
    </g>
    <path class="write-stroke-pen" fill="none" stroke="#FFA200" stroke-width="1" stroke-linecap="butt" stroke-linejoin="miter" __comx="40.056" __comy="21.346" __timestamp="0x18177551358" d="M39.938 19.206 l0 0.013 0 0.045 0 0.067 0 0.084 0 0.099 0 0.429 0 0.081 0 0.485 0 0.141 0 0.728 0 0.509 0 0.518 0 0.662 0 0.655 0 0.793 0 0.707 0 0.707 0 0.706 0 0.706 0 0.706 0 0.777 0 0.631 0 0.639 0 0.643 0 0.508 0 0.517 0 0.455 0 0.151 0 0.609 0 0.098 0.01 0.163 0.013 0.112 0.033 0.141 0.18 0.777" />
    <path class="write-stroke-pen" fill="none" stroke="#FFA200" stroke-width="1" stroke-linecap="butt" stroke-linejoin="miter" __comx="39.686" __comy="20.452" __timestamp="0x1817755148d" d="M33.996 20.618 l-0.013 0 -0.025 0 -0.035 0 -0.044 0 -0.017 0 -0.018 0 0.019 0 0.248 0 0.124 0 0.531 0 0.457 0 0.621 0 0.703 0 0.704 0 0.705 0 0.848 0 0.763 0 0.764 0 0.765 0 0.695 0 0.7 0 0.565 0 0.576 0 0.446 0 0.205 0 0.467 0 0.777 0" />
    <path class="write-stroke-pen" fill="none" stroke="#FFA200" stroke-width="1" stroke-linecap="butt" stroke-linejoin="miter" __comx="63.757" __comy="26.558" __timestamp="0x18177551dc7" d="M45.352 27.443 l0 0.029 0 0.232 0 0.056 0 0.101 0 0.373 0 0.082 0 0.135 0 0.439 0 0.094 0 0.151 0 0.469 0.007 0.111 0.019 0.164 0.023 0.089 0.069 0.159 0.076 0.109 0.109 0.085 0.178 0.047 0.309 -0.137 0.362 -0.148 0.289 -0.275 0.173 -0.152 0.495 -0.495 0.167 -0.182 0.361 -0.588 0.406 -0.517 0.154 -0.199 0.342 -0.612 0.164 -0.241 0.29 -0.615 0.189 -0.44 0.119 -0.232 0.224 -0.639 0.065 -0.199 0.105 -0.583 0.027 -0.202 0.042 -0.531 -0.011 -0.179 -0.057 -0.253 -0.087 -0.249 -0.297 -0.394 -0.104 -0.142 -0.351 -0.277 -0.104 -0.086 -0.128 -0.091 -0.474 -0.182 -0.088 -0.029 -0.169 -0.022 -0.469 0.033 -0.116 0.037 -0.357 0.357 -0.103 0.114 -0.208 0.539 -0.133 0.409 -0.088 0.487 -0.06 0.641 -0.031 0.644 -0.017 0.716 -0.009 0.782 0.027 0.774 0.044 0.769 0.088 0.842 0.1 0.762 0.115 0.834 0.116 0.828 0.112 0.756 0.083 0.756 0.066 0.691 0.059 0.63 0.055 0.57 0.052 0.511 0.023 0.153 0.049 0.595 0.007 0.095 0.014 0.109 0.02 0.11 0.015 0.1 0.01 0.046 0.013 0.043 0.022 0.052 0.053 0.072 0.145 -0.046 0.067 -0.048 0.211 -0.363 0.108 -0.169 0.209 -0.55 0.102 -0.211 0.246 -0.683 0.161 -0.438 0.167 -0.451 0.171 -0.459 0.112 -0.239 0.231 -0.591 0.099 -0.193 0.196 -0.506 0.06 -0.126 0.066 -0.148 0.084 -0.172 0.07 -0.154 0.032 -0.065 0.025 -0.043 0.045 -0.065 0.04 -0.045 0.052 -0.029 0.101 0.12 0.019 0.035 0.079 0.284 0.014 0.065 0.019 0.113 0.059 0.399 0.019 0.095 0.074 0.434 0.022 0.103 0.037 0.154 0.057 0.178 0.165 0.483 0.041 0.082 0.112 0.184 0.109 0.147 0.089 0.113 0.127 0.142 0.116 0.097 0.126 0.081 0.186 0.089 0.142 0.054 0.203 0.059 0.21 0.046 0.185 0.011 0.212 -0.029 0.251 -0.071 0.232 -0.113 0.365 -0.368 0.116 -0.128 0.255 -0.448 0.109 -0.198 0.174 -0.491 0.052 -0.148 0.129 -0.518 0.03 -0.148 0.063 -0.532 0.015 -0.152 0.029 -0.472 -0.011 -0.138 -0.01 -0.152 -0.05 -0.213 -0.056 -0.178 -0.092 -0.205 -0.085 -0.133 -0.066 -0.087 -0.104 -0.1 -0.073 -0.058 -0.168 -0.063 -0.136 -0.009 -0.266 0.167 -0.047 0.043 -0.208 0.365 -0.032 0.069 -0.114 0.508 -0.023 0.131 -0.053 0.564 -0.025 0.441 0.003 0.155 0.035 0.67 0.047 0.201 0.441 0.79 0.527 0.707 0.58 0.587 0.533 0.305 0.683 0.481 0.557 0.175 0.607 0.15 0.552 0.071 0.14 0.014 0.172 -0.008 0.246 -0.054 0.578 -0.305 0.083 -0.054 0.302 -0.339 0.111 -0.133 0.236 -0.514 0.06 -0.138 0.13 -0.562 0.026 -0.142 0.06 -0.589 0.028 -0.453 -0.027 -0.47 -0.062 -0.471 -0.083 -0.471 -0.058 -0.229 -0.079 -0.53 -0.054 -0.23 -0.079 -0.602 -0.011 -0.096 -0.014 -0.154 -0.015 -0.216 0 -0.168 0.023 -0.191 0.06 -0.218 0.104 -0.205 0.125 -0.159 0.349 -0.241 0.128 -0.077 0.18 -0.079 0.432 -0.112 0.093 -0.021 0.149 -0.027 0.209 0.008 0.202 0.045 0.131 0.057 0.119 0.077 0.242 0.321 0.064 0.114 0.159 0.59 0.066 0.42 0.045 0.505 0.024 0.448 -0.032 0.534 -0.068 0.532 -0.042 0.59 -0.033 0.175 -0.115 0.599 -0.023 0.146 -0.052 0.599 -0.007 0.096 -0.022 0.466 0.003 0.11 0.043 0.212 0.073 0.204 0.125 0.228 0.322 0.302 0.112 0.078 0.394 0.152 0.187 0.053 0.444 0.053 0.246 -0.023 0.535 -0.104 0.352 -0.241 0.399 -0.215 0.311 -0.316 0.144 -0.146 0.314 -0.506 0.139 -0.212 0.237 -0.545 0.075 -0.194 0.168 -0.716 0.092 -0.506 0.049 -0.447 0.033 -0.523 0.018 -0.458 0.006 -0.209 0.011 -0.612 0.002 -0.152 0.002 -0.156 -0.021 -0.188 -0.005 -0.049 -0.025 -0.107 -0.033 -0.084 -0.029 -0.062 -0.038 -0.052 -0.093 0.181 -0.016 0.061 -0.041 0.458 -0.018 0.425 0.012 0.408 0.033 0.496 0.069 0.517 0.107 0.47 0.075 0.198 0.216 0.657 0.089 0.191 0.208 0.636 0.088 0.19 0.239 0.644 0.056 0.121 0.165 0.438 0.058 0.126 0.065 0.148 0.083 0.172 0.051 0.104 0.073 0.132 0.026 0.042 0.062 0.076 0.032 0.035 0.046 0.041 0.124 0.057 0.221 -0.087 0.092 -0.061 0.185 -0.325 0.069 -0.15 0.139 -0.507 0.087 -0.415 0.077 -0.436 0.07 -0.449 0.083 -0.663 0.062 -0.518 0.065 -0.591 0.058 -0.522 0.058 -0.525 0.053 -0.46 0.033 -0.461 0.025 -0.216 0.025 -0.163 0.031 -0.166 0.026 -0.114 0.011 -0.05 0.013 -0.047 0.016 -0.044 0.04 -0.076 0.152 0.023 0.042 0.035 0.141 0.501 0.101 0.403 0.082 0.45 0.098 0.489 0.115 0.572 0.124 0.647 0.048 0.167 0.133 0.716 0.095 0.448 0.052 0.171 0.132 0.655 0.035 0.151 0.12 0.532 0.028 0.106 0.06 0.177 0.053 0.157 0.058 0.136 0.047 0.107 0.05 0.085 0.026 0.039 0.068 0.071 0.092 0.06 0.096 0.026 0.136 -0.025 0.219 -0.213 0.07 -0.088 0.165 -0.396 0.067 -0.141 0.153 -0.53 0.054 -0.192 0.105 -0.508 0.045 -0.206 0.092 -0.529 0.021 -0.15 0.045 -0.537 0.013 -0.211 0.019 -0.475 0.005 -0.156 0.004 -0.16 0.004 -0.162 0.002 -0.106 0.001 -0.052 0.003 -0.11 0.001 -0.05 0.029 0.052 0.012 0.024 0.039 0.336 0.018 0.101 0.061 0.423 0.025 0.132 0.108 0.557 0.032 0.145 0.124 0.585 0.051 0.17 0.14 0.523 0.071 0.161 0.188 0.455 0.075 0.113 0.125 0.168 0.172 0.196 0.155 0.12 0.172 0.095 0.185 0.075 0.196 0.059 0.21 0.035 0.208 -0.01 0.274 -0.077 0.344 -0.263 0.155 -0.128 0.286 -0.364 0.106 -0.14 0.237 -0.47 0.066 -0.141 0.184 -0.51 0.053 -0.15 0.069 -0.209 0.053 -0.209 0.042 -0.214 0.025 -0.159 0.049 -0.487 -0.004 -0.107 -0.017 -0.085 -0.015 -0.062 -0.048 0.013 -0.008 0.015 -0.01 0.048 -0.019 0.271 0.003 0.07 0.054 0.372 0.058 0.171 0.163 0.484 0.087 0.182 0.191 0.44 0.122 0.183 0.426 0.524 0.087 0.103 0.183 0.19 0.196 0.187 0.187 0.153 0.41 0.191 0.139 0.052 0.145 0.043 0.459 0.084 0.098 0.016 0.183 0.001 0.21 -0.038 0.203 -0.068 0.353 -0.281 0.101 -0.084 0.232 -0.353 0.075 -0.129 0.151 -0.477 0.045 -0.192 0.07 -0.516 0.021 -0.204 -0.047 -0.693 -0.097 -0.536 -0.29 -0.419 -0.235 -0.569 -0.344 -0.373 -0.263 -0.429 -0.431 -0.345 -0.151 -0.129 -0.499 -0.202 -0.129 -0.041 -0.609 0.132 -0.303 0.236 -0.369 0.213 -0.386 0.649 -0.423 0.632 -0.237 0.624 -0.176 0.666 -0.146 0.687 -0.132 0.696 -0.064 0.695 -0.062 0.677" />
    <path class="write-stroke-pen" fill="none" stroke="#FFA200" stroke-width="1" stroke-linecap="butt" stroke-linejoin="miter" __comx="111.682" __comy="31.445" __timestamp="0x181775529f9" d="M88.597 34.151 l0.005 -0.005 0.039 -0.019 0.062 -0.026 0.082 -0.032 0.11 -0.052 0.179 -0.101 0.155 -0.104 0.159 -0.12 0.163 -0.133 0.16 -0.163 0.15 -0.179 0.12 -0.179 0.084 -0.141 0.087 -0.194 0.068 -0.202 0.042 -0.152 0.019 -0.184 -0.007 -0.183 -0.028 -0.182 -0.057 -0.169 -0.322 -0.349 -0.07 -0.067 -0.365 -0.202 -0.132 -0.067 -0.549 -0.145 -0.139 -0.029 -0.583 -0.067 -0.146 -0.014 -0.618 0.049 -0.2 0.052 -0.528 0.153 -0.317 0.26 -0.444 0.253 -0.273 0.311 -0.106 0.129 -0.268 0.46 -0.091 0.151 -0.171 0.547 -0.035 0.139 -0.067 0.447 -0.012 0.096 0.03 0.488 0.036 0.121 0.26 0.317 0.127 0.146 0.409 0.265 0.12 0.06 0.539 0.137 0.429 0.064 0.22 -0.002 0.673 -0.09 0.596 -0.317 0.23 -0.154 0.631 -0.587 0.26 -0.363 0.489 -0.572 0.263 -0.446 0.273 -0.674 0.23 -0.572 0.226 -0.699 0.211 -0.771 0.151 -0.692 0.044 -0.193 0.09 -0.509 0.04 -0.207 0.092 -0.599 0.024 -0.205 0.04 -0.605 0.008 -0.151 0.019 -0.609 0.005 -0.209 0.008 -0.612 0.002 -0.152 0.003 -0.473 0.001 -0.1 0.001 -0.218 0.001 -0.161 0.001 -0.164 0 -0.166 0 -0.052 0.001 -0.138 0.001 0.174 0 0.644 0 0.852 0 0.977 0 1.063 0 1.06 0.069 0.852 0.133 0.876 0.196 0.888 0.374 0.704 0.212 0.517 0.397 0.692 0.198 0.409 0.409 0.368 0.241 0.457 0.091 0.131 0.158 0.186 0.369 0.285 0.105 0.085 0.17 0.098 0.42 0.118 0.166 0.015 0.542 -0.076 0.371 -0.268 0.171 -0.151 0.367 -0.542 0.248 -0.417 0.211 -0.424 0.197 -0.442 0.161 -0.441 0.12 -0.445 0.032 -0.147 0.068 -0.531 0.016 -0.152 -0.008 -0.236 -0.028 -0.184 -0.029 -0.103 -0.065 -0.134 -0.08 -0.106 -0.059 -0.061 -0.091 -0.057 -0.259 0.09 -0.073 0.037 -0.166 0.302 -0.068 0.116 -0.146 0.607 -0.053 0.399 -0.011 0.428 0.015 0.444 0.08 0.475 0.091 0.23 0.422 0.789 0.109 0.169 0.433 0.572 0.114 0.129 0.377 0.285 0.144 0.106 0.415 0.217 0.136 0.056 0.197 0.061 0.211 0.037 0.181 0.003 0.255 -0.041 0.364 -0.234 0.162 -0.118 0.32 -0.405 0.126 -0.18 0.242 -0.535 0.095 -0.205 0.196 -0.573 0.05 -0.148 0.136 -0.586 0.039 -0.153 0.103 -0.529 0.024 -0.15 0.026 -0.212 0.016 -0.158 0.013 -0.161 -0.01 -0.193 -0.019 -0.108 -0.032 -0.102 -0.038 -0.081 -0.081 -0.09 -0.088 -0.039 -0.165 0.189 -0.062 0.079 -0.14 0.587 -0.054 0.489 -0.032 0.599 -0.018 0.691 -0.009 0.769 0.028 0.839 0.048 0.902 0.093 0.966 0.145 0.956 0.132 1.013 0.123 1.005 0.158 1.007 0.127 0.927 0.158 0.941 0.132 0.936 0.114 0.799 0.111 0.744 0.109 0.686 0.107 0.628 0.077 0.564 0.059 0.442 0.016 0.146 0.033 0.529 0.005 0.097 -0.012 0.137 -0.039 0.123 -0.064 0.098 -0.108 0.067 -0.349 0 -0.28 -0.265 -0.204 -0.313 -0.209 -0.432 -0.414 -0.675 -0.161 -0.571 -0.192 -0.757 -0.164 -0.894 -0.142 -0.959 -0.057 -1.015 -0.022 -1.078 -0.008 -1.137 -0.003 -1.196 0.083 -1.257 0.146 -1.174 0.367 -1.079 0.227 -1.022 0.438 -1.037 0.229 -0.817 0.461 -0.82 0.273 -0.635 0.472 -0.657 0.245 -0.4 0.549 -0.714 0.276 -0.457 0.441 -0.384 0.345 -0.48 0.437 -0.268 0.183 -0.145 0.412 -0.27 0.196 -0.159 0.402 -0.224 0.133 -0.058 0.191 -0.027 0.372 0.153 0.115 0.036 0.212 0.092 0.39 0.448 0.129 0.143 0.344 0.689 0.078 0.144 0.187 0.477 0.072 0.16 0.174 0.634 0.094 0.439 0.081 0.451 0.072 0.459 0.03 0.158 0.066 0.606 0.024 0.158 0.048 0.536 0.008 0.098 0.01 0.156 0.008 0.159 0.005 0.105 0.004 0.106 0.002 0.045 0.004 0.07 0.015 0.065 0.054 -0.088 0.023 -0.051 0.071 -0.322 0.034 -0.149 0.117 -0.574 0.056 -0.197 0.147 -0.628 0.064 -0.211 0.121 -0.575 0.051 -0.17 0.14 -0.523 0.031 -0.104 0.048 -0.156 0.067 -0.179 0.058 -0.159 0.042 -0.11 0.029 -0.067 0.05 -0.086 0.026 -0.039 0.061 -0.072 0.067 -0.057 0.114 -0.043 0.231 0.11 0.093 0.068 0.197 0.291 0.083 0.123 0.225 0.562 0.138 0.413 0.065 0.16 0.2 0.708 0.059 0.163 0.166 0.577 0.061 0.168 0.145 0.454 0.036 0.104 0.082 0.164 0.071 0.124 0.092 0.111 0.106 0.093 0.117 0.078 0.127 0.065 0.184 0.036 0.183 -0.011 0.351 -0.243 0.18 -0.128 0.3 -0.386 0.147 -0.192 0.247 -0.518 0.08 -0.154 0.164 -0.488 0.05 -0.148 0.065 -0.206 0.05 -0.207 0.039 -0.213 0.024 -0.158 0.014 -0.104 0.006 -0.051 0.006 -0.051 0.011 -0.081 0.014 -0.077 0.03 0.054 0.005 0.022 0.017 0.339 0.003 0.097 0.057 0.432 0.056 0.172 0.172 0.548 0.112 0.21 0.405 0.58 0.109 0.13 0.423 0.311 0.399 0.205 0.489 0.187 0.442 0.145 0.198 0.049 0.593 0.082 0.226 -0.004 0.614 -0.087 0.23 -0.086 0.335 -0.285 0.176 -0.171 0.317 -0.5 0.114 -0.191 0.208 -0.612 0.094 -0.493 0.028 -0.197 -0.006 -0.741 -0.084 -0.595 -0.289 -0.625 -0.18 -0.425 -0.562 -0.642 -0.418 -0.315 -0.56 -0.49 -0.5 -0.283 -0.541 -0.234 -0.547 -0.149 -0.564 -0.082 -0.451 0.006 -0.199 0.041 -0.752 0.462 -0.252 0.308 -0.248 0.437 -0.217 0.477 -0.184 0.553 -0.1 0.561 -0.047 0.44 -0.029 0.451 0.029 0.536 0.086 0.48 0.293 0.586 0.139 0.203 0.58 0.723 0.166 0.177 0.568 0.523 0.375 0.224 0.473 0.199 0.423 0.104 0.452 0.112 0.201 0.038 0.532 0.034 0.206 -0.028 0.473 -0.109 0.229 -0.103 0.33 -0.347 0.11 -0.126 0.263 -0.506 0.064 -0.134 0.154 -0.49 0.06 -0.201 0.09 -0.518 0.027 -0.205 0.038 -0.467 0.01 -0.154 -0.012 -0.186 -0.032 -0.185 -0.049 -0.183 -0.062 -0.182 -0.047 -0.102 -0.05 -0.081 -0.065 -0.076 -0.087 -0.041 -0.151 0.146 -0.035 0.062 -0.081 0.405 -0.038 0.367 -0.001 0.134 0.062 0.764 0.091 0.444 0.125 0.455 0.174 0.477 0.124 0.221 0.441 0.653 0.098 0.145 0.165 0.201 0.463 0.515 0.108 0.088 0.141 0.11 0.4 0.174 0.087 0.032 0.148 0.034 0.172 0.009 0.246 -0.035 0.383 -0.271 0.152 -0.119 0.295 -0.455 0.183 -0.394 0.076 -0.186 0.19 -0.639 0.109 -0.502 0.088 -0.514 0.047 -0.451 0.029 -0.458 0.018 -0.463 0.005 -0.153 0.011 -0.544 0.002 -0.155 0.002 -0.158 0.002 -0.161 0.001 -0.164 0 -0.052 0.008 -0.091 0.034 -0.09 0.1 0.035 0.074 0.051 0.214 0.405 0.089 0.133 0.253 0.607 0.176 0.469 0.176 0.495 0.176 0.51 0.177 0.518 0.163 0.46 0.141 0.452 0.089 0.199 0.166 0.576 0.05 0.127 0.075 0.168 0.142 0.447 0.017 0.042 0.019 0.04 0.021 0.037 0.039 0.055 0.063 0.045 0.152 -0.127 0.059 -0.09 0.123 -0.408 0.087 -0.428 0.075 -0.47 0.094 -0.501 0.104 -0.513 0.097 -0.65 0.094 -0.519 0.071 -0.45 0.067 -0.458 0.049 -0.597 0.01 -0.149 0.024 -0.677 0.006 -0.205 0.003 -0.154 0.002 -0.101 0.001 -0.05 0.001 -0.05 0.009 -0.088 0.015 -0.062 0.08 0.097 0.079 0.222 0.119 0.326 0.116 0.373 0.127 0.472 0.151 0.507 0.144 0.571 0.105 0.573 0.112 0.586 0.087 0.581 0.069 0.516 0.059 0.455 0.059 0.461 0.026 0.159 0.078 0.54 0.021 0.109 0.016 0.099 0.011 0.045 0.014 0.043 0.016 0.04 0.019 0.038 0.062 0.077 0.078 0.03 0.154 -0.214 0.094 -0.128 0.176 -0.434 0.155 -0.394 0.177 -0.485 0.177 -0.504 0.177 -0.515 0.148 -0.51 0.135 -0.518 0.093 -0.45 0.046 -0.21 0.101 -0.604 0.02 -0.15 0.039 -0.468 0.007 -0.1 0.009 -0.158 0.003 -0.05 0.003 -0.05 0.006 -0.048 0.019 -0.082 0.033 -0.069 0.083 0.05 0.049 0.049 0.146 0.36 0.114 0.349 0.091 0.389 0.121 0.555 0.111 0.504 0.114 0.515 0.089 0.514 0.094 0.462 0.079 0.457 0.047 0.178 0.144 0.605 0.029 0.105 0.062 0.177 0.054 0.157 0.059 0.136 0.068 0.133 0.089 0.119 0.064 0.068 0.132 0.082 0.188 0.029 0.286 -0.153 0.172 -0.105 0.346 -0.42 0.256 -0.387 0.171 -0.225 0.518 -0.729 0.194 -0.391 0.193 -0.433 0.233 -0.525 0.203 -0.512 0.114 -0.235 0.204 -0.575 0.052 -0.149 0.118 -0.452 0.031 -0.106 0.048 -0.158 0.05 -0.162 0.024 -0.068 0.019 -0.045 0.046 -0.076 0.066 -0.062 0.121 0.063 0.044 0.048 0.096 0.365 0.068 0.35 0.042 0.393 0.048 0.425 0.03 0.44 0.041 0.454 0.025 0.457 0.017 0.159 0.068 0.681 0.023 0.156 0.064 0.467 0.009 0.044 0.036 0.153 0.029 0.107 0.05 0.134 0.019 0.042 0.021 0.04 0.058 0.074 0.08 0.06 0.118 0.013 0.201 -0.244 0.249 -0.302" />
    <path class="write-stroke-pen" fill="none" stroke="#FFA200" stroke-width="1" stroke-linecap="butt" stroke-linejoin="miter" __comx="135.486" __comy="31.445" __timestamp="0x18177552a70" d="M134.843 24.796 l0 -0.003 0 -0.007 -0.013 -0.012 -0.025 -0.011 -0.035 -0.009 -0.031 0.005 -0.023 0.019 0.028 0.248 0.244 0.229 0.668 0.693 0.153 0.141 0.447 0.413" />
    <path class="write-stroke-pen" fill="none" stroke="#FFA200" stroke-width="1" stroke-linecap="butt" stroke-linejoin="miter" __comx="146.342" __comy="31.445" __timestamp="0x18177552bee" d="M147.435 31.268 l0 -0.003 0 -0.019 0 -0.03 0 -0.068 0 -0.085 0 -0.1 -0.022 -0.133 -0.041 -0.141 -0.055 -0.148 -0.091 -0.177 -0.084 -0.116 -0.339 -0.264 -0.082 -0.059 -0.458 -0.198 -0.141 -0.058 -0.5 -0.116 -0.144 -0.027 -0.595 -0.062 -0.203 0.022 -0.666 0.124 -0.345 0.237 -0.384 0.185 -0.282 0.295 -0.139 0.143 -0.274 0.493 -0.086 0.148 -0.174 0.608 -0.072 0.427 -0.01 0.151 0.065 0.746 0.121 0.478 0.301 0.371 0.444 0.52 0.346 0.239 0.525 0.257 0.583 0.393 0.513 0.169 0.547 0.094 0.565 0.052 0.645 0.031 0.509 0.014 0.527 -0.041 0.539 -0.1 0.795 -0.071 0.447 -0.069 0.716 -0.111" />
    <path class="write-stroke-pen" fill="none" stroke="#FFA200" stroke-width="1" stroke-linecap="butt" stroke-linejoin="miter" __comx="153.802" __comy="31.445" __timestamp="0x18177552d8f" d="M155.848 29.032 l-0.013 0 -0.025 0 -0.061 0 -0.082 -0.034 -0.089 -0.034 -0.135 -0.076 -0.144 -0.098 -0.175 -0.148 -0.152 -0.135 -0.136 -0.113 -0.395 -0.203 -0.085 -0.037 -0.139 -0.048 -0.471 -0.029 -0.16 0.025 -0.454 0.112 -0.34 0.293 -0.105 0.066 -0.39 0.177 -0.114 0.061 -0.178 0.114 -0.318 0.345 -0.127 0.123 -0.125 0.134 -0.124 0.142 -0.085 0.126 -0.165 0.421 -0.03 0.168 0.01 0.158 0.239 0.329 0.131 0.133 0.516 0.211 0.399 0.134 0.546 0.096 0.498 0.049 0.52 0.079 0.515 0.045 0.53 0.076 0.204 0.022 0.674 0.04 0.466 0.062 0.176 0.041 0.227 0.068 0.178 0.066 0.178 0.076 0.166 0.095 0.129 0.098 0.102 0.106 0.086 0.118 0.059 0.174 -0.103 0.312 -0.053 0.125 -0.315 0.271 -0.117 0.094 -0.615 0.264 -0.407 0.142 -0.495 0.145 -0.567 0.089 -0.518 0.096 -0.651 0.063 -0.512 0.029 -0.588 0.018 -0.519 0.009 -0.459 -0.017 -0.158 -0.015 -0.615 -0.086 -0.133 -0.034 -0.733 -0.188" />
  </g>
</svg>
