<svg class="write-page" color-interpolation="linearRGB" width="1660px" height="900px" xmlns="http://www.w3.org/2000/svg" xmlns:xlink="http://www.w3.org/1999/xlink">
  <g class="write-content write-v3" width="1660" height="900" xruling="20" yruling="20" marginLeft="20" papercolor="#111625" rulecolor="#1F0000FF">
    <g class="ruleline write-std-ruling write-scale-down" fill="none" stroke="#0000FF" stroke-opacity="0.122" stroke-width="1" shape-rendering="crispEdges" vector-effect="non-scaling-stroke">
      <rect class="pagerect" fill="#111625" stroke="none" x="0" y="0" width="1660" height="900" />
      <path class="yrule_1" d="M0 20 l1660 0" />
      <path d="M0 40 l1660 0" />
      <path d="M0 60 l1660 0" />
      <path d="M0 80 l1660 0" />
      <path d="M0 100 l1660 0" />
      <path d="M0 120 l1660 0" />
      <path d="M0 140 l1660 0" />
      <path d="M0 160 l1660 0" />
      <path d="M0 180 l1660 0" />
      <path d="M0 200 l1660 0" />
      <path d="M0 220 l1660 0" />
      <path d="M0 240 l1660 0" />
      <path d="M0 260 l1660 0" />
      <path d="M0 280 l1660 0" />
      <path d="M0 300 l1660 0" />
      <path d="M0 320 l1660 0" />
      <path d="M0 340 l1660 0" />
      <path d="M0 360 l1660 0" />
      <path d="M0 380 l1660 0" />
      <path d="M0 400 l1660 0" />
      <path d="M0 420 l1660 0" />
      <path d="M0 440 l1660 0" />
      <path d="M0 460 l1660 0" />
      <path d="M0 480 l1660 0" />
      <path d="M0 500 l1660 0" />
      <path d="M0 520 l1660 0" />
      <path d="M0 540 l1660 0" />
      <path d="M0 560 l1660 0" />
      <path d="M0 580 l1660 0" />
      <path d="M0 600 l1660 0" />
      <path d="M0 620 l1660 0" />
      <path d="M0 640 l1660 0" />
      <path d="M0 660 l1660 0" />
      <path d="M0 680 l1660 0" />
      <path d="M0 700 l1660 0" />
      <path d="M0 720 l1660 0" />
      <path d="M0 740 l1660 0" />
      <path d="M0 760 l1660 0" />
      <path d="M0 780 l1660 0" />
      <path d="M0 800 l1660 0" />
      <path d="M0 820 l1660 0" />
      <path d="M0 840 l1660 0" />
      <path d="M0 860 l1660 0" />
      <path d="M0 880 l1660 0" />
      <path class="xrule_1" d="M20 0 l0 900" />
      <path d="M40 0 l0 900" />
      <path d="M60 0 l0 900" />
      <path d="M80 0 l0 900" />
      <path d="M100 0 l0 900" />
      <path d="M120 0 l0 900" />
      <path d="M140 0 l0 900" />
      <path d="M160 0 l0 900" />
      <path d="M180 0 l0 900" />
      <path d="M200 0 l0 900" />
      <path d="M220 0 l0 900" />
      <path d="M240 0 l0 900" />
      <path d="M260 0 l0 900" />
      <path d="M280 0 l0 900" />
      <path d="M300 0 l0 900" />
      <path d="M320 0 l0 900" />
      <path d="M340 0 l0 900" />
      <path d="M360 0 l0 900" />
      <path d="M380 0 l0 900" />
      <path d="M400 0 l0 900" />
      <path d="M420 0 l0 900" />
      <path d="M440 0 l0 900" />
      <path d="M460 0 l0 900" />
      <path d="M480 0 l0 900" />
      <path d="M500 0 l0 900" />
      <path d="M520 0 l0 900" />
      <path d="M540 0 l0 900" />
      <path d="M560 0 l0 900" />
      <path d="M580 0 l0 900" />
      <path d="M600 0 l0 900" />
      <path d="M620 0 l0 900" />
      <path d="M640 0 l0 900" />
      <path d="M660 0 l0 900" />
      <path d="M680 0 l0 900" />
      <path d="M700 0 l0 900" />
      <path d="M720 0 l0 900" />
      <path d="M740 0 l0 900" />
      <path d="M760 0 l0 900" />
      <path d="M780 0 l0 900" />
      <path d="M800 0 l0 900" />
      <path d="M820 0 l0 900" />
      <path d="M840 0 l0 900" />
      <path d="M860 0 l0 900" />
      <path d="M880 0 l0 900" />
      <path d="M900 0 l0 900" />
      <path d="M920 0 l0 900" />
      <path d="M940 0 l0 900" />
      <path d="M960 0 l0 900" />
      <path d="M980 0 l0 900" />
      <path d="M1000 0 l0 900" />
      <path d="M1020 0 l0 900" />
      <path d="M1040 0 l0 900" />
      <path d="M1060 0 l0 900" />
      <path d="M1080 0 l0 900" />
      <path d="M1100 0 l0 900" />
      <path d="M1120 0 l0 900" />
      <path d="M1140 0 l0 900" />
      <path d="M1160 0 l0 900" />
      <path d="M1180 0 l0 900" />
      <path d="M1200 0 l0 900" />
      <path d="M1220 0 l0 900" />
      <path d="M1240 0 l0 900" />
      <path d="M1260 0 l0 900" />
      <path d="M1280 0 l0 900" />
      <path d="M1300 0 l0 900" />
      <path d="M1320 0 l0 900" />
      <path d="M1340 0 l0 900" />
      <path d="M1360 0 l0 900" />
      <path d="M1380 0 l0 900" />
      <path d="M1400 0 l0 900" />
      <path d="M1420 0 l0 900" />
      <path d="M1440 0 l0 900" />
      <path d="M1460 0 l0 900" />
      <path d="M1480 0 l0 900" />
      <path d="M1500 0 l0 900" />
      <path d="M1520 0 l0 900" />
      <path d="M1540 0 l0 900" />
      <path d="M1560 0 l0 900" />
      <path d="M1580 0 l0 900" />
      <path d="M1600 0 l0 900" />
      <path d="M1620 0 l0 900" />
      <path d="M1640 0 l0 900" />
      <path class="leftmargin" stroke="#FF0000" d="M20 0 l0 900" />
    </g>
    <path class="write-stroke-pen" fill="none" stroke="#FFA200" stroke-width="2.4" stroke-linecap="round" stroke-linejoin="round" __comx="66.838" __comy="105.781" __timestamp="0x187b93fb916" d="M67.489 103.736 l0.003 0 0.005 0 0.016 0.012 0.009 0.005 0.025 0.021 0.028 0.03 0.041 0.06 0.022 0.043 0.02 0.049 0.018 0.054 0.023 0.093 0.049 0.372 0.011 0.109 0.028 0.516 -0.029 0.468 -0.062 0.524 -0.087 0.633 -0.099 0.736 -0.104 0.833 -0.098 0.812 -0.137 0.98 -0.11 1.007 -0.132 0.997 -0.142 1.048 -0.104 0.979 -0.131 0.989 -0.099 0.872 -0.128 0.89 -0.098 0.777 -0.089 0.68 -0.033 0.58 -0.059 0.493 -0.024 0.34 -0.006 0.114 -0.005 0.119 -0.023 0.145 -0.016 0.076 -0.039 -0.059 -0.016 -0.166 -0.013 -0.378 -0.014 -0.415" />
    <path class="write-stroke-pen" fill="none" stroke="#FFA200" stroke-width="2.4" stroke-linecap="round" stroke-linejoin="round" __comx="67.518" __comy="100.766" __timestamp="0x187b93fba5b" d="M59.487 101.665 l0.003 0 0.015 0 0.043 0 0.059 0 0.256 0 0.129 0 0.532 0 0.494 0 0.561 0 0.734 0 0.775 0 0.877 0 0.918 -0.064 0.959 -0.086 0.95 -0.125 1.001 -0.14 0.935 -0.137 0.996 -0.143 0.929 -0.073 0.94 -0.088 1.573 -0.112 1.083 -0.052 0.619 -0.037 0.093 -0.004 0.323 -0.008 0.072 0.01 0.069 0.02 0.054 0.026 0.071 0.057 -0.006 0.406 -0.015 0.07 -0.084 0.385" />
    <path class="write-stroke-pen" fill="none" stroke="#FFA200" stroke-width="2.4" stroke-linecap="round" stroke-linejoin="round" __comx="95.054" __comy="111.939" __timestamp="0x187b93fc281" d="M71.066 118.515 l0 -0.003 0.006 -0.017 0.04 -0.058 0.055 -0.091 0.138 -0.31 0.268 -0.265 0.278 -0.474 0.408 -0.508 0.897 -1.149 0.74 -1.09 0.609 -0.965 0.413 -0.742 0.34 -0.572 0.232 -0.554 0.436 -0.626 0.371 -0.546 0.205 -0.366 0.347 -0.428 0.122 -0.154 0.356 -0.402 0.058 -0.058 0.106 -0.097 0.1 -0.078 0.065 -0.042 0.032 -0.019 0.099 -0.03 0.198 0.114 0.107 0.202 0.067 0.268 0.007 0.364 -0.038 0.44 -0.068 0.508 -0.105 0.52 -0.098 0.512 -0.14 0.688 -0.108 0.61 -0.049 0.606 -0.077 0.67 -0.028 0.493 -0.014 0.45 -0.007 0.405 -0.004 0.359 0.007 0.125 0.08 0.498 0.181 0.262 0.111 0.119 0.378 0.22 0.097 0.043 0.487 0.107 0.344 0.027 0.424 -0.042 0.503 -0.219 0.354 -0.164 0.511 -0.387 0.446 -0.392 0.241 -0.298 0.491 -0.484 0.248 -0.349 0.419 -0.545 0.226 -0.457 0.199 -0.445 0.182 -0.408 0.082 -0.146 0.185 -0.401 0.052 -0.097 0.073 -0.129 0.061 -0.117 0.033 -0.074 0.015 -0.036 0.014 -0.037 0.026 -0.057 0.022 -0.061 0.015 -0.019 -0.008 0.168 -0.001 0.056 -0.004 0.433 -0.041 0.354 -0.025 0.428 -0.014 0.447 -0.007 0.351 0.035 0.422 0.075 0.38 0.057 0.16 0.317 0.596 0.076 0.111 0.32 0.261 0.225 0.287 0.362 0.195 0.319 0.13 0.162 0.07 0.448 0.103 0.113 0.021 0.418 0.025 0.14 -0.011 0.222 -0.067 0.456 -0.265 0.138 -0.093 0.306 -0.414 0.208 -0.331 0.215 -0.397 0.215 -0.553 0.167 -0.506 0.121 -0.451 0.093 -0.51 0.038 -0.35 0.013 -0.162 0.025 -0.595 0.009 -0.359 -0.03 -0.374 -0.075 -0.386 -0.201 -0.319 -0.161 -0.37 -0.237 -0.259 -0.106 -0.135 -0.28 -0.209 -0.1 -0.065 -0.427 -0.141 -0.109 -0.028 -0.516 -0.07 -0.459 0.146 -0.34 0.117 -0.494 0.383 -0.215 0.272 -0.494 0.518 -0.227 0.386 -0.341 0.49 -0.203 0.511 -0.173 0.545 -0.165 0.61 -0.145 0.556 -0.11 0.5 -0.053 0.448 -0.027 0.404 0.003 0.414 0.032 0.161 0.142 0.488 0.244 0.27 0.134 0.132 0.439 0.231 0.419 0.11 0.496 0.066 0.506 0.034 0.525 -0.051 0.588 -0.237 0.436 -0.153 0.574 -0.407 0.482 -0.391 0.418 -0.356 0.414 -0.432 0.41 -0.497 0.274 -0.509 0.407 -0.65 0.21 -0.511 0.144 -0.385 0.143 -0.402 0.131 -0.361 0.114 -0.357 0.049 -0.164 0.101 -0.476 0.02 -0.118 0.017 -0.122 -0.001 -0.111 -0.015 -0.109 -0.02 -0.067 -0.028 -0.059 -0.059 -0.077 -0.099 -0.057 -0.368 0.113 -0.058 0.041 -0.202 0.313 -0.162 0.339 -0.153 0.375 -0.159 0.446 -0.17 0.564 -0.155 0.564 -0.122 0.558 -0.114 0.617 -0.046 0.498 -0.023 0.453 -0.013 0.461 0.005 0.122 0.082 0.544 0.05 0.157 0.07 0.153 0.303 0.446 0.075 0.076 0.333 0.163 0.1 0.038 0.387 0.08 0.154 -0.006 0.413 -0.069 0.326 -0.227 0.416 -0.224 0.328 -0.384 0.438 -0.443 0.259 -0.393 0.431 -0.517 0.287 -0.556 0.373 -0.551 0.22 -0.51 0.333 -0.595 0.179 -0.421 0.176 -0.404 0.169 -0.365 0.177 -0.37 0.088 -0.149 0.134 -0.341 0.046 -0.119 0.025 -0.075 0.022 -0.077 0.01 -0.038 0.014 -0.093 -0.014 -0.007 -0.036 0.029 -0.123 0.263 -0.113 0.271 -0.103 0.304 -0.108 0.381 -0.125 0.559 -0.061 0.557 -0.03 0.561 -0.063 0.568 -0.029 0.506 -0.013 0.403 -0.008 0.411 0.014 0.365 0.036 0.164 0.123 0.481 0.077 0.153 0.243 0.232 0.092 0.098 0.288 0.156 0.1 0.042 0.388 0.089 0.19 -0.003 0.591 -0.213 0.351 -0.148 0.468 -0.362 0.402 -0.379 0.389 -0.401 0.249 -0.358 0.42 -0.551 0.226 -0.459 0.374 -0.566 0.183 -0.458 0.134 -0.343 0.161 -0.369 0.147 -0.359 0.081 -0.153 0.196 -0.463 0.047 -0.117 0.047 -0.121 0.037 -0.118 0.021 -0.079 0.01 -0.039 0.008 -0.071 -0.005 -0.072 -0.023 -0.05 -0.087 0.118 -0.017 0.046 -0.088 0.365 -0.073 0.295 -0.088 0.375 -0.104 0.501 -0.053 0.503 -0.028 0.51 -0.015 0.514 -0.007 0.406 -0.004 0.36 -0.002 0.42 -0.001 0.12 0.02 0.488 0.032 0.134 0.061 0.156 0.103 0.176 0.124 0.167 0.278 0.184 0.098 0.049 0.382 0.105 0.17 0.013 0.539 -0.072 0.447 -0.218 0.413 -0.295 0.395 -0.335 0.444 -0.41 0.41 -0.444 0.408 -0.503 0.469 -0.541 0.43 -0.513 0.373 -0.457 0.29 -0.243 0.274 -0.425 0.312 -0.278 0.231 -0.333 0.313 -0.251 0.124 -0.105 0.128 -0.113 0.312 -0.169 0.045 -0.026 0.106 -0.048 0.072 -0.028 0.128 -0.016 0.286 0.183 0.067 0.062 0.179 0.392 0.074 0.302 0.02 0.104 0.058 0.673 0.021 0.497 0.01 0.452 0.007 0.572 -0.037 0.411 -0.056 0.364 -0.091 0.379 -0.062 0.159 -0.328 0.595 -0.139 0.331 -0.237 0.265 -0.199 0.309 -0.305 0.238 -0.079 0.065 -0.322 0.198 -0.065 0.034 -0.107 0.044 -0.403 0.093 -0.083 0.011 -0.105 -0.003 -0.121 -0.043 -0.171 -0.202 -0.046 -0.077 -0.039 -0.307 0.125 -0.241 0.132 -0.295 0.267 -0.253 0.256 -0.38 0.402 -0.308 0.437 -0.387 0.501 -0.399 0.571 -0.439 0.628 -0.483 0.679 -0.529 0.666 -0.522 0.735 -0.466 0.747 -0.438 0.762 -0.467 0.756 -0.469 0.717 -0.498 0.747 -0.484 0.714 -0.503 0.648 -0.461 0.562 -0.441 0.461 -0.392 0.409 -0.356 0.213 -0.285 0.38 -0.413 0.157 -0.293 0.116 -0.325 0.051 -0.156 0.089 -0.517 0.016 -0.115 -0.027 -0.489 -0.161 -0.284 -0.153 -0.32 -0.318 -0.264 -0.117 -0.102 -0.405 -0.23 -0.118 -0.07 -0.541 -0.174 -0.108 -0.027 -0.569 -0.072 -0.113 -0.011 -0.484 0.038 -0.255 0.162 -0.122 0.088 -0.46 0.502 -0.129 0.282 -0.174 0.483 -0.133 0.493 -0.134 0.671 -0.058 0.66 -0.028 0.774 -0.011 0.819 -0.004 0.923 -0.002 1.077 0 1.104 0 1.26 0 1.345 0 1.436 0 1.528 0 1.565 -0.083 1.722 -0.133 1.644 -0.139 1.592 -0.382 1.505 -0.13 1.377 -0.335 1.367 -0.165 1.182 -0.365 1.131 -0.141 0.931 -0.341 0.903 -0.173 0.692 -0.332 0.68 -0.156 0.404 -0.285 0.457 -0.071 0.112 -0.097 0.136 -0.107 0.137 -0.283 0.181 -0.027 0.015 -0.125 0.012 -0.197 -0.228 -0.119 -0.241 -0.085 -0.381 -0.047 -0.421 -0.028 -0.497 -0.017 -0.619 -0.008 -0.615 0.018 -0.449 0.035 -0.569 0.034 -0.552" />
    <path class="write-stroke-pen" fill="none" stroke="#FFA200" stroke-width="2.4" stroke-linecap="round" stroke-linejoin="round" __comx="127.483" __comy="114.676" __timestamp="0x187b93fc91a" d="M110.04 117.668 l0.003 0 0.007 -0.004 0.01 -0.007 0.026 -0.016 0.053 -0.018 0.1 -0.031 0.28 -0.06 0.316 -0.055 0.396 -0.077 0.468 -0.114 0.523 -0.135 0.52 -0.138 0.637 -0.183 0.671 -0.165 0.767 -0.317 0.684 -0.193 0.703 -0.192 0.706 -0.345 0.564 -0.19 0.493 -0.173 0.454 -0.17 0.412 -0.167 0.482 -0.299 0.141 -0.073 0.393 -0.15 0.098 -0.046 0.078 -0.037 0.048 -0.025 0.034 -0.016 0.053 -0.03 0.05 -0.023 0.028 -0.005 0.009 0.01 -0.007 0.023 -0.02 0.034 -0.056 0.073 -0.055 0.076 -0.063 0.089 -0.151 0.334 -0.023 0.062 -0.07 0.328 -0.019 0.111 -0.037 0.357 -0.01 0.119 -0.019 0.373 -0.004 0.079 -0.011 0.38 0.004 0.089 0.037 0.172 0.13 0.402 0.217 0.259 0.093 0.097 0.297 0.195 0.118 0.078 0.431 0.146 0.168 0.064 0.458 0.094 0.159 0.025 0.476 0.041 0.169 0.001 0.444 -0.059 0.221 -0.076 0.433 -0.167 0.274 -0.233 0.314 -0.197 0.26 -0.348 0.116 -0.156 0.221 -0.425 0.102 -0.176 0.155 -0.439 0.09 -0.348 0.056 -0.357 0.019 -0.164 -0.035 -0.611 -0.069 -0.374 -0.268 -0.482 -0.102 -0.167 -0.361 -0.318 -0.14 -0.14 -0.453 -0.268 -0.336 -0.167 -0.125 -0.067 -0.501 -0.158 -0.117 -0.037 -0.464 -0.081 -0.116 -0.016 -0.493 0.026 -0.285 0.161 -0.128 0.086 -0.529 0.553 -0.184 0.328 -0.134 0.32 -0.119 0.342 -0.054 0.132 -0.166 0.573 -0.065 0.4 -0.035 0.356 -0.024 0.418 -0.013 0.366 0.01 0.372 0.035 0.167 0.129 0.54 0.082 0.18 0.313 0.482 0.085 0.107 0.291 0.235 0.112 0.087 0.327 0.178 0.108 0.046 0.351 0.089 0.123 0.017 0.439 -0.024 0.317 -0.167 0.377 -0.164 0.345 -0.367 0.477 -0.411 0.428 -0.4 0.386 -0.397 0.452 -0.512 0.398 -0.501 0.386 -0.51 0.41 -0.609 0.376 -0.563 0.234 -0.467 0.387 -0.489 0.13 -0.139 0.423 -0.438 0.115 -0.118 0.355 -0.238 0.136 -0.102 0.17 -0.127 0.148 -0.09 0.11 -0.053 0.115 -0.045 0.119 -0.037 0.145 -0.019 0.167 0.013 0.284 0.231 0.085 0.082 0.168 0.318 0.118 0.362 0.089 0.387 0.056 0.454 0.036 0.573 0.014 0.404 0.008 0.412 0.005 0.417 -0.036 0.427 -0.061 0.426 -0.035 0.417 -0.06 0.428 -0.031 0.364 -0.008 0.121 -0.019 0.488 -0.003 0.078 0.01 0.378 0.008 0.088 0.038 0.138 0.057 0.13 0.09 0.115 0.111 0.091 0.3 0.112 0.14 0.009 0.466 -0.174 0.131 -0.069 0.555 -0.377 0.251 -0.272 0.485 -0.424 0.257 -0.338 0.479 -0.484 0.244 -0.349 0.387 -0.458 0.224 -0.404 0.363 -0.475 0.161 -0.308 0.183 -0.443 0.153 -0.404 0.137 -0.363 0.055 -0.16 0.053 -0.166 0.052 -0.171 0.031 -0.124 0.018 -0.082 0.008 -0.04 0.004 -0.073 -0.009 -0.076 -0.042 -0.061 -0.142 0.148 -0.064 0.065 -0.357 0.499 -0.117 0.41 -0.115 0.374 -0.136 0.446 -0.138 0.457 -0.099 0.352 -0.065 0.406 -0.035 0.36 -0.009 0.12 -0.025 0.6 0.013 0.139 0.078 0.381 0.071 0.157 0.242 0.261 0.098 0.095 0.304 0.19 0.102 0.049 0.391 0.105 0.354 0.039 0.379 -0.03 0.486 -0.239 0.393 -0.185 0.465 -0.374 0.384 -0.345 0.261 -0.347 0.439 -0.473 0.243 -0.359 0.427 -0.482 0.212 -0.352 0.321 -0.412 0.209 -0.459 0.168 -0.443 0.145 -0.404 0.111 -0.353 0.038 -0.12 0.04 -0.123 0.052 -0.171 0.031 -0.123 0.026 -0.126 0.008 -0.04 0.003 -0.073 -0.007 -0.065 -0.029 -0.073 -0.084 0.026 -0.061 0.04 -0.149 0.318 -0.115 0.367 -0.129 0.421 -0.119 0.489 -0.123 0.457 -0.108 0.455 -0.058 0.456 -0.032 0.462 -0.017 0.411 -0.009 0.363 -0.006 0.368 -0.002 0.122 0.018 0.492 0.018 0.108 0.053 0.163 0.072 0.158 0.093 0.117 0.273 0.165 0.061 0.031 0.326 0.075 0.15 -0.004 0.547 -0.239 0.339 -0.158 0.477 -0.411 0.372 -0.346 0.431 -0.416 0.27 -0.396 0.438 -0.519 0.22 -0.399 0.364 -0.592 0.202 -0.47 0.162 -0.442 0.152 -0.455 0.071 -0.15 0.144 -0.398 0.042 -0.118 0.043 -0.122 0.044 -0.164 0.027 -0.123 0.005 -0.084 -0.007 -0.08 -0.016 -0.063 -0.043 -0.082 -0.061 -0.054 -0.171 0.084 -0.071 0.039 -0.228 0.378 -0.162 0.378 -0.153 0.421 -0.124 0.436 -0.11 0.452 -0.103 0.46 -0.052 0.404 -0.033 0.467 -0.017 0.414 -0.009 0.364 -0.002 0.121 0.016 0.546 0.008 0.085 0.078 0.388 0.033 0.106 0.053 0.138 0.061 0.139 0.088 0.161 0.062 0.102 0.078 0.091 0.137 0.131 0.061 0.048 0.489 0.385" />
    <path class="write-stroke-pen" fill="none" stroke="#FFA200" stroke-width="2.4" stroke-linecap="round" stroke-linejoin="round" __comx="152.591" __comy="112.904" __timestamp="0x187b93fcb22" d="M156.498 112.773 l0 -0.003 0 -0.015 -0.018 -0.051 -0.048 -0.078 -0.21 -0.143 -0.082 -0.071 -0.279 -0.151 -0.083 -0.052 -0.315 -0.125 -0.112 -0.043 -0.455 -0.115 -0.353 -0.054 -0.118 -0.014 -0.595 -0.038 -0.117 -0.006 -0.541 0.031 -0.16 0.038 -0.528 0.135 -0.153 0.062 -0.412 0.155 -0.248 0.224 -0.298 0.174 -0.179 0.246 -0.06 0.077 -0.178 0.356 -0.052 0.09 -0.047 0.103 -0.039 0.11 -0.033 0.115 -0.047 0.367 0.01 0.098 0.043 0.143 0.241 0.251 0.091 0.085 0.393 0.229 0.151 0.084 0.491 0.18 0.339 0.073 0.362 0.083 0.367 0.087 0.381 0.111 0.379 0.123 0.196 0.084 0.506 0.316 0.121 0.077 0.178 0.119 0.355 0.193 0.223 0.254 0.071 0.079 0.074 0.098 0.155 0.322 0.028 0.069 0.037 0.113 0.031 0.117 0.007 0.389 -0.021 0.096 -0.228 0.274 -0.076 0.097 -0.319 0.236 -0.126 0.101 -0.515 0.23 -0.334 0.121 -0.394 0.08 -0.46 0.051 -0.357 0.024 -0.418 0.016 -0.491 -0.054 -0.378 -0.081 -0.555 -0.265 -0.392 -0.161 -0.438 -0.288 -0.332 -0.176 -0.298 -0.34 -0.341 -0.259 -0.221 -0.315 -0.099 -0.128 -0.039 -0.061 -0.1 -0.138 -0.352 -0.488" />
    <path class="write-stroke-pen" fill="none" stroke="#FFA200" stroke-width="1.6" stroke-linecap="round" stroke-linejoin="round" __comx="89.759" __comy="173.824" __timestamp="0x187b9400192" d="M88.858 172.032 l0 -0.003 0 -0.005 0 -0.008 0 -0.01 0 -0.012 0 -0.014 0.004 -0.022 0.002 -0.017 0.002 -0.019 0.007 -0.029 0.013 -0.031 0.007 -0.007 0.018 0.014 0.017 0.02 0.028 0.048 0.031 0.064 0.034 0.077 0.05 0.099 0.078 0.124 0.056 0.081 0.087 0.104 0.082 0.071 0.058 0.041 0.098 0.053 0.105 0.044 0.111 0.037 0.102 0.015 0.156 -0.013 0.123 -0.036 0.142 -0.078 0.196 -0.241 0.063 -0.091 0.116 -0.309 0.031 -0.106 0.06 -0.348 0.016 -0.116 0.032 -0.368 -0.008 -0.144 -0.039 -0.166 -0.061 -0.16 -0.079 -0.156 -0.259 -0.273 -0.075 -0.079 -0.094 -0.082 -0.115 -0.094 -0.326 -0.169 -0.07 -0.031 -0.114 -0.04 -0.118 -0.033 -0.166 -0.007 -0.161 0.026 -0.126 0.044 -0.289 0.261 -0.074 0.068 -0.21 0.335 -0.074 0.116 -0.117 0.325 -0.032 0.11 -0.067 0.409 -0.016 0.118 -0.033 0.425 0 0.127 0.018 0.146 0.086 0.393 0.052 0.133 0.095 0.152 0.273 0.255 0.098 0.102 0.154 0.146 0.317 0.2 0.105 0.052 0.154 0.056 0.359 0.08 0.077 0.015 0.122 0.019 0.177 0.011 0.2 -0.038 0.185 -0.076 0.174 -0.105 0.12 -0.106 0.182 -0.289 0.049 -0.1 0.095 -0.335 0.025 -0.113 0.015 -0.37 -0.014 -0.14 -0.035 -0.181 -0.088 -0.429 -0.05 -0.132 -0.09 -0.19 -0.16 -0.368 -0.066 -0.104 -0.268 -0.231 -0.08 -0.071 -0.099 -0.075 -0.325 -0.156 -0.07 -0.029 -0.073 -0.025 -0.117 -0.033 -0.388 -0.011 -0.096 0.02 -0.253 0.19 -0.101 0.074 -0.218 0.308 -0.061 0.08 -0.082 0.111 -0.155 0.419 -0.031 0.107 -0.072 0.457 -0.015 0.115 -0.031 0.419 0 0.086 0.037 0.379 0.038 0.134 0.067 0.156 0.149 0.367 0.087 0.118 0.132 0.149 0.293 0.204 0.117 0.08 0.143 0.071 0.396 0.11 0.073 0.018 0.167 0.02 0.203 -0.017 0.162 -0.042 0.311 -0.215 0.131 -0.1 0.238 -0.288 0.129 -0.16 0.175 -0.369 0.112 -0.34 0.05 -0.161 0.081 -0.471 0.038 -0.362 0.013 -0.166 -0.019 -0.439 -0.037 -0.166 -0.116 -0.431 -0.065 -0.159 -0.249 -0.306 -0.105 -0.146 -0.286 -0.247 -0.111 -0.09 -0.374 -0.199 -0.076 -0.04 -0.343 -0.107 -0.074 -0.02 -0.14 -0.012 -0.162 0.02 -0.375 0.083 -0.255 0.266 -0.102 0.105 -0.189 0.332 -0.055 0.085 -0.166 0.374 -0.037 0.107 -0.079 0.402 -0.013 0.074 -0.038 0.365 -0.002 0.086 0.028 0.167 0.099 0.589" />
    <path class="write-stroke-pen" fill="none" stroke="#FFA200" stroke-width="2.4" stroke-linecap="round" stroke-linejoin="round" __comx="128.074" __comy="173.148" __timestamp="0x187b9402784" d="M120.489 161.913 l0 -0.003 0 -0.03 0 -0.028 0 -0.035 0 -0.019 0.004 -0.028 0.005 -0.019 0.008 -0.018 0.02 -0.024 0.043 0.122 0.01 0.051 0.047 0.374 0.019 0.295 0.013 0.376 0.008 0.395 0.006 0.573 0.003 0.569 -0.052 0.685 -0.082 0.785 -0.127 0.884 -0.304 0.896 -0.157 0.88 -0.151 0.95 -0.136 0.831 -0.307 0.877 -0.097 0.929 -0.118 0.774 -0.133 0.791 -0.1 0.681 -0.084 0.531 -0.038 0.489 -0.019 0.448 -0.009 0.351 0.004 0.084 0.067 0.384 0.039 0.095 0.223 0.226 0.081 0.058 0.346 0.124 0.143 0.037 0.451 0.042 0.191 -0.023 0.592 -0.244 0.171 -0.087 0.593 -0.422 0.173 -0.139 0.514 -0.464 0.212 -0.29 0.32 -0.25 0.261 -0.37 0.141 -0.177 0.255 -0.431 0.095 -0.139 0.144 -0.327 0.023 -0.047 0.038 -0.078 0.015 -0.034 0.015 -0.035 0.028 -0.084 0.045 0.008 0.012 0.025 -0.015 0.312 -0.006 0.267 -0.002 0.095 -0.005 0.59 -0.002 0.334 -0.001 0.403 -0.001 0.358 0.017 0.367 0.023 0.143 0.11 0.493 0.195 0.26 0.1 0.123 0.332 0.246 0.324 0.186 0.336 0.146 0.395 0.096 0.407 0.056 0.414 0.033 0.425 -0.019 0.498 -0.101 0.52 -0.284 0.381 -0.169 0.469 -0.369 0.248 -0.288 0.453 -0.459 0.221 -0.344 0.213 -0.389 0.176 -0.393 0.126 -0.445 0.091 -0.456 0.05 -0.461 0.026 -0.411 -0.013 -0.18 -0.085 -0.49 -0.195 -0.313 -0.194 -0.424 -0.279 -0.274 -0.203 -0.294 -0.448 -0.278 -0.309 -0.138 -0.385 -0.132 -0.344 -0.087 -0.354 -0.054 -0.363 -0.034 -0.164 0.019 -0.622 0.278 -0.136 0.078 -0.53 0.493 -0.18 0.278 -0.337 0.441 -0.156 0.451 -0.153 0.495 -0.122 0.499 -0.067 0.558 -0.027 0.398 -0.016 0.408 0.01 0.417 0.042 0.372 0.065 0.188 0.3 0.54 0.078 0.11 0.367 0.278 0.144 0.098 0.428 0.189 0.337 0.086 0.352 0.054 0.361 0.034 0.423 0.004 0.386 -0.054 0.343 -0.222 0.417 -0.195 0.299 -0.287 0.391 -0.233 0.238 -0.257 0.346 -0.256 0.267 -0.366 0.101 -0.126 0.212 -0.372 0.108 -0.175 0.172 -0.391 0.049 -0.116 0.107 -0.357 0.018 -0.051 0.012 -0.036 0.011 -0.037 0.01 -0.067 -0.002 -0.06 -0.021 -0.065 -0.07 0.04 -0.039 0.039 -0.133 0.373 -0.048 0.275 -0.073 0.369 -0.038 0.334 -0.026 0.402 0.002 0.122 0.069 0.49 0.062 0.155 0.231 0.26 0.221 0.317 0.352 0.203 0.313 0.134 0.33 0.08 0.347 0.05 0.414 0.015 0.371 -0.028 0.397 -0.095 0.462 -0.25 0.354 -0.185 0.489 -0.432 0.258 -0.341 0.466 -0.555 0.232 -0.447 0.226 -0.542 0.206 -0.554 0.16 -0.498 0.151 -0.508 0.137 -0.46 0.093 -0.452 0.095 -0.465 0.072 -0.463 0.061 -0.466 0.031 -0.412 0.017 -0.363 0.006 -0.166 0.009 -0.431 0.002 -0.123 0.002 -0.126 0.002 -0.176 0.001 -0.13 0.001 -0.085 0 -0.042 0.001 -0.089 0.001 -0.051 0.002 0.12 0.001 0.191 -0.039 0.31 -0.026 0.452 -0.014 0.538 -0.061 0.668 -0.028 0.716 -0.074 0.886 -0.026 0.915 -0.009 0.959 -0.003 1.004 -0.068 0.995 -0.02 1.045 -0.006 1.153 -0.001 1.25 0 1.343 0 1.323 0 1.149 0 1.114 0 0.956 0 0.922 0 0.878 0.029 0.72 0.035 0.574 0.035 0.432 0.034 0.345 0.009 0.115 0.019 0.419 0.003 0.077 0.001 0.033 0.004 0.064 0.008 -0.038 -0.019 -0.056 -0.081 -0.384 -0.034 -0.373 -0.062 -0.422 -0.012 -0.106 -0.093 -0.74 -0.065 -0.515" />
    <path class="write-stroke-pen" fill="none" stroke="#FFA200" stroke-width="2.4" stroke-linecap="round" stroke-linejoin="round" __comx="147.944" __comy="173.148" __timestamp="0x187b9402b95" d="M137.294 174.857 l0.044 -0.022 0.206 -0.084 0.366 -0.317 0.131 -0.108 0.355 -0.222 0.234 -0.26 0.323 -0.184 0.102 -0.052 0.144 -0.054 0.153 -0.042 0.161 -0.034 0.166 -0.027 0.147 -0.001 0.168 0.03 0.315 0.227 0.098 0.085 0.214 0.328 0.058 0.101 0.169 0.538 0.061 0.337 0.062 0.407 0.036 0.412 0.021 0.417 0.012 0.42 0.025 0.369 0.015 0.127 0.098 0.502 0.049 0.131 0.231 0.275 0.109 0.124 0.339 0.223 0.318 0.116 0.34 0.073 0.414 0.011 0.491 -0.081 0.579 -0.318 0.531 -0.342 0.494 -0.384 0.541 -0.46 0.557 -0.551 0.506 -0.591 0.484 -0.604 0.426 -0.681 0.261 -0.66 0.385 -0.738 0.219 -0.717 0.304 -0.627 0.171 -0.616 0.149 -0.591 0.096 -0.649 0.091 -0.602 0.064 -0.548 0.055 -0.557 0.048 -0.505 0.023 -0.455 0.012 -0.408 -0.03 -0.369 -0.033 -0.18 -0.078 -0.375 -0.027 -0.08 -0.057 -0.104 -0.071 -0.095 -0.079 -0.075 -0.105 -0.056 -0.417 0.094 -0.192 0.18 -0.206 0.348 -0.377 0.526 -0.196 0.494 -0.187 0.644 -0.363 0.767 -0.181 0.723 -0.163 0.802 -0.149 0.801 -0.134 0.689 -0.149 0.811 -0.113 0.8 -0.04 0.74 -0.016 0.805 0.02 0.579 0.086 0.606 0.13 0.511 0.269 0.522 0.15 0.422 0.152 0.364 0.275 0.285 0.218 0.344 0.299 0.232 0.106 0.08 0.41 0.15 0.147 0.039 0.512 0.048 0.19 -0.023 0.498 -0.225 0.171 -0.092 0.523 -0.445 0.214 -0.283 0.381 -0.411 0.219 -0.352 0.197 -0.347 0.193 -0.359 0.107 -0.18 0.194 -0.406 0.052 -0.116 0.065 -0.163 0.048 -0.125 0.038 -0.122 0.032 -0.125 0.018 -0.082 0.008 -0.04 0.005 -0.074 -0.01 -0.086 -0.018 0.025 -0.018 0.02 -0.045 0.258 -0.009 0.075 -0.024 0.483 -0.009 0.318 -0.005 0.34 -0.003 0.354 0.034 0.371 0.077 0.383 0.057 0.161 0.306 0.549 0.079 0.111 0.214 0.347 0.264 0.229 0.091 0.059 0.425 0.181 0.148 0.046 0.512 0.083 0.371 -0.02 0.214 -0.062 0.618 -0.366 0.178 -0.127 0.496 -0.476 0.206 -0.293 0.206 -0.337 0.188 -0.39 0.168 -0.404 0.144 -0.456 0.084 -0.352 0.07 -0.361 0.043 -0.365 0.012 -0.121 -0.04 -0.559 -0.047 -0.197 -0.295 -0.527 -0.09 -0.136 -0.325 -0.293 -0.123 -0.114 -0.506 -0.227 -0.328 -0.101 -0.396 -0.068 -0.354 -0.037 -0.371 0.013 -0.291 0.157 -0.42 0.175 -0.247 0.264 -0.191 0.293 -0.096 0.13 -0.205 0.378 -0.142 0.339 -0.061 0.131 -0.131 0.566 -0.048 0.349 -0.014 0.414 0.029 0.371 0.041 0.163 0.277 0.552 0.1 0.135 0.426 0.437 0.284 0.146 0.375 0.141 0.345 0.112 0.349 0.067 0.413 0.046 0.365 0.007 0.387 -0.051 0.319 -0.186 0.378 -0.175 0.197 -0.12 0.444 -0.369 0.126 -0.11 0.475 -0.47 0.093 -0.101 0.229 -0.365 0.099 -0.139 0.194 -0.342 0.075 -0.127 0.062 -0.115 0.059 -0.12 0.032 -0.075 0.015 -0.037 0.014 -0.038 0.015 -0.069 0.003 -0.062 -0.011 -0.061 -0.03 -0.038 -0.084 0.084 -0.022 0.045 -0.094 0.316 -0.018 0.085 -0.086 0.411 -0.017 0.104 -0.042 0.503 -0.007 0.112 -0.017 0.468 -0.003 0.117 -0.007 0.37 -0.001 0.079 -0.002 0.125 0.007 0.134 0.013 0.135 0.025 0.116 0.022 0.09 0.012 0.037 0.032 0.067 0.017 0.031 0.287 0.508" />
    <path class="write-stroke-pen" fill="none" stroke="#FFA200" stroke-width="2.4" stroke-linecap="round" stroke-linejoin="round" __comx="167.812" __comy="173.148" __timestamp="0x187b9402d80" d="M164.877 171.75 l-0.01 0 -0.036 0 -0.252 0 -0.05 0 -0.104 0.018 -0.314 0.065 -0.114 0.047 -0.138 0.075 -0.139 0.09 -0.421 0.337 -0.049 0.05 -0.246 0.4 -0.095 0.135 -0.233 0.486 -0.165 0.399 -0.121 0.35 -0.111 0.36 -0.114 0.419 -0.065 0.413 -0.038 0.418 -0.021 0.366 0.002 0.127 0.074 0.557 0.179 0.286 0.118 0.148 0.489 0.485 0.328 0.152 0.382 0.154 0.496 0.145 0.501 0.074 0.565 0.041 0.565 0.02 0.565 0.01 0.57 -0.043 0.466 -0.084 0.522 -0.117 0.603 -0.31 0.428 -0.173 0.516 -0.308 0.377 -0.177 0.467 -0.375 0.171 -0.148 0.527 -0.52 0.205 -0.296 0.205 -0.339 0.111 -0.173 0.242 -0.553 0.074 -0.163 0.131 -0.452 0.034 -0.157 0.027 -0.164 -0.016 -0.392 -0.028 -0.11 -0.062 -0.15 -0.274 -0.287 -0.097 -0.091 -0.297 -0.164 -0.102 -0.044 -0.392 -0.093 -0.073 -0.015 -0.421 -0.01 -0.13 0.024 -0.47 0.267 -0.105 0.077 -0.276 0.454 -0.15 0.359 -0.136 0.437 -0.074 0.446 -0.041 0.457 -0.024 0.519 0.009 0.464 0.07 0.48 0.243 0.549 0.141 0.342 0.364 0.476 0.13 0.144 0.509 0.478 0.295 0.177 0.168 0.108 0.493 0.224 0.343 0.126 0.348 0.076 0.359 0.047 0.125 0.005 0.456 -0.071 0.309 -0.22 0.413 -0.294" />
    <path class="write-stroke-pen" fill="none" stroke="#FFA200" stroke-width="2.4" stroke-linecap="round" stroke-linejoin="round" __comx="190.365" __comy="173.148" __timestamp="0x187b9403316" d="M191.424 161.348 l0 -0.023 0 -0.223 0 -0.106 0 -0.388 0 -0.03 -0.01 -0.056 -0.009 -0.039 -0.032 -0.033 -0.11 0.094 -0.068 0.063 -0.175 0.318 -0.126 0.334 -0.135 0.38 -0.133 0.494 -0.121 0.56 -0.124 0.732 -0.11 0.774 -0.107 0.876 -0.102 0.914 -0.034 0.956 -0.081 1.121 -0.091 1.092 -0.024 1.14 -0.006 1.189 -0.001 1.123 0 1.014 0 0.973 0 0.814 0.028 0.668 0.037 0.635 0.036 0.484 0.06 0.451 0.07 0.407 0.037 0.135 0.096 0.364 0.011 0.033 0.013 0.031 0.025 0.047 0.041 0.04 0.026 -0.115 -0.042 -0.212 -0.088 -0.32 -0.602 -0.687 -0.268 -0.306" />
    <path class="write-stroke-pen" fill="none" stroke="#FFA200" stroke-width="2.4" stroke-linecap="round" stroke-linejoin="round" __comx="188.333" __comy="173.148" __timestamp="0x187b940341d" d="M181.492 171.891 l0.003 0 0.021 0.014 0.049 0.033 0.067 0.045 0.081 0.054 0.123 0.075 0.302 0.132 0.119 0.058 0.547 0.174 0.502 0.126 0.559 0.068 0.618 0.036 0.73 0.018 0.716 0.008 0.767 0.003 0.817 -0.028 0.806 -0.04 0.862 -0.077 0.856 -0.12 0.794 -0.13 0.686 -0.127 0.698 -0.136 0.593 -0.127 0.603 -0.135 0.5 -0.124 0.391 -0.073 0.358 -0.076 0.121 -0.029 0.119 -0.023 0.079 -0.013 0.039 -0.006 0.071 0 0.082 0.017 -0.057 0.098 -0.068 0.226 -0.255 0.184 -0.31 0.224" />
    <path class="write-stroke-pen" fill="none" stroke="#FFA200" stroke-width="2.4" stroke-linecap="round" stroke-linejoin="round" __comx="216.009" __comy="173.414" __timestamp="0x187b9403b9c" d="M194.484 179.422 l0 -0.174 0 -0.277 0 -0.436 0 -0.475 0.018 -0.127 0.093 -0.411 0.068 -0.188 0.304 -0.54 0.176 -0.387 0.347 -0.496 0.364 -0.485 0.371 -0.477 0.374 -0.474 0.391 -0.517 0.238 -0.419 0.404 -0.491 0.188 -0.309 0.356 -0.311 0.215 -0.288 0.322 -0.249 0.146 -0.133 0.328 -0.236 0.136 -0.106 0.17 -0.132 0.159 -0.111 0.15 -0.077 0.114 -0.047 0.119 -0.039 0.136 -0.012 0.105 0.015 0.232 0.206 0.053 0.07 0.132 0.42 0.06 0.364 0.038 0.441 0.021 0.454 0.012 0.462 0.006 0.411 0.004 0.416 0.002 0.419 0.008 0.126 0.042 0.542 0.041 0.162 0.114 0.374 0.06 0.128 0.249 0.269 0.116 0.122 0.301 0.202 0.119 0.08 0.382 0.139 0.154 0.042 0.415 0.045 0.198 -0.02 0.482 -0.091 0.303 -0.227 0.355 -0.19 0.243 -0.249 0.341 -0.224 0.274 -0.353 0.145 -0.171 0.26 -0.424 0.111 -0.17 0.199 -0.394 0.09 -0.148 0.181 -0.355 0.055 -0.116 0.054 -0.12 0.043 -0.118 0.013 -0.038 0.012 -0.038 0.011 -0.07 0 -0.062 -0.019 -0.068 -0.072 0.057 -0.016 0.036 -0.075 0.254 -0.017 0.08 -0.039 0.394 -0.008 0.102 0.003 0.501 0.032 0.152 0.259 0.533 0.107 0.157 0.405 0.293 0.251 0.28 0.419 0.192 0.15 0.071 0.484 0.112 0.167 0.05 0.511 0.079 0.157 0.018 0.53 0.01 0.196 -0.033 0.426 -0.102 0.281 -0.203 0.319 -0.178 0.269 -0.298 0.155 -0.166 0.305 -0.517 0.192 -0.431 0.168 -0.449 0.11 -0.446 0.056 -0.402 0.03 -0.357 0.019 -0.365 -0.024 -0.378 -0.04 -0.165 -0.345 -0.594 -0.104 -0.165 -0.423 -0.495 -0.28 -0.194 -0.326 -0.178 -0.346 -0.164 -0.394 -0.123 -0.351 -0.066 -0.361 -0.041 -0.386 0.029 -0.289 0.166 -0.469 0.193 -0.29 0.309 -0.43 0.392 -0.091 0.094 -0.272 0.497 -0.193 0.48 -0.143 0.492 -0.073 0.498 -0.038 0.508 0.002 0.459 0.066 0.477 0.274 0.565 0.158 0.382 0.356 0.318 0.236 0.369 0.384 0.255 0.153 0.106 0.472 0.22 0.334 0.125 0.342 0.075 0.355 0.047 0.417 0.032 0.169 0 0.565 -0.094 0.31 -0.193 0.422 -0.193 0.293 -0.32 0.338 -0.249 0.296 -0.456 0.355 -0.407 0.198 -0.391 0.201 -0.444 0.169 -0.446 0.193 -0.52 0.144 -0.405 0.132 -0.363 0.057 -0.133 0.118 -0.408 0.019 -0.075 0.024 -0.12 0.02 -0.123 0.012 -0.081 0 -0.086 -0.011 -0.068 -0.036 -0.088 -0.054 -0.06 -0.146 0.048 -0.07 0.032 -0.163 0.234 -0.145 0.277 -0.133 0.355 -0.125 0.435 -0.073 0.499 -0.036 0.453 -0.02 0.461 -0.011 0.465 -0.006 0.413 -0.003 0.363 0.007 0.127 0.086 0.556 0.064 0.156 0.103 0.168 0.329 0.422 0.079 0.072 0.302 0.18 0.101 0.047 0.39 0.099 0.113 0.023 0.417 0.03 0.14 -0.01 0.447 -0.101 0.304 -0.236 0.355 -0.196 0.301 -0.381 0.375 -0.393 0.216 -0.344 0.21 -0.389 0.2 -0.404 0.208 -0.463 0.161 -0.405 0.153 -0.413 0.115 -0.357 0.039 -0.121 0.072 -0.364 0.013 -0.078 0.017 -0.123 0.01 -0.081 0.005 -0.04 -0.002 -0.073 -0.012 -0.065 -0.016 -0.061 -0.074 0.044 -0.038 0.039 -0.081 0.369 -0.03 0.276 -0.06 0.37 -0.031 0.334 -0.021 0.403 -0.013 0.411 0.011 0.365 0.035 0.164 0.13 0.536 0.061 0.155 0.153 0.415 0.091 0.15 0.268 0.253 0.105 0.092 0.316 0.186 0.105 0.048 0.397 0.103 0.159 0.031 0.428 0.009 0.222 -0.05 0.5 -0.255 0.138 -0.086 0.439 -0.369 0.125 -0.11 0.296 -0.403 0.214 -0.341 0.333 -0.422 0.172 -0.316 0.164 -0.349 0.155 -0.36 0.097 -0.188 0.194 -0.469 0.047 -0.118 0.047 -0.122 0.047 -0.125 0.047 -0.128 0.013 -0.038 0.024 -0.06 0.031 -0.055 0.03 0.084 0.006 0.039 -0.03 0.348 -0.012 0.282 -0.008 0.317 -0.005 0.34 -0.003 0.406 -0.002 0.36 -0.001 0.42 -0.001 0.367 0.008 0.128 0.043 0.604 0.015 0.123 0.092 0.439 0.051 0.13 0.078 0.153 0.08 0.121 0.275 0.233 0.094 0.06 0.324 0.118 0.11 0.032 0.374 0.009 0.182 -0.044 0.548 -0.303 0.34 -0.18 0.319 -0.343 0.39 -0.27 0.313 -0.41 0.274 -0.219 0.257 -0.37 0.278 -0.256 0.232 -0.339 0.127 -0.152 0.364 -0.398 0.073 -0.079 0.121 -0.128 0.125 -0.131 0.111 -0.106 0.104 -0.084 0.067 -0.046 0.07 -0.041 0.1 -0.035 0.099 -0.016 0.123 0.011 0.236 0.162 0.072 0.054 0.185 0.299 0.053 0.096 0.147 0.374 0.057 0.126 0.119 0.396 0.037 0.119 0.094 0.416 0.022 0.119 0.071 0.484 0.014 0.12 0.03 0.43 0.005 0.079 0.014 0.378 -0.008 0.07 -0.03 0.134 -0.034 0.101 -0.043 0.1 -0.037 0.061 -0.043 0.055 -0.038 0.038 -0.05 0.027 -0.054 -0.011 -0.077 -0.156 -0.014 -0.068 0.032 -0.324 0.041 -0.127 0.275 -0.486 0.098 -0.158 0.389 -0.51 0.209 -0.327 0.382 -0.472 0.35 -0.389 0.363 -0.383 0.402 -0.463 0.412 -0.441 0.379 -0.416 0.417 -0.436 0.381 -0.414 0.418 -0.435 0.382 -0.413 0.395 -0.461 0.385 -0.466 0.396 -0.514 0.24 -0.418 0.38 -0.515 0.171 -0.356 0.162 -0.393 0.057 -0.154 0.105 -0.406 0.024 -0.116 0.02 -0.12 0.039 -0.375 -0.013 -0.114 -0.174 -0.276 -0.078 -0.099 -0.267 -0.176 -0.099 -0.057 -0.322 -0.105 -0.07 -0.019 -0.134 -0.012 -0.157 0.02 -0.153 0.047 -0.313 0.292 -0.113 0.107 -0.265 0.533 -0.145 0.418 -0.084 0.489 -0.047 0.558 -0.026 0.675 -0.011 0.609 -0.005 0.725 -0.002 0.771 -0.001 0.818 0 0.922 0 0.846 0 0.962 0 0.89 0 1.066 -0.07 1.103 -0.018 1.143 -0.005 1.19 -0.001 1.18 0 1.064 0 1.021 0 0.918 0 0.821 0 0.838 0 0.787 0 0.682 0 0.753 -0.06 0.814 -0.076 0.692 -0.083 0.644 -0.076 0.489 -0.088 0.356 -0.061 0.152 -0.164 0.462 -0.219 0.245 -0.068 0.075 -0.289 0.195 -0.086 0.062 -0.319 0.129 -0.114 0.028 -0.134 0.009 -0.156 -0.023 -0.149 -0.062 -0.247 -0.264 -0.072 -0.116 -0.12 -0.404 -0.062 -0.382 -0.009 -0.158 0.062 -0.704 0.047 -0.532" />
    <path class="write-stroke-pen" fill="none" stroke="#FFA200" stroke-width="2.4" stroke-linecap="round" stroke-linejoin="round" __comx="234.399" __comy="177.741" __timestamp="0x187b9403cb5" d="M230.728 180.411 l0.01 -0.041 0.082 -0.284 0.31 -0.415 0.345 -0.366 0.274 -0.172 0.417 -0.192 0.556 -0.332 0.424 -0.189 0.559 -0.216 0.58 -0.351 0.47 -0.2 0.556 -0.323 0.475 -0.198 0.444 -0.16 0.368 -0.154 0.183 -0.093 0.411 -0.176 0.101 -0.064 0.108 -0.061 0.046 -0.028 0.03 -0.021 0.091 -0.038 0.056 -0.013 0.447 -0.105" />
    <path class="write-stroke-pen" fill="none" stroke="#FFA200" stroke-width="2.4" stroke-linecap="round" stroke-linejoin="round" __comx="254.632" __comy="174.778" __timestamp="0x187b940429c" d="M242.919 174.762 l-0.01 0 -0.036 0 -0.053 0 -0.288 0 -0.056 0 -0.31 0 -0.117 0.027 -0.392 0.109 -0.118 0.055 -0.395 0.16 -0.24 0.227 -0.338 0.192 -0.217 0.247 -0.278 0.188 -0.207 0.261 -0.065 0.078 -0.215 0.366 -0.073 0.121 -0.182 0.443 -0.083 0.344 -0.052 0.356 -0.007 0.125 0.032 0.6 0.056 0.182 0.297 0.579 0.245 0.242 0.23 0.306 0.405 0.21 0.364 0.136 0.389 0.119 0.396 0.068 0.407 0.04 0.416 0.004 0.382 -0.053 0.488 -0.257 0.169 -0.099 0.527 -0.391 0.228 -0.277 0.353 -0.389 0.188 -0.394 0.126 -0.332 0.103 -0.395 0.055 -0.352 0.037 -0.415 0.02 -0.364 -0.043 -0.388 -0.215 -0.472 -0.074 -0.159 -0.316 -0.483 -0.177 -0.334 -0.297 -0.279 -0.23 -0.341 -0.313 -0.256 -0.107 -0.083 -0.417 -0.202 -0.11 -0.05 -0.345 -0.109 -0.115 -0.029 -0.365 -0.057 -0.134 0.009 -0.28 0.164 -0.126 0.087 -0.25 0.312 -0.105 0.123 -0.195 0.359 -0.07 0.122 -0.14 0.494 -0.025 0.111 -0.062 0.52 -0.003 0.082 0.012 0.416 0.03 0.131 0.081 0.177 0.298 0.435 0.105 0.096 0.441 0.221 0.153 0.077 0.489 0.121 0.448 0.059 0.406 0.011 0.528 -0.038 0.53 -0.089 0.588 -0.148 0.627 -0.292 0.588 -0.196 0.605 -0.309 0.579 -0.203 0.651 -0.324 0.523 -0.188 0.652 -0.327 0.466 -0.154 0.498 -0.15 0.415 -0.152 0.358 -0.132 0.355 -0.114 0.136 -0.053 0.121 -0.046 0.164 -0.047 0.123 -0.029 0.149 -0.01 0.111 0.008 0.112 0.031 0.206 0.198 0.055 0.076 0.137 0.435 0.011 0.118 -0.025 0.545 -0.023 0.127 -0.122 0.569 -0.109 0.409 -0.123 0.415 -0.131 0.419 -0.125 0.37 -0.131 0.373 -0.056 0.136 -0.114 0.521 -0.02 0.115 -0.039 0.366 -0.007 0.078 0.007 0.146 0.038 0.168 0.074 0.159 0.276 0.217 0.087 0.05 0.411 0.095 0.35 -0.009 0.373 -0.083 0.489 -0.252 0.348 -0.177 0.506 -0.397 0.326 -0.212 0.484 -0.498 0.359 -0.364 0.239 -0.393 0.372 -0.467 0.203 -0.361 0.343 -0.504 0.191 -0.373 0.17 -0.395 0.145 -0.357 0.122 -0.355 0.055 -0.136 0.148 -0.471 0.039 -0.121 0.04 -0.125 0.041 -0.128 0.042 -0.13 0.012 -0.039 0.073 -0.1 0.013 -0.008 0.048 0.181 0.01 0.059 0.024 0.393 0.01 0.304 0.006 0.331 0.004 0.348 0.002 0.359 0.002 0.365 0 0.121 0.025 0.605 0.012 0.124 0.047 0.48 0.018 0.125 0.076 0.433 0.031 0.107 0.05 0.14 0.059 0.14 0.074 0.131 0.074 0.09 0.1 0.107 0.091 0.073 0.104 0.056 0.144 0.03 0.177 -0.009 0.311 -0.198 0.305 -0.156 0.26 -0.283 0.152 -0.161 0.403 -0.464 0.197 -0.312 0.33 -0.415 0.125 -0.16 0.409 -0.543 0.164 -0.315 0.115 -0.164 0.377 -0.504 0.082 -0.113 0.108 -0.136 0.11 -0.155 0.088 -0.125 0.057 -0.071 0.036 -0.044 0.027 -0.029 0.028 -0.027 0.029 -0.026 0.053 -0.037 0.069 -0.025 0.146 0.121 0.034 0.051 0.037 0.331 -0.019 0.3 -0.011 0.322 -0.044 0.35 -0.063 0.36 -0.075 0.367 -0.049 0.415 -0.069 0.427 -0.016 0.119 -0.041 0.597 -0.006 0.117 -0.012 0.369 -0.002 0.079 -0.002 0.08 0.004 0.091 0.013 0.072 0.04 0.093 0.057 0.078 0.07 0.065 0.128 0.057 0.328 0 0.263 -0.181 0.288 -0.152 0.277 -0.288 0.436 -0.394 0.163 -0.152 0.573 -0.586 0.223 -0.303 0.328 -0.275 0.273 -0.424 0.271 -0.259 0.244 -0.388 0.121 -0.152 0.196 -0.325 0.075 -0.092 0.07 -0.101 0.066 -0.108 0.046 -0.076 0.036 -0.071 0.017 -0.035 0.044 -0.071 0.052 0.004 -0.002 0.015 -0.047 0.251 -0.029 0.085 -0.065 0.52 -0.023 0.36 -0.015 0.439 -0.008 0.453 -0.005 0.461 0.021 0.579 0.074 0.474 0.121 0.432 0.14 0.379 0.229 0.272 0.109 0.123 0.345 0.246 0.166 0.12 0.431 0.201 0.149 0.051 0.46 0.086 0.137 0.002 0.344 -0.283 0.329 -0.271" />
    <path class="write-stroke-pen" fill="none" stroke="#FFA200" stroke-width="2.4" stroke-linecap="round" stroke-linejoin="round" __comx="533.284" __comy="172.922" __timestamp="0x187b945bca9" d="M533.058 172.371 l0.008 -0.024 0.016 -0.222 0.015 -0.109 0.023 -0.338 0.006 -0.042 0.004 -0.031 0.009 -0.044 0.012 -0.067 0.005 -0.033 0.005 -0.034 0.005 -0.035 0.005 -0.036 0.004 -0.036 -0.003 -0.066 -0.013 -0.059 -0.022 -0.052 -0.03 -0.047 -0.037 -0.041 -0.06 -0.036 -0.065 -0.016 -0.07 0.001 -0.073 0.015 -0.095 0.043 -0.095 0.062 -0.095 0.077 -0.151 0.263 -0.053 0.082 -0.047 0.096 -0.101 0.378 -0.016 0.071 -0.014 0.12 0.01 0.37 0.026 0.096 0.082 0.163 0.099 0.132 0.12 0.123 0.297 0.193 0.1 0.05 0.148 0.054 0.351 0.077 0.117 0.021 0.184 0.003 0.39 -0.052 0.16 -0.062 0.266 -0.23 0.121 -0.109 0.145 -0.146 0.199 -0.309 0.062 -0.108 0.114 -0.339 0.031 -0.114 0.033 -0.164 0.012 -0.382 -0.011 -0.108 -0.174 -0.292 -0.069 -0.112 -0.264 -0.244 -0.12 -0.114 -0.45 -0.214 -0.108 -0.048 -0.445 -0.125 -0.112 -0.025 -0.524 -0.062 -0.137 0.005 -0.429 0.069 -0.257 0.18 -0.122 0.095 -0.226 0.281 -0.084 0.109 -0.158 0.415 -0.019 0.075 -0.132 0.537" />
    <path class="write-stroke-pen" fill="none" stroke="#FFA200" stroke-width="2.4" stroke-linecap="round" stroke-linejoin="round" __comx="553.848" __comy="172.922" __timestamp="0x187b945c1a7" d="M550.004 165.405 l-0.031 -0.031 -0.099 -0.192 -0.065 -0.096 -0.082 -0.106 -0.095 -0.114 -0.082 -0.104 -0.193 -0.322 -0.074 -0.121 -0.095 -0.162 -0.094 -0.168 -0.118 -0.351 -0.032 -0.117 -0.034 -0.167 -0.053 -0.433 0.003 -0.11 0.021 -0.143 0.058 -0.202 0.092 -0.186 0.255 -0.271 0.117 -0.123 0.139 -0.122 0.428 -0.251 0.149 -0.074 0.563 -0.16 0.454 -0.09 0.46 -0.05 0.52 -0.03 0.575 -0.017 0.57 -0.008 0.573 0.044 0.682 0.077 0.618 0.109 0.609 0.1 0.611 0.097 0.611 0.095 0.612 0.095 0.556 0.09 0.5 0.041 0.509 0.021 0.404 0.01 0.359 0.005 0.165 0.002 0.374 0.003 0.08 0 0.09 -0.005 0.055 -0.007 0.07 -0.019 0.032 -0.011 0.074 -0.054 -0.045 -0.114 -0.035 -0.035 -0.286 -0.098 -0.08 -0.02 -0.345 -0.042 -0.103 -0.01 -0.453 0.02 -0.132 0.023 -0.473 0.109 -0.25 0.194 -0.12 0.1 -0.275 0.425 -0.17 0.325 -0.196 0.496 -0.179 0.56 -0.168 0.617 -0.16 0.67 -0.122 0.658 -0.111 0.715 -0.13 0.715 -0.142 0.766 -0.146 0.815 -0.315 0.899 -0.156 0.825 -0.359 0.942 -0.376 0.953 -0.384 0.999 -0.438 0.902 -0.414 0.835 -0.438 0.752 -0.387 0.594 -0.487 0.632 -0.535 0.588 -0.572 0.504 -0.631 0.458 -0.588 0.386 -0.6 0.203 -0.588 0.305 -0.456 0.109 -0.439 0.096 -0.342 0.044 -0.115 0.012 -0.489 -0.037 -0.258 -0.161 -0.117 -0.103 -0.233 -0.415 -0.053 -0.133 -0.1 -0.54 -0.001 -0.347 0.053 -0.211 0.292 -0.628 0.092 -0.168 0.417 -0.543 0.13 -0.143 0.509 -0.476 0.302 -0.2 0.332 -0.177 0.449 -0.189 0.394 -0.111 0.46 -0.092 0.465 -0.072 0.466 -0.04 0.468 -0.022 0.476 0.03 0.482 0.082 0.477 0.109 0.547 0.267 0.484 0.16 0.524 0.29 0.474 0.17 0.536 0.331 0.464 0.178 0.445 0.152 0.527 0.294 0.367 0.108 0.449 0.112 0.355 0.089 0.363 0.091 0.161 0.03 0.424 0.047 0.121 0.011 0.131 0.002 0.191 -0.02 0.172 -0.046 0.246 -0.203 0.406 -0.335" />
    <path class="write-stroke-pen" fill="none" stroke="#FFA200" stroke-width="2.4" stroke-linecap="round" stroke-linejoin="round" __comx="554.922" __comy="172.922" __timestamp="0x187b945c2c2" d="M551.651 169.782 l0.003 0 0.021 -0.014 0.057 -0.049 0.237 -0.147 0.082 -0.044 0.388 -0.096 0.323 -0.045 0.343 -0.028 0.409 -0.019 0.477 0.03 0.474 0.059 0.466 0.032 0.53 0.065 0.518 0.033 0.518 0.017 0.462 0.008 0.466 0.005 0.162 0.001 0.609 0.005" />
    <path class="write-stroke-pen" fill="none" stroke="#FFA200" stroke-width="2.4" stroke-linecap="round" stroke-linejoin="round" __comx="566.596" __comy="172.922" __timestamp="0x187b945c560" d="M563.56 173.218 l0.027 -0.018 0.23 -0.093 0.28 -0.128 0.38 -0.273 0.124 -0.06 0.522 -0.115 0.332 -0.042 0.401 -0.029 0.465 -0.018 0.523 -0.011 0.521 -0.006 0.519 -0.003 0.519 -0.002 0.463 -0.001 0.161 0 0.605 -0.001" />
    <path class="write-stroke-pen" fill="none" stroke="#FFA200" stroke-width="2.4" stroke-linecap="round" stroke-linejoin="round" __comx="583.902" __comy="172.922" __timestamp="0x187b945c790" d="M583.706 164.557 l0 -0.003 0 -0.049 0 -0.21 0 -0.049 -0.01 -0.044 -0.02 -0.039 -0.066 -0.038 -0.172 0.155 -0.076 0.072 -0.2 0.376 -0.15 0.35 -0.157 0.431 -0.15 0.449 -0.164 0.566 -0.16 0.62 -0.157 0.671 -0.16 0.777 -0.154 0.819 -0.155 0.921 -0.316 0.936 -0.093 0.925 -0.13 0.999 -0.131 0.878 -0.109 0.943 -0.093 0.828 -0.032 0.838 0.018 0.676 0.084 0.591 0.246 0.558 0.159 0.34 0.411 0.327 0.41 0.346 0.386 0.149 0.476 0.089 0.552 0.026 0.578 -0.086 0.638 -0.294 0.533 -0.208 0.692 -0.447 0.536 -0.426 0.383 -0.304" />
    <path class="write-stroke-pen" fill="none" stroke="#FFA200" stroke-width="2.4" stroke-linecap="round" stroke-linejoin="round" __comx="582.741" __comy="172.922" __timestamp="0x187b945c878" d="M578.387 170.676 l0.023 0 0.186 0 0.301 0 0.352 0 0.433 0 0.504 0 0.623 0 0.617 0 0.614 0 0.613 0 0.556 0 0.618 -0.025 0.559 -0.035 0.562 -0.041 0.508 -0.042 0.404 -0.038 0.359 -0.038 0.124 -0.019 0.121 -0.015 0.628 -0.077" />
    <path class="write-stroke-pen" fill="none" stroke="#FFA200" stroke-width="2.4" stroke-linecap="round" stroke-linejoin="round" __comx="596.786" __comy="172.922" __timestamp="0x187b945ccd5" d="M588.836 179.619 l0 -0.003 -0.014 -0.021 -0.013 -0.042 -0.011 -0.058 -0.006 -0.044 -0.01 -0.113 -0.015 -0.301 -0.004 -0.104 0.033 -0.455 0.031 -0.172 0.112 -0.478 0.07 -0.192 0.169 -0.527 0.126 -0.366 0.276 -0.456 0.171 -0.339 0.311 -0.435 0.185 -0.331 0.399 -0.467 0.154 -0.171 0.486 -0.51 0.143 -0.136 0.444 -0.433 0.103 -0.092 0.368 -0.227 0.161 -0.126 0.168 -0.13 0.328 -0.161 0.116 -0.053 0.114 -0.042 0.119 -0.035 0.122 -0.029 0.171 -0.003 0.111 0.022 0.262 0.259 0.063 0.079 0.159 0.382 0.032 0.099 0.088 0.602 0.032 0.39 -0.02 0.411 -0.051 0.416 -0.069 0.419 -0.08 0.421 -0.045 0.415 -0.061 0.373 -0.04 0.42 -0.022 0.367 -0.006 0.122 -0.013 0.49 -0.003 0.122 -0.002 0.125 0.006 0.134 0.038 0.176 0.052 0.136 0.059 0.093 0.256 0.182 0.092 0.049 0.139 0.053 0.405 0.025 0.27 -0.135 0.406 -0.16 0.293 -0.269 0.396 -0.249 0.436 -0.398 0.163 -0.154 0.515 -0.529 0.158 -0.16 0.45 -0.479 0.131 -0.149 0.386 -0.437 0.072 -0.079 0.094 -0.111 0.075 -0.086 0.057 -0.07 0.036 -0.044 0.024 -0.031 0.057 -0.072 0.057 0.027 0.01 0.015 -0.006 0.229 -0.001 0.074 -0.003 0.332 -0.001 0.1 -0.001 0.439 0.018 0.132 0.099 0.472 0.049 0.124 0.27 0.286 0.111 0.116 0.349 0.235 0.098 0.051 0.436 0.117 0.346 0.055 0.36 0.017 0.434 -0.049 0.486 -0.248 0.335 -0.151 0.308 -0.288 0.405 -0.26 0.31 -0.444 0.338 -0.426 0.201 -0.358 0.201 -0.397 0.157 -0.349 0.163 -0.409 0.11 -0.401 0.077 -0.358 0.047 -0.363 -0.004 -0.183 -0.044 -0.432 -0.179 -0.322 -0.158 -0.333 -0.275 -0.23 -0.117 -0.103 -0.456 -0.247 -0.105 -0.052 -0.547 -0.153 -0.341 -0.056 -0.135 0 -0.588 0.074 -0.295 0.211 -0.397 0.194 -0.28 0.321 -0.279 0.205 -0.281 0.499 -0.163 0.364 -0.154 0.389 -0.148 0.404 -0.123 0.404 -0.07 0.405 -0.041 0.412 -0.022 0.363 0.004 0.37 0.058 0.39 0.051 0.163 0.173 0.491 0.22 0.25 0.109 0.119 0.301 0.222 0.115 0.083 0.426 0.156 0.151 0.041 0.408 0.063 0.166 0.009 0.494 -0.049 0.339 -0.212 0.414 -0.189 0.318 -0.325 0.389 -0.261 0.313 -0.405 0.39 -0.438 0.35 -0.393" />
    <path class="write-stroke-pen" fill="none" stroke="#FFA200" stroke-width="2.4" stroke-linecap="round" stroke-linejoin="round" __comx="610.69" __comy="172.922" __timestamp="0x187b945ce54" d="M606.723 172.465 l0 0.01 -0.027 0.034 -0.194 0.113 -0.075 0.06 -0.196 0.29 -0.089 0.117 -0.395 0.559 -0.15 0.305 -0.128 0.333 -0.126 0.4 -0.112 0.41 -0.064 0.408 -0.038 0.415 -0.022 0.418 -0.005 0.12 0.01 0.544 0.02 0.141 0.097 0.436 0.194 0.26 0.1 0.123 0.325 0.221 0.113 0.077 0.423 0.144 0.339 0.068 0.162 0.014 0.542 -0.044 0.214 -0.066 0.583 -0.3 0.136 -0.085 0.52 -0.396 0.146 -0.132 0.465 -0.468 0.134 -0.147 0.462 -0.537 0.126 -0.153 0.234 -0.421 0.131 -0.194 0.245 -0.451 0.092 -0.144 0.2 -0.398 0.069 -0.129 0.073 -0.158 0.053 -0.122 0.042 -0.119 0.012 -0.038 0.012 -0.07 0.001 -0.062 -0.017 -0.068 -0.032 -0.028 -0.096 0.128 -0.061 0.071 -0.129 0.282 -0.052 0.102 -0.142 0.407 -0.065 0.327 -0.017 0.111 -0.046 0.577 -0.017 0.352 -0.01 0.361 0.015 0.142 0.093 0.492 0.076 0.184 0.105 0.173 0.27 0.255 0.122 0.118 0.303 0.156 0.145 0.054 0.399 0.084 0.159 0.025 0.492 -0.021 0.217 -0.06 0.605 -0.327 0.184 -0.124 0.605 -0.432 0.329 -0.202 0.469 -0.446 0.251 -0.346 0.392 -0.456 0.352 -0.409" />
    <path class="write-stroke-pen" fill="none" stroke="#FFA200" stroke-width="2.4" stroke-linecap="round" stroke-linejoin="round" __comx="617.585" __comy="177.568" __timestamp="0x187b945dbab" d="M617.078 173.171 l0.01 0 0.038 -0.008 0.056 -0.015 0.079 -0.032 0.091 -0.044 0.089 -0.039 0.098 -0.041 0.105 -0.042 0.068 -0.023 0.047 -0.018 0.034 -0.012 0.048 -0.02 0.062 -0.015 0.08 0.004 0.123 0.153 0.02 0.074 -0.005 0.353 -0.058 0.318 -0.099 0.39 -0.117 0.404 -0.137 0.464 -0.148 0.521 -0.112 0.458 -0.111 0.518 -0.057 0.512 -0.066 0.413 -0.078 0.417 -0.044 0.412 -0.01 0.118 -0.024 0.482 -0.003 0.077 -0.004 0.123 -0.008 0.381 0.002 0.036 0.005 0.074 0.004 0.039 0.008 -0.066 0.002 -0.041 0.004 -0.22 0.007 -0.057 0.01 -0.124 0.038 -0.468" />
    <path class="write-stroke-pen" fill="none" stroke="#FFA200" stroke-width="2.4" stroke-linecap="round" stroke-linejoin="round" __comx="625.999" __comy="177.568" __timestamp="0x187b945dd62" d="M629.081 172.653 l0 -0.003 0 -0.015 -0.031 -0.058 -0.312 -0.196 -0.273 -0.134 -0.408 -0.159 -0.429 -0.127 -0.443 -0.09 -0.564 -0.057 -0.509 -0.026 -0.626 -0.015 -0.562 -0.007 -0.575 0.07 -0.598 0.277 -0.419 0.138 -0.492 0.312 -0.362 0.157 -0.275 0.274 -0.385 0.233 -0.211 0.25 -0.083 0.104 -0.056 0.094 -0.12 0.374 -0.006 0.12 0.038 0.14 0.274 0.278 0.276 0.185 0.403 0.17 0.539 0.154 0.608 0.13 0.719 0.065 0.827 0.029 0.813 0.071 0.805 0.085 0.745 0.088 0.754 0.121 0.588 0.118 0.573 0.296 0.361 0.134 0.275 0.261 0.294 0.194 0.222 0.342 0.055 0.096 0.127 0.471 0.023 0.107 -0.01 0.417 -0.219 0.294 -0.312 0.357 -0.316 0.197 -0.461 0.178 -0.602 0.181 -0.607 0.159 -0.721 0.163 -0.708 0.121 -0.707 0.105 -0.646 0.041 -0.653 0.018 -0.49 0.007 -0.451 -0.018 -0.369 -0.064 -0.126 -0.046 -0.267 -0.225 -0.096 -0.093 -0.153 -0.289 -0.035 -0.106 0.007 -0.365 0.297 -0.346 0.268 -0.209 0.386 -0.302" />
    <path class="write-stroke-pen" fill="none" stroke="#FFA200" stroke-width="2.4" stroke-linecap="round" stroke-linejoin="round" __comx="638.283" __comy="177.568" __timestamp="0x187b945df05" d="M640.613 170.158 l0 -0.01 0 -0.036 0 -0.053 -0.036 -0.251 -0.034 -0.076 -0.068 -0.114 -0.084 -0.12 -0.254 -0.177 -0.063 -0.042 -0.06 -0.033 -0.101 -0.043 -0.338 -0.083 -0.101 -0.007 -0.124 0.02 -0.147 0.05 -0.474 0.342 -0.099 0.085 -0.247 0.423 -0.174 0.376 -0.126 0.338 -0.157 0.464 -0.143 0.569 -0.118 0.567 -0.066 0.732 -0.027 0.717 -0.012 0.768 -0.005 0.816 -0.002 0.922 -0.001 0.961 -0.069 1.065 -0.019 1.156 -0.077 1.195 -0.018 1.236 -0.079 1.285 -0.016 1.216 -0.003 1.222 -0.072 1.112 -0.017 1.01 -0.071 0.974 -0.019 0.812 -0.006 0.778 -0.055 0.628 -0.023 0.586 -0.051 0.442 -0.06 0.352 -0.036 0.135 -0.095 0.364 -0.027 0.065 -0.035 0.057 -0.071 0.061 -0.124 -0.068 -0.114 -0.218 -0.106 -0.304 -0.116 -0.453 -0.124 -0.647 -0.095 -0.499" />
    <path class="write-stroke-pen" fill="none" stroke="#FFA200" stroke-width="2.4" stroke-linecap="round" stroke-linejoin="round" __comx="654.57" __comy="177.568" __timestamp="0x187b945e405" d="M633.741 178.395 l0.003 0 0.015 0 0.043 0 0.086 0 0.107 0 0.341 0 0.142 0 0.501 0 0.401 0 0.522 -0.022 0.524 -0.057 0.583 -0.105 0.574 -0.124 0.624 -0.14 0.625 -0.168 0.673 -0.187 0.61 -0.18 0.549 -0.149 0.557 -0.145 0.501 -0.111 0.45 -0.074 0.351 -0.034 0.361 -0.022 0.12 -0.006 0.375 -0.011 0.11 0.012 0.165 0.045 0.16 0.066 0.156 0.083 0.101 0.074 0.092 0.085 0.188 0.299 0.044 0.072 0.061 0.111 0.131 0.348 0.032 0.082 0.047 0.123 0.114 0.424 0.012 0.034 0.075 0.157 0.068 0.133 0.095 0.155 0.091 0.123 0.133 0.142 0.356 0.194 0.124 0.071 0.339 0.113 0.158 0.039 0.419 0.061 0.126 0.007 0.498 -0.049 0.186 -0.063 0.447 -0.272 0.136 -0.095 0.293 -0.333 0.159 -0.173 0.266 -0.468 0.179 -0.391 0.119 -0.391 0.069 -0.402 0.037 -0.358 0.025 -0.419 -0.041 -0.386 -0.087 -0.434 -0.276 -0.361 -0.221 -0.452 -0.373 -0.329 -0.422 -0.398 -0.343 -0.213 -0.448 -0.336 -0.354 -0.154 -0.348 -0.142 -0.349 -0.12 -0.119 -0.041 -0.413 -0.082 -0.076 -0.013 -0.39 0.015 -0.132 0.031 -0.273 0.233 -0.091 0.089 -0.215 0.382 -0.042 0.098 -0.09 0.383 -0.014 0.117 0.01 0.365 0.047 0.157 0.259 0.436 0.067 0.075 0.376 0.242 0.161 0.109 0.476 0.199 0.341 0.118 0.399 0.078 0.417 0.086 0.412 0.049 0.417 0.029 0.42 0.017 0.423 -0.009 0.423 -0.025 0.484 -0.058 0.478 -0.075 0.537 -0.113 0.528 -0.127 0.523 -0.134 0.467 -0.129 0.428 -0.15 0.415 -0.142 0.368 -0.131 0.174 -0.068 0.419 -0.134 0.138 -0.054 0.123 -0.047 0.17 -0.059 0.129 -0.045 0.039 -0.012 0.039 -0.012 0.105 -0.008 0.088 0.016 0.124 0.181 0.009 0.071 -0.043 0.31 -0.206 0.238 -0.113 0.305 -0.067 0.128 -0.185 0.473 -0.132 0.344 -0.057 0.128 -0.161 0.51 -0.051 0.132 -0.103 0.512 -0.018 0.114 -0.018 0.365 0.021 0.133 0.051 0.155 0.22 0.273 0.106 0.123 0.288 0.203 0.136 0.068 0.491 0.123 0.344 0.051 0.365 -0.004 0.38 -0.058 0.392 -0.114 0.522 -0.31 0.334 -0.166 0.45 -0.344 0.321 -0.188 0.319 -0.356 0.39 -0.277 0.285 -0.406 0.199 -0.328 0.109 -0.169 0.211 -0.442 0.086 -0.146 0.092 -0.163 0.133 -0.347 0.021 -0.049 0.04 -0.115 0.012 -0.037 0.011 -0.037 0.02 -0.058 0.026 -0.052 0.008 -0.025 0.013 0.102 0.003 0.05 -0.032 0.287 -0.007 0.087 -0.019 0.515 -0.007 0.33 -0.002 0.112 -0.005 0.579 -0.002 0.353 0 0.118 -0.001 0.481 0 0.12 0.017 0.377 0.009 0.088 0.014 0.089 0.046 0.139 0.064 0.13 0.067 0.089 0.093 0.106 0.122 0.094 0.136 0.075 0.336 0.088 0.133 0.01 0.191 -0.025 0.499 -0.229 0.159 -0.105 0.512 -0.399 0.144 -0.132 0.479 -0.512 0.2 -0.304 0.332 -0.409 0.195 -0.32 0.173 -0.342 0.129 -0.202 0.21 -0.363 0.098 -0.147 0.108 -0.146 0.091 -0.125 0.053 -0.077 0.034 -0.047 0.025 -0.031 0.026 -0.029 0.07 -0.056 0.136 0.033 0.025 0.017 0.09 0.268 0.042 0.267 -0.005 0.112 -0.01 0.526 -0.04 0.342 -0.01 0.111 -0.027 0.578 -0.01 0.353 -0.003 0.118 -0.006 0.481 -0.001 0.077 -0.001 0.123 0.007 0.132 0.014 0.134 0.04 0.143 0.04 0.107 0.059 0.096 0.072 0.08 0.118 0.087 0.363 0.098 0.143 -0.001 0.457 -0.09 0.31 -0.231 0.446 -0.213 0.464 -0.408 0.367 -0.345 0.313 -0.226 0.281 -0.33 0.381 -0.258 0.252 -0.311 0.282 -0.22 0.122 -0.122 0.139 -0.151 0.121 -0.129 0.125 -0.131 0.082 -0.085 0.04 -0.041 0.041 -0.042 0.029 -0.028 0.03 -0.026 0.081 -0.047 0.068 -0.016 0.132 0.11 0.036 0.052 0.076 0.286 0.026 0.093 0.079 0.414 0.025 0.111 0.11 0.567 0.076 0.353 0.058 0.156 0.169 0.522 0.085 0.148 0.334 0.465 0.118 0.126 0.457 0.421 0.294 0.141 0.342 0.148 0.346 0.123 0.349 0.074 0.36 0.046 0.368 0.011 0.184 -0.017 0.496 -0.091 0.311 -0.227 0.142 -0.125 0.344 -0.851 0.165 -0.41" />
    <path class="write-stroke-pen" fill="none" stroke="#FFA200" stroke-width="2.4" stroke-linecap="round" stroke-linejoin="round" __comx="87.1" __comy="291.864" __timestamp="0x187b945ed8f" d="M87.023 293.949 l0 -0.003 0 -0.005 0 -0.008 0 -0.01 -0.012 -0.026 -0.005 -0.013 -0.021 -0.033 -0.03 -0.034 -0.034 -0.027 -0.041 -0.024 -0.047 -0.021 -0.052 -0.019 -0.067 -0.002 -0.057 0.021 -0.047 0.041 -0.092 0.22 -0.009 0.071 0.02 0.117 0.047 0.123 0.059 0.101 0.074 0.099 0.266 0.198 0.058 0.035 0.15 0.087 0.144 0.061 0.346 0.086 0.036 0.008 0.118 0.022 0.122 0.018 0.039 0.005 0.039 0.005 0.037 0.002 0.035 -0.001 0.033 -0.003 0.069 -0.023 0.044 -0.034 0.019 -0.054 -0.117 -0.146 -0.052 -0.07 -0.08 -0.096 -0.081 -0.083 -0.272 -0.15 -0.06 -0.027 -0.101 -0.036 -0.337 -0.069 -0.695 -0.146 -0.525 -0.11" />
    <path class="write-stroke-pen" fill="none" stroke="#FFA200" stroke-width="2.4" stroke-linecap="round" stroke-linejoin="round" __comx="115.029" __comy="291.864" __timestamp="0x187b945f314" d="M107.592 283.547 l0.01 0 0.036 0 0.079 0 0.302 -0.039 0.143 -0.062 0.427 -0.283 0.154 -0.106 0.443 -0.348 0.158 -0.122 0.466 -0.411 0.124 -0.113 0.496 -0.449 0.153 -0.131 0.485 -0.402 0.158 -0.127 0.438 -0.263 0.174 -0.112 0.45 -0.215 0.128 -0.066 0.347 -0.124 0.121 -0.043 0.418 -0.086 0.12 -0.02 0.383 -0.003 0.167 0.03 0.381 0.098 0.31 0.245 0.304 0.162 0.172 0.102 0.533 0.395 0.314 0.162 0.428 0.309 0.148 0.097 0.494 0.227 0.288 0.251 0.395 0.161 0.174 0.087 0.398 0.17 0.149 0.081 0.356 0.169 0.152 0.088 0.149 0.1 0.148 0.109 0.146 0.116 0.126 0.096 0.149 0.121 0.238 0.309 0.053 0.073 0.159 0.337 0.053 0.118 0.154 0.58 0.056 0.353 0.038 0.415 0.023 0.419 0.013 0.421 -0.031 0.43 -0.058 0.427 -0.033 0.418 -0.064 0.482 -0.1 0.485 -0.102 0.525 -0.107 0.423 -0.131 0.476 -0.095 0.36 -0.103 0.419 -0.1 0.421 -0.097 0.422 -0.103 0.477 -0.123 0.482 -0.148 0.586 -0.144 0.575 -0.293 0.63 -0.169 0.584 -0.14 0.497 -0.334 0.636 -0.149 0.415 -0.148 0.448 -0.327 0.546 -0.07 0.113 -0.447 0.582 -0.268 0.196 -0.391 0.336 -0.297 0.133 -0.344 0.143 -0.347 0.121 -0.35 0.072 -0.414 0.05 -0.366 0.009 -0.439 -0.054 -0.56 -0.238 -0.346 -0.139 -0.565 -0.386 -0.332 -0.199 -0.303 -0.393 -0.46 -0.434 -0.204 -0.289 -0.388 -0.456 -0.17 -0.302 -0.141 -0.331 -0.123 -0.348 -0.074 -0.351 -0.051 -0.414 -0.01 -0.42 0.05 -0.385 0.22 -0.469 0.241 -0.252 0.339 -0.225 0.475 -0.216 0.485 -0.131 0.667 -0.08 0.72 -0.037 0.834 0.074 1.035 0.375 0.919 0.194 1.024 0.567 0.88 0.504 0.789 0.493 0.786 0.471 0.708 0.487 0.659 0.495 0.852 0.717 0.51 0.399 0.36 0.281" />
    <path class="write-stroke-pen" fill="none" stroke="#FFA200" stroke-width="2.4" stroke-linecap="round" stroke-linejoin="round" __comx="120.348" __comy="291.864" __timestamp="0x187b945f522" d="M115.171 288.724 l0.023 0 0.223 0 0.261 0 0.305 0 0.382 0 0.399 0 0.464 0 0.467 0 0.524 0 0.527 0.045 0.635 0.077 0.567 0.082 0.622 0.093 0.616 0.094 0.558 0.089 0.507 0.086 0.512 0.09 0.515 0.092 0.462 0.087 0.361 0.077 0.358 0.046 0.141 0.033 0.182 0.054 0.142 0.052 0.602 0.221" />
    <path class="write-stroke-pen" fill="none" stroke="#FFA200" stroke-width="2.4" stroke-linecap="round" stroke-linejoin="round" __comx="139.953" __comy="291.864" __timestamp="0x187b945fb70" d="M125.997 293.478 l-0.01 0 -0.036 0 -0.053 0 -0.08 0.018 -0.268 0.029 -0.083 0.022 -0.105 0.05 -0.13 0.078 -0.33 0.164 -0.23 0.241 -0.097 0.092 -0.122 0.117 -0.245 0.358 -0.278 0.245 -0.175 0.328 -0.066 0.117 -0.191 0.542 -0.068 0.336 -0.047 0.404 -0.025 0.359 0.002 0.368 0.032 0.165 0.304 0.623 0.241 0.244 0.294 0.203 0.423 0.208 0.49 0.163 0.503 0.13 0.616 0.075 0.672 0.01 0.73 -0.079 0.775 -0.307 0.719 -0.346 0.723 -0.402 0.675 -0.442 0.678 -0.5 0.574 -0.486 0.525 -0.492 0.494 -0.537 0.417 -0.574 0.221 -0.496 0.207 -0.54 0.17 -0.545 0.085 -0.385 0.05 -0.399 -0.005 -0.176 -0.063 -0.38 -0.222 -0.309 -0.266 -0.219 -0.356 -0.204 -0.434 -0.19 -0.439 -0.121 -0.506 -0.072 -0.512 -0.037 -0.571 -0.021 -0.58 0.063 -0.572 0.103 -0.677 0.378 -0.459 0.184 -0.572 0.455 -0.423 0.383 -0.384 0.389 -0.413 0.493 -0.233 0.45 -0.404 0.532 -0.195 0.447 -0.139 0.339 -0.162 0.454 -0.153 0.462 -0.115 0.405 -0.065 0.405 -0.015 0.117 -0.014 0.48 0.027 0.163 0.073 0.182 0.272 0.288 0.141 0.134 0.398 0.22 0.373 0.11 0.447 0.07 0.459 0.018 0.637 -0.039 0.637 -0.122 0.722 -0.292 0.696 -0.223 0.83 -0.454 0.754 -0.42 0.754 -0.423 0.753 -0.423 0.703 -0.412 0.668 -0.446 0.615 -0.449 0.6 -0.424 0.574 -0.449 0.451 -0.357 0.461 -0.367 0.153 -0.119 0.418 -0.392 0.077 -0.073 0.125 -0.12 0.066 -0.058 0.041 -0.037 0.03 -0.024 0.044 -0.044 0.049 -0.041 -0.085 0.128 -0.034 0.051 -0.139 0.358 -0.123 0.341 -0.286 0.491 -0.105 0.354 -0.279 0.517 -0.143 0.37 -0.145 0.401 -0.144 0.411 -0.12 0.407 -0.068 0.407 -0.037 0.36 0.018 0.164 0.099 0.535 0.19 0.277 0.161 0.355 0.095 0.136 0.31 0.228 0.109 0.079 0.415 0.148 0.336 0.069 0.351 0.043 0.363 0.009 0.399 -0.071 0.483 -0.267 0.346 -0.183 0.483 -0.431 0.391 -0.393 0.439 -0.466 0.392 -0.454 0.438 -0.522 0.245 -0.408 0.383 -0.51 0.211 -0.41 0.192 -0.399 0.177 -0.362 0.101 -0.181 0.176 -0.451 0.032 -0.079 0.037 -0.114 0.031 -0.118 0.018 -0.079 0.008 -0.039 0.005 -0.071 -0.011 -0.081 -0.027 -0.039 -0.04 -0.004 -0.11 0.17 -0.038 0.051 -0.146 0.384 -0.025 0.09 -0.115 0.526 -0.045 0.381 -0.011 0.111 -0.028 0.578 -0.004 0.114 -0.011 0.528 -0.002 0.117 0.019 0.594 0.011 0.122 0.096 0.544 0.053 0.157 0.073 0.153 0.17 0.413 0.087 0.116 0.12 0.123 0.135 0.116 0.31 0.145 0.106 0.039 0.35 0.058 0.137 0 0.43 -0.06 0.283 -0.18 0.424 -0.218 0.294 -0.295 0.405 -0.382 0.228 -0.34 0.399 -0.506 0.23 -0.458 0.327 -0.503 0.211 -0.472 0.204 -0.503 0.173 -0.41 0.192 -0.466 0.115 -0.202 0.185 -0.4 0.086 -0.15 0.139 -0.203 0.126 -0.179 0.142 -0.169 0.139 -0.136 0.103 -0.085 0.104 -0.067 0.152 -0.073 0.116 -0.044 0.142 -0.026 0.142 -0.003 0.164 0.028 0.284 0.188 0.11 0.073 0.278 0.358 0.064 0.096 0.148 0.368 0.044 0.113 0.102 0.509 0.042 0.352 0.026 0.361 -0.019 0.376 -0.038 0.164 -0.142 0.591 -0.108 0.367 -0.264 0.456 -0.105 0.322 -0.07 0.15 -0.189 0.511 -0.056 0.129 -0.097 0.399 -0.015 0.074 -0.02 0.119 -0.01 0.128 0.018 0.138 0.055 0.122 0.22 0.173 0.119 0.052 0.416 0.022 0.44 -0.202 0.374 -0.169 0.488 -0.446 0.4 -0.361 0.372 -0.353 0.43 -0.42 0.469 -0.438 0.388 -0.399 0.382 -0.412 0.219 -0.352 0.378 -0.471 0.19 -0.316 0.196 -0.352 0.094 -0.143 0.12 -0.177 0.126 -0.18 0.07 -0.113 0.048 -0.08 0.02 -0.035 0.025 -0.064 0.021 -0.072 -0.002 0.028 -0.028 0.027 -0.119 0.268 -0.045 0.087 -0.145 0.478 -0.12 0.377 -0.049 0.123 -0.161 0.611 -0.057 0.389 -0.031 0.351 -0.008 0.117 -0.019 0.479 -0.003 0.077 0.014 0.145 0.038 0.135 0.058 0.127 0.063 0.087 0.107 0.095 0.405 0.357" />
    <path class="write-stroke-pen" fill="none" stroke="#FFA200" stroke-width="2.4" stroke-linecap="round" stroke-linejoin="round" __comx="156.922" __comy="291.864" __timestamp="0x187b945fc11" d="M156.31 287.501 l0 -0.003 0 -0.005 0.01 -0.01 0.043 0.003 0.094 0.04 0.118 0.065 0.532 0.466 0.065 0.059 0.36 0.325" />
    <path class="write-stroke-pen" fill="none" stroke="#FFA200" stroke-width="2.4" stroke-linecap="round" stroke-linejoin="round" __comx="170.26" __comy="291.864" __timestamp="0x187b945feec" d="M162.194 297.95 l0 -0.003 0 -0.049 0.056 -0.221 0.077 -0.149 0.377 -0.479 0.21 -0.349 0.404 -0.475 0.214 -0.315 0.44 -0.523 0.235 -0.45 0.366 -0.515 0.204 -0.412 0.189 -0.4 0.163 -0.399 0.072 -0.167 0.119 -0.404 0.019 -0.074 0.024 -0.119 0.006 -0.145 -0.022 -0.135 -0.181 -0.256 -0.047 -0.056 -0.312 -0.165 -0.095 -0.038 -0.429 -0.088 -0.129 -0.003 -0.52 0.063 -0.315 0.246 -0.386 0.198 -0.308 0.413 -0.337 0.411 -0.135 0.338 -0.163 0.49 -0.128 0.496 -0.112 0.507 -0.057 0.506 -0.028 0.457 0.006 0.52 0.042 0.415 0.109 0.44 0.24 0.3 0.254 0.458 0.373 0.268 0.353 0.184 0.425 0.153 0.439 0.083 0.508 0.049 0.569 0.027 0.579 -0.059 0.698 -0.29 0.632 -0.335 0.586 -0.383 0.574 -0.407 0.538 -0.442 0.483 -0.444 0.38 -0.389 0.394 -0.449 0.268 -0.456 0.38 -0.509 0.209 -0.41 0.316 -0.46 0.154 -0.316 0.086 -0.143 0.152 -0.339 0.052 -0.098 0.057 -0.115 0.026 -0.049 0.017 -0.035 0.016 -0.036 0.029 -0.055 0.022 -0.053 0.019 -0.024 0.016 0.003 0.032 0.146 0.006 0.037 0.008 0.071 0.038 0.375 0.012 0.069 0.074 0.383 0.025 0.114 0.084 0.359 0.031 0.122 0.088 0.476 0.027 0.124 0.085 0.538 0.015 0.118 0.039 0.595 0.014 0.359 0.01 0.42 0.005 0.367 -0.016 0.144 -0.033 0.537 -0.006 0.118 -0.011 0.371 -0.002 0.079 -0.003 0.125 -0.002 0.128 -0.002 0.13 -0.001 0.085 -0.016 0.09 -0.014 0.058 -0.012 0.026 -0.023 -0.092 -0.025 -0.056 -0.051 -0.36 -0.058 -0.297 -0.019 -0.139 -0.081 -0.502 -0.033 -0.344 -0.02 -0.356 -0.013 -0.364 0.01 -0.371 0.04 -0.204 0.126 -0.544 0.244 -0.333 0.194 -0.363 0.342 -0.316 0.371 -0.357 0.342 -0.197 0.444 -0.217 0.498 -0.189 0.508 -0.166 0.513 -0.154 0.504 -0.099 0.402 -0.064 0.356 -0.034 0.364 -0.021 0.184 0.014 0.433 0.058 0.164 0.049 0.464 0.267 0.066 0.046 0.471 0.33" />
    <path class="write-stroke-pen" fill="none" stroke="#FFA200" stroke-width="2.4" stroke-linecap="round" stroke-linejoin="round" __comx="196.767" __comy="291.864" __timestamp="0x187b9460183" d="M197.167 282.558 l0.003 0 -0.006 0 -0.03 0 -0.057 0.018 -0.163 0.214 -0.235 0.169 -0.219 0.374 -0.31 0.419 -0.191 0.446 -0.345 0.646 -0.224 0.683 -0.345 0.795 -0.171 0.723 -0.324 0.841 -0.167 0.828 -0.155 0.901 -0.146 0.896 -0.113 0.949 -0.1 0.944 -0.031 0.997 -0.009 0.934 -0.003 0.939 0.061 0.83 0.137 0.739 0.362 0.756 0.361 0.566 0.397 0.45 0.423 0.397 0.431 0.215 0.525 0.166 0.546 0.129 0.55 0.063 0.559 0.007 0.617 0.004 0.374 -0.076 0.54 -0.109" />
    <path class="write-stroke-pen" fill="none" stroke="#FFA200" stroke-width="2.4" stroke-linecap="round" stroke-linejoin="round" __comx="195.307" __comy="291.864" __timestamp="0x187b946024c" d="M191.471 292.537 l0.039 0 0.276 0 0.362 0 0.412 -0.021 0.496 -0.058 0.561 -0.08 0.563 -0.087 0.62 -0.096 0.566 -0.115 0.671 -0.114 0.549 -0.068 0.502 -0.054 0.508 -0.028 0.933 0.302 0.129 0.029 0.485 0.109" />
    <path class="write-stroke-pen" fill="none" stroke="#FFA200" stroke-width="2.4" stroke-linecap="round" stroke-linejoin="round" __comx="223.906" __comy="293.408" __timestamp="0x187b94609c4" d="M203.803 299.127 l-0.027 -0.018 -0.32 -0.273 -0.161 -0.238 -0.153 -0.293 -0.096 -0.358 -0.057 -0.385 0.026 -0.417 0.075 -0.42 0.276 -0.519 0.154 -0.333 0.347 -0.492 0.22 -0.38 0.439 -0.474 0.224 -0.312 0.466 -0.336 0.446 -0.383 0.307 -0.192 0.334 -0.172 0.144 -0.089 0.35 -0.18 0.115 -0.055 0.157 -0.056 0.364 -0.08 0.078 -0.015 0.146 -0.004 0.168 0.027 0.263 0.181 0.099 0.082 0.231 0.37 0.056 0.1 0.145 0.589 0.052 0.385 0.031 0.401 0.018 0.41 0.012 0.471 -0.033 0.423 -0.063 0.478 -0.072 0.421 -0.081 0.422 -0.042 0.361 -0.026 0.367 -0.007 0.122 -0.016 0.49 -0.002 0.078 0.005 0.13 0.023 0.149 0.045 0.138 0.054 0.095 0.246 0.184 0.093 0.044 0.377 0.032 0.196 -0.041 0.575 -0.299 0.257 -0.248 0.442 -0.272 0.316 -0.394 0.474 -0.465 0.199 -0.289 0.37 -0.416 0.197 -0.308 0.098 -0.135 0.208 -0.386 0.08 -0.117 0.083 -0.121 0.068 -0.111 0.03 -0.047 0.02 -0.034 0.036 -0.051 0.047 -0.044 0.092 0.056 0.011 0.045 0.019 0.252 0.004 0.081 0.01 0.397 0.01 0.108 0.065 0.451 0.049 0.152 0.134 0.411 0.214 0.248 0.107 0.119 0.144 0.143 0.361 0.239 0.138 0.102 0.374 0.148 0.11 0.034 0.462 0.079 0.116 0.016 0.423 0.015 0.189 -0.043 0.452 -0.244 0.137 -0.088 0.315 -0.367 0.223 -0.324 0.209 -0.345 0.215 -0.406 0.178 -0.402 0.108 -0.345 0.093 -0.41 0.054 -0.414 0.029 -0.364 -0.019 -0.431 -0.043 -0.2 -0.337 -0.597 -0.088 -0.133 -0.428 -0.488 -0.289 -0.215 -0.324 -0.186 -0.404 -0.208 -0.393 -0.15 -0.4 -0.106 -0.357 -0.075 -0.362 -0.046 -0.376 0.007 -0.164 0.034 -0.509 0.251 -0.112 0.074 -0.302 0.405 -0.195 0.363 -0.149 0.38 -0.126 0.398 -0.078 0.455 -0.04 0.408 -0.025 0.469 0.006 0.417 0.059 0.383 0.114 0.394 0.252 0.304 0.246 0.412 0.384 0.27 0.312 0.17 0.337 0.159 0.343 0.13 0.4 0.085 0.357 0.046 0.364 0.029 0.378 -0.018 0.402 -0.089 0.465 -0.245 0.192 -0.127 0.516 -0.475 0.212 -0.292 0.38 -0.418 0.218 -0.355 0.196 -0.348 0.207 -0.407 0.16 -0.354 0.13 -0.353 0.055 -0.162 0.111 -0.474 0.031 -0.124 0.057 -0.369 0.005 -0.038 -0.001 -0.11 -0.012 -0.081 -0.037 -0.093 -0.054 -0.078 -0.08 -0.059 -0.283 -0.043 -0.178 0.147 -0.087 0.078 -0.22 0.387 -0.147 0.309 -0.133 0.375 -0.117 0.395 -0.072 0.454 -0.037 0.407 -0.024 0.469 -0.013 0.47 -0.007 0.415 0.015 0.421 0.064 0.385 0.053 0.161 0.165 0.437 0.226 0.25 0.111 0.12 0.295 0.198 0.099 0.051 0.335 0.1 0.118 0.02 0.429 -0.018 0.182 -0.054 0.504 -0.307 0.151 -0.118 0.451 -0.475 0.201 -0.302 0.347 -0.45 0.189 -0.321 0.21 -0.403 0.2 -0.412 0.182 -0.369 0.103 -0.184 0.203 -0.462 0.084 -0.152 0.142 -0.396 0.042 -0.119 0.033 -0.117 0.028 -0.121 0.008 -0.039 0.008 -0.039 0.004 -0.072 -0.01 -0.073 -0.028 -0.051 -0.082 0.063 -0.021 0.039 -0.086 0.262 -0.019 0.082 -0.093 0.454 -0.038 0.324 -0.024 0.344 -0.016 0.409 -0.009 0.362 -0.005 0.367 0.006 0.128 0.064 0.608 0.045 0.16 0.128 0.422 0.06 0.126 0.242 0.241 0.074 0.074 0.294 0.153 0.142 0.053 0.394 0.082 0.356 0.027 0.161 -0.021 0.567 -0.273 0.168 -0.094 0.518 -0.449 0.239 -0.294 0.405 -0.447 0.216 -0.353 0.338 -0.455 0.177 -0.362 0.165 -0.396 0.143 -0.358 0.142 -0.365 0.057 -0.161 0.096 -0.364 0.035 -0.126 0.028 -0.122 0.023 -0.125 0.007 -0.04 0.002 -0.073 -0.015 -0.085 -0.01 -0.035 -0.056 0.075 -0.015 0.042 -0.031 0.264 -0.007 0.084 -0.018 0.454 -0.003 0.104 -0.008 0.502 -0.001 0.112 -0.004 0.58 -0.001 0.114 -0.001 0.529 -0.001 0.36 0 0.12 0.019 0.431 0.009 0.087 0.03 0.145 0.06 0.167 0.078 0.161 0.079 0.127 0.11 0.113 0.297 0.159 0.072 0.027 0.352 0.02 0.15 -0.025 0.48 -0.295 0.224 -0.252 0.382 -0.27 0.326 -0.457 0.419 -0.458 0.251 -0.399 0.426 -0.521 0.23 -0.449 0.3 -0.411 0.181 -0.321 0.19 -0.355 0.118 -0.167 0.192 -0.341 0.083 -0.118 0.094 -0.113 0.061 -0.065 0.065 -0.063 0.029 -0.025 0.065 -0.04 0.086 -0.025 0.216 0.127 0.059 0.054 0.15 0.328 0.088 0.296 0.092 0.332 0.08 0.395 0.087 0.412 0.063 0.358 0.057 0.365 0.058 0.424 0.022 0.126 0.051 0.541 0.021 0.364 0.006 0.121 -0.029 0.495 -0.025 0.142 -0.038 0.142 -0.067 0.164 -0.083 0.159 -0.07 0.091 -0.051 0.052 -0.089 0.068 -0.102 0.051 -0.113 0.021 -0.137 -0.011 -0.247 -0.165 -0.09 -0.075 -0.157 -0.305 -0.036 -0.094 -0.078 -0.373 -0.011 -0.115 0.038 -0.421 0.068 -0.213 0.278 -0.489 0.117 -0.157 0.43 -0.442 0.345 -0.229 0.539 -0.376 0.572 -0.243 0.661 -0.38 0.567 -0.212 0.658 -0.364 0.566 -0.206 0.595 -0.314 0.522 -0.195 0.652 -0.331 0.532 -0.218 0.677 -0.414 0.515 -0.232 0.62 -0.409 0.512 -0.241 0.545 -0.429 0.455 -0.362 0.38 -0.339 0.259 -0.344 0.383 -0.414 0.173 -0.341 0.165 -0.388 0.111 -0.39 0.065 -0.402 0.019 -0.16 -0.033 -0.548 -0.168 -0.312 -0.152 -0.415 -0.308 -0.326 -0.209 -0.339 -0.39 -0.29 -0.14 -0.125 -0.461 -0.276 -0.155 -0.119 -0.424 -0.225 -0.073 -0.038 -0.337 -0.103 -0.073 -0.019 -0.129 -0.002 -0.289 0.209 -0.085 0.075 -0.232 0.452 -0.091 0.352 -0.062 0.487 -0.037 0.613 0.008 0.614 0.06 0.73 0.083 0.773 0.119 0.765 0.142 0.871 0.141 0.855 0.153 1.021 0.111 0.995 0.101 1.047 0.064 1.152 0.053 1.249 0.049 1.286 0.01 1.387 0.002 1.369 0 1.478 -0.117 1.409 -0.139 1.467 -0.338 1.419 -0.133 1.453 -0.137 1.348 -0.373 1.328 -0.171 1.13 -0.375 1.193 -0.175 0.986 -0.384 0.904 -0.18 0.684 -0.325 0.628 -0.162 0.404 -0.263 0.264 -0.226 0.378 -0.241 0.167 -0.055 0.031 -0.094 0.04 -0.39 0.028 -0.214 -0.159 -0.192 -0.278 -0.169 -0.429 -0.149 -0.578 -0.078 -0.761 -0.03 -0.756 -0.012 -0.754 -0.005 -0.754 -0.002 -0.64 -0.001 -0.595 0.024 -0.55 0.06 -0.561 0.057 -0.537" />
    <path class="write-stroke-pen" fill="none" stroke="#FFA200" stroke-width="2.4" stroke-linecap="round" stroke-linejoin="round" __comx="242.495" __comy="298.634" __timestamp="0x187b9460ab7" d="M239.483 300.586 l0.004 -0.004 0.007 -0.007 0.034 -0.043 0.063 -0.071 0.093 -0.112 0.091 -0.104 0.208 -0.304 0.268 -0.229 0.218 -0.287 0.363 -0.241 0.335 -0.197 0.352 -0.193 0.349 -0.166 0.373 -0.181 0.362 -0.159 0.418 -0.165 0.473 -0.166 0.42 -0.144 0.371 -0.132 0.163 -0.054 0.473 -0.087 0.59 -0.108" />
    <path class="write-stroke-pen" fill="none" stroke="#FFA200" stroke-width="2.4" stroke-linecap="round" stroke-linejoin="round" __comx="262.04" __comy="294.523" __timestamp="0x187b94610ba" d="M250.591 295.032 l0 -0.003 0 -0.015 -0.031 -0.058 -0.043 -0.043 -0.059 -0.044 -0.295 -0.108 -0.057 -0.017 -0.313 -0.051 -0.068 -0.009 -0.346 -0.028 -0.128 0.018 -0.413 0.093 -0.124 0.051 -0.263 0.234 -0.104 0.086 -0.229 0.293 -0.109 0.13 -0.224 0.378 -0.075 0.124 -0.162 0.551 -0.025 0.11 -0.063 0.518 0.016 0.157 0.122 0.533 0.234 0.29 0.365 0.455 0.313 0.209 0.367 0.184 0.442 0.178 0.5 0.147 0.503 0.075 0.566 0.042 0.456 -0.003 0.53 -0.071 0.534 -0.131 0.526 -0.329 0.378 -0.203 0.333 -0.386 0.386 -0.389 0.18 -0.29 0.147 -0.323 0.107 -0.338 0.084 -0.352 0.052 -0.359 -0.002 -0.182 -0.072 -0.548 -0.185 -0.312 -0.187 -0.423 -0.361 -0.312 -0.132 -0.131 -0.55 -0.315 -0.15 -0.113 -0.579 -0.286 -0.335 -0.148 -0.401 -0.157 -0.345 -0.097 -0.357 -0.078 -0.118 -0.021 -0.538 -0.052 -0.14 0.007 -0.383 0.068 -0.285 0.221 -0.103 0.077 -0.227 0.277 -0.108 0.125 -0.24 0.418 -0.072 0.121 -0.136 0.437 -0.027 0.111 -0.053 0.358 -0.007 0.125 0.042 0.39 0.039 0.132 0.132 0.42 0.212 0.252 0.083 0.104 0.138 0.148 0.353 0.246 0.117 0.081 0.378 0.141 0.153 0.042 0.522 0.076 0.375 -0.023 0.216 -0.063 0.636 -0.307 0.337 -0.147 0.477 -0.305 0.428 -0.201 0.551 -0.399 0.42 -0.233 0.534 -0.415 0.414 -0.238 0.497 -0.342 0.37 -0.19 0.443 -0.344 0.318 -0.188 0.354 -0.195 0.198 -0.133 0.446 -0.219 0.154 -0.066 0.157 -0.05 0.119 -0.031 0.122 -0.026 0.171 0.002 0.268 0.147 0.081 0.064 0.176 0.349 0.082 0.305 0.022 0.105 0.011 0.566 -0.035 0.404 -0.055 0.36 -0.098 0.428 -0.117 0.426 -0.105 0.416 -0.092 0.367 -0.093 0.371 -0.024 0.119 -0.092 0.435 -0.014 0.078 -0.018 0.123 -0.015 0.126 -0.009 0.083 -0.003 0.094 0.02 0.108 0.039 0.09 0.056 0.076 0.1 0.082 0.122 0.057 0.324 0.026 0.162 -0.038 0.292 -0.235 0.34 -0.189 0.255 -0.289 0.336 -0.253 0.261 -0.364 0.333 -0.392 0.126 -0.153 0.41 -0.532 0.121 -0.159 0.371 -0.45 0.128 -0.159 0.364 -0.409 0.092 -0.11 0.135 -0.166 0.165 -0.191 0.154 -0.159 0.131 -0.134 0.102 -0.088 0.073 -0.059 0.068 -0.047 0.034 -0.021 0.075 -0.032 0.059 -0.015 0.077 0.004 0.064 0.026 0.125 0.192 0.023 0.046 0.069 0.279 0.013 0.062 0.042 0.378 0.01 0.111 0.047 0.521 0.008 0.115 0.02 0.531 0.004 0.117 0.008 0.479 0.002 0.12 0.004 0.485 0.006 0.086 0.016 0.128 0.047 0.379 0.007 0.036 0.02 0.084 0.024 0.085 0.04 0.108 0.035 0.066 0.042 0.059 0.047 0.052 0.073 0.05 0.12 0.029 0.223 -0.108 0.135 -0.078 0.274 -0.328 0.204 -0.306 0.326 -0.398 0.192 -0.315 0.364 -0.436 0.126 -0.156 0.433 -0.506 0.127 -0.155 0.38 -0.445 0.113 -0.127 0.137 -0.162 0.138 -0.169 0.12 -0.14 0.096 -0.092 0.07 -0.061 0.073 -0.059 0.032 -0.024 0.033 -0.023 0.101 -0.04 0.091 -0.009 0.204 0.157 0.042 0.039 0.048 0.068 0.118 0.414 0.021 0.096 0.052 0.485 0.021 0.341 0.006 0.115 0.015 0.587 0.006 0.356 -0.016 0.14 -0.033 0.529 -0.025 0.138 -0.04 0.361 -0.025 0.106 -0.022 0.118 -0.018 0.122 -0.011 0.08 -0.005 0.034 -0.006 0.072 0.016 0.037 0.088 -0.159 0.12 -0.231 0.148 -0.29 0.323 -0.404 0.195 -0.349 0.323 -0.452 0.195 -0.369 0.36 -0.483 0.118 -0.158 0.351 -0.408 0.113 -0.127 0.138 -0.162 0.308 -0.243 0.088 -0.087 0.109 -0.099 0.102 -0.079 0.104 -0.063 0.07 -0.036 0.073 -0.032 0.104 -0.025 0.077 -0.005 0.1 0.017 0.222 0.21 0.045 0.048 0.131 0.316 0.03 0.096 0.075 0.484 0.013 0.109 0.035 0.572 0.013 0.351 0.003 0.117 0.009 0.594 0.009 0.122 0.059 0.428 0.043 0.131 0.127 0.369 0.254 0.232 0.097 0.082 0.391 0.153 0.325 0.072 0.344 0.045 0.417 -0.008 0.429 -0.065 0.312 -0.19 0.473 -0.203 0.278 -0.489 0.217 -0.382" />
  </g>
</svg>
